<?xml version="1.0" encoding="UTF-8"?>
<svg id="Layer_1" data-name="Layer 1" xmlns="http://www.w3.org/2000/svg" viewBox="0 0 1577.76 390.64">
  <defs>
    <style>
      .cls-1 {
        fill: #084bb5;
        stroke-width: 0px;
      }
    </style>
  </defs>
  <path class="cls-1" d="M1538.85,212.83c1.36,26.98-12.58,44.69-27.39,56.06-7.78,5.95-16.6,12.81-26.93,14.71-33.97,6.23-74.98,9.5-115.37,6.31-21.97-1.72-43.14-5.1-63.37-9.34-2.94-.62-6.96-.86-7.89-2.34-1.47-2.3.89-10.82,1.16-14.01.88-9.93,1.24-20.71.69-31.06-.27-4.99-1.86-9.54-.69-14.02,2.43-.82,4.71.9,6.96,1.4,7.31,1.64,15.01,2.3,22.75,3.5,10.1,1.56,20.42,3.04,31.8,3.27,11.3.24,21.36-.08,34.35-.7,4.06-.2,10.14-.51,16.25-1.17,5.38-.59,11.84-.9,12.3-5.14.5-4.47-8.94-8.02-12.77-8.41-10.91-1.09-22.05-1.17-32.73-2.34-5.11-.58-10.29-1.28-15.32-2.1-5.03-.82-10.37-1.36-14.86-2.57-3.95-1.05-8.24-3.47-12.3-5.37-11.84-5.57-21.82-13.43-29.02-23.36-9.71-13.39-12.92-35.47-6.97-55.6,2.67-4.28,4.91-8.49,7.43-12.38,7.82-12.26,17.95-20.52,32.5-26.39,14.47-5.84,29.63-8.76,48.28-10.74,27.59-2.96,57.29-.66,84.96,2.33,18.88,2.07,35.4,5.1,53.85,7.71,2.51.35,6.23.55,6.96,1.64.93,1.4-2.28,10.59-2.78,13.08-1.05,5.02-2.01,10.86-2.32,14.01-.62,5.96,0,11.21.69,15.65.74,4.75,2.67,8.18,2.79,13.32-2.09,1.56-5.11.82-7.43.47-32.15-4.59-68.48-8.06-105.85-6.31-5.5.28-12.11-.54-16.25,1.17-1.63.66-4.53,3.15-4.18,5.37.43,2.69,5.84,2.57,9.05,2.8,19.62,1.52,38.11,4.13,56.18,6.78,4.02.58,8.12,1.09,12.07,1.87,11.99,2.41,22.36,4.87,31.57,10.05,3.21,1.79,5.92,3.43,8.59,5.37,7.82,5.72,13.97,13.86,17.87,24.06,2.52,6.62,4.91,14.29,5.34,22.43"/>
  <path class="cls-1" d="M1526.78,362.56v13.08c-16.64.55-34.27.08-51.3.23v-56.06l.23-.7h21.36v43.21c9.44.55,19.88.08,29.71.24"/>
  <path class="cls-1" d="M1464.57,362.56c-.16,4.36.31,9.34-.23,13.31-18.18-.16-36.99.32-54.78-.23v-55.83l.23-.7h53.39v13.32h-31.8c-.54,2.18-.08,5.37-.24,7.94h27.16v13.31h-27.16v8.88h33.43Z"/>
  <path class="cls-1" d="M1397.02,319.11c.39,18.37.39,38.39,0,56.76h-19.26c-.04-13.2-.16-26.35,1.39-36.21-4.22,11.87-8.04,24.14-12.07,36.21h-15.09c-3.75-12.11-8.01-23.71-11.61-35.97-.34,2.49.24,5.25.47,8.18.66,7.86.43,18.22.47,27.79-6.42-.16-13.47.31-19.5-.23.16-18.77-.31-38.16.23-56.53h26c3.79,11.68,7.66,23.28,11.38,35.04,4.18-11.37,7.82-23.28,11.61-35.04h26Z"/>
  <path class="cls-1" d="M1318.56,63.1c-.39,7.12.66,18.76-.46,27.1-1.71,1.48-4.07,1.95-6.04,2.8-12.07,5.1-24.75,10.43-36.91,15.89-2.01.89-4.1,2.29-6.5,2.1-.54-5.03-.24-12.22-.24-19.39,0-7.63.55-13.58.47-19.39-.04-2.49-1-7.28.24-8.41,1.74-1.6,11.26-.7,14.85-.7,12.73,0,22.36-.35,34.59,0"/>
  <path class="cls-1" d="M1313.69,375.18c-1.12,1.28-3.41.7-5.11.7h-16.95c-2.01-5.29.31-12.85-2.32-16.81-2.86-4.28-9.74-2.57-16.48-3.04-.54,6.15-.08,13.32-.23,19.85h-21.59c.15-18.84-.31-38.31.23-56.76,18.22,1.6,46.77-4.09,56.64,6.08,6.82,7,2.9,23.2-7.42,23.82,6.81,1.95,10.41,4.91,10.91,13.08.2,3.27-.85,7.36.23,10.28.47,1.21,1.94,1.4,2.09,2.8M1290.94,340.37c3.48-8.68-10.06-8.49-18.11-7.94-.54,3.27-.08,7.55-.23,11.21,6.66-.55,16.41,1.48,18.34-3.27"/>
  <path class="cls-1" d="M1244.51,375.88h-21.59c-.73-2.61-1.59-5.1-2.56-7.47h-21.12c-1.12,2.22-1.81,4.87-2.55,7.47h-21.12c7.7-19.12,15.47-38.15,23.67-56.77h21.82c7.66,19.08,15.74,37.73,23.45,56.77M1203.19,356.49h13.46c-2.32-6.62-4.33-13.55-6.96-19.86-2.09,6.7-4.37,13.16-6.5,19.86"/>
  <path class="cls-1" d="M1241.26,79.22c-.66,15.49.77,34.22.46,51.86-.15,9.42-.24,35.74-.24,53.96,0,19.23-.23,35.23-.23,54.89s-.31,30.95,0,50.22c-30.41.73-61.83.93-92.62.93-4.25,0-8.7.55-12.76-.7-.27-33.13.46-69.8.46-102.54,0-27.8-.04-55.01-.23-76.15-.04-4.28.04-8.56,0-12.85-.04-5.34.58-11.84-.93-16.12-.39-1.13-.89-1.83-.23-2.8.97-1.4,8.32-.9,10.91-.94,12.73-.08,25.38.24,38.07.24,16.94,0,33.12.31,49.9-.47,2.32-.12,5.3-.66,7.43.47"/>
  <path class="cls-1" d="M1205.05,43.71c.16,2.96-.31,6.54.24,9.11-21.98.55-44.96.08-67.32.24V14.05l.24-.7h65.46v9.11c-12.54.55-26.08.08-39,.24-.55,1.4-.08,3.81-.24,5.6h33.19v9.34h-32.96c-.55,1.56-.08,4.13-.24,6.07h40.62Z"/>
  <path class="cls-1" d="M1150.96,353.92h20.89c-1.08,6.19-3.02,10.39-6.27,14.01-11.61,13-41.74,12.06-53.16-.7-11.38-12.77-7.82-34.02,3.95-42.98,4.8-3.67,11.69-6.08,18.11-6.55,20.58-1.52,34.28,5.96,36.91,23.13h-20.66c-.08-7.51-9.05-10.98-15.78-8.64-7.78,2.68-10.37,17.48-6.03,25.7,3.99,7.55,21.47,7.94,22.05-3.97"/>
  <path class="cls-1" d="M1101.05,37.64h25.3c-3.63,11.8-17.76,15.34-33.19,16.35-15.63,1.05-32.3-1.48-41.09-7.94-5.1-3.77-9.4-12.03-5.34-19.62,5.54-10.36,20.58-12.5,35.05-14.25,5.99-.74,14.2.08,20.89,1.17,11.06,1.79,20.31,5.6,22.98,15.18h-24.6c-1.54-1.68-1.59-2.96-3.01-3.97-4.92-3.54-15.83-3.11-20.43-.93-6.89,3.27-8.55,14.75-1.63,18.68,5.91,3.35,22.87,3.55,25.07-4.67"/>
  <path class="cls-1" d="M1070.18,319.11v13.31h-29.72v10.05c7.43.55,15.87.08,23.68.24v13.08c-7.43.55-15.86.08-23.68.24v19.85h-21.35c-.39-18.37-.39-38.39,0-56.76h51.07Z"/>
  <path class="cls-1" d="M1035.13,13.35v39.71h-12.3c-4.02,0-8.7.86-12.3,0-2.17-.51-4.91-3.62-7.2-5.37-7.15-5.45-14.47-10.75-21.35-15.89.69,5.76,1.2,13.74.92,21.26h-25.3c.16-13.16-.31-26.94.23-39.71h12.07c3.98,0,8.47-.82,12.07,0,2.01.47,5.22,3.51,7.43,5.14,7.27,5.41,14.27,11.29,21.35,16.35-.97-6.5-1.04-13.9-.93-21.49h25.3Z"/>
  <path class="cls-1" d="M1008.67,343.88c2.44,27.83-26.54,39.52-50.14,30.83-7.47-2.76-13.23-7.63-16.25-14.48-3.17-7.28-3.87-17.45,0-25.7,4.18-8.95,13.97-15.45,27.39-16.58,12.26-1.01,21.86,1.6,29.02,7.47,4.68,3.85,9.28,10.66,9.98,18.45M983.36,359.99c6.77-7.2,4.14-24.8-4.41-27.8-1.66-.58-4.52-.58-6.03-.47-2.2.2-3.25.28-4.64.93-7.97,3.9-9.33,21.41-2.56,27.8,4.14,3.89,13.46,4.01,17.64-.47"/>
  <path class="cls-1" d="M944.83,43.71v9.34h-67.08V14.05l.23-.7h65.23v9.34h-39c-.54,1.32-.08,3.66-.23,5.37,10.68.55,22.36.08,33.42.23v9.11c-10.6.54-22.2.08-33.19.23-.54,1.56-.08,4.13-.23,6.07h40.85Z"/>
  <path class="cls-1" d="M903.05,375.18c-.62,1.28-3.4.7-5.11.7h-16.71c-2.21-4.79-.08-11.95-2.09-16.12-2.52-5.14-9.9-3.19-16.95-3.73-.54,6.15-.08,13.32-.23,19.85h-21.59c.16-18.84-.31-38.31.24-56.77,17.75,1.76,47.23-4.36,56.87,6.31,6.5,7.2,2.59,22.82-7.43,23.59,6.42,1.84,10.18,5.1,10.68,13.08.19,3.27-.82,7.47.23,10.28.5,1.28,2.01,1.36,2.09,2.81M880.53,339.9c2.67-8.25-10.1-7.9-18.34-7.47-.54,3.27-.08,7.55-.23,11.21,6.96-.47,16.91,1.48,18.57-3.74"/>
  <path class="cls-1" d="M863.12,50.25c.46,1.25,1.78,1.29,2.55,2.34-8.01,1.09-18.03.16-26.93.47-1.78-2.96-.38-7.47-1.62-10.28-2.44-5.49-14.23-2.72-21.59-3.5.16,4.44-.31,9.5.24,13.55-8.43.54-17.87.08-26.7.23.16-13.16-.31-26.94.23-39.71h40.39c12.07,0,28.98.27,32.5,7.71,3.91,8.22-5.69,12.58-12.3,13.32,5.34,1.36,9.86,1.48,12.07,5.37,1.86,3.27-.38,6.5,1.16,10.51M838.28,26.66c0-3-4.44-3.74-7.43-3.97-5.06-.35-10.45.28-15.09,0-.54,2.1-.08,5.22-.24,7.71,4.61-.24,9.79.31,14.86,0,3.06-.2,7.89-.63,7.89-3.74"/>
  <path class="cls-1" d="M830.86,362.56c-.16,4.36.31,9.34-.23,13.31-18.18-.16-36.99.32-54.78-.23v-55.83l.23-.7h53.39v13.32h-31.8c-.54,2.18-.08,5.37-.24,7.94h27.16v13.31h-27.16v8.88h33.43Z"/>
  <path class="cls-1" d="M756.11,13.35h25.54c-6.35,13.47-13.23,26.39-19.73,39.71h-26.23c-2.99-7.75-5.92-15.53-9.29-22.89-3.01,7.63-6.03,15.26-9.05,22.89h-26.23c-6.42-13.32-13.11-26.36-19.73-39.48,8.04-.55,17.1-.08,25.53-.24,2.9,8.14,6.03,16.04,8.82,24.29,3.75-7.59,6.54-16.16,9.75-24.29h22.05c3.17,8.1,6.31,16.24,9.52,24.29,3.32-7.79,6.11-16.12,9.05-24.29"/>
  <polygon class="cls-1" points="761.91 319.11 761.91 375.88 740.33 375.88 740.33 319.82 740.56 319.11 761.91 319.11"/>
  <path class="cls-1" d="M727.1,319.11v56.76h-21.36c-.54-6.85-.08-14.72-.23-21.96h-19.96c-.54,6.77-.08,14.56-.23,21.73-6.73.54-14.47.07-21.59.23v-56.06l.23-.7h21.36v18.92c6.27.55,13.54.08,20.2.24.16-6.31-.31-13.23.23-19.16h21.36Z"/>
  <path class="cls-1" d="M673.71,52.82c-8.21.55-17.41.08-26,.24-1.59-1.28-2.13-3.62-3.48-5.14h-25.99c-1.09,1.64-1.97,3.47-3.02,5.14h-25.3c-.54-.97.74-1.75,1.16-2.34,8.82-11.91,17.99-25.58,27.16-37.37h26.46c10.06,12.77,19.11,26.55,29.02,39.48M623.33,39.51h16.25c-2.87-4.59-5.11-9.81-8.59-13.78-2.36,4.79-5.22,9.07-7.66,13.78"/>
  <path class="cls-1" d="M654.67,319.11v14.95h-19.26c-.55,13.47-.08,27.96-.24,41.81-7.12-.16-14.86.31-21.59-.23v-41.35c-5.95-.55-12.92-.08-19.27-.24v-14.25l.24-.7h60.12Z"/>
  <path class="cls-1" d="M588.05,346.91c.16,16.24-10.06,25.27-22.06,28.74-23.91,6.89-48.9-5.57-46.89-31.07.78-9.81,4.91-15.77,10.68-20.09,4.49-3.39,11.06-5.88,19.27-6.54,12.46-.97,23.06,1.83,29.94,8.17,4.68,4.32,8.98,11.6,9.06,20.79M558.34,362.79c8-2.76,10.52-17.4,5.8-25.46-2.28-3.93-6.58-6.11-12.07-5.6-4.29.39-7.51,2.41-9.29,5.6-2.9,5.26-3.06,15.57.47,21.02,2.83,4.36,9.29,6.47,15.09,4.44"/>
  <path class="cls-1" d="M584.57,43.71c.55,2.65.08,6.31.24,9.34h-62.68V14.05l.24-.7h26.23v30.13c11.53.55,24.06.08,35.98.24"/>
  <path class="cls-1" d="M512.85,362.56v13.08c-16.64.55-34.28.08-51.3.23v-56.06l.23-.7h21.36v43.21c9.45.55,19.89.08,29.72.24"/>
  <path class="cls-1" d="M469.9,41.61v11.45h-23.91c.7-3.27-.23-8.18.47-11.45h23.44Z"/>
  <path class="cls-1" d="M431.13,353.92h20.89c-1.32,6.77-3.48,11.29-7.19,14.95-12.26,12.19-41.44,11.02-52.7-2.1-10.44-12.14-7.23-33.02,3.48-41.81,4.6-3.77,11.18-6.66,19.04-7.24,20.59-1.52,34.24,5.99,36.91,23.13h-20.66c-.54-10.82-16.29-11.91-21.12-4.44-5.22,8.06-2.94,23.24,4.41,26.16,7.19,2.84,16.71-.47,16.94-8.64"/>
  <path class="cls-1" d="M405.36,13.35h26.23c-1.24,11.83,2.86,26.43-3.02,33.17-8.58,9.85-43.4,10.51-55.24,2.33-3.79-2.64-5.92-6.46-5.35-13.08h23.68c.07,2.68.04,4.47.93,6.07,2.28,4.05,10.48,3.04,12.06,0,1.48-2.88.47-9.5.47-13.78v-14.01l.23-.7Z"/>
  <path class="cls-1" d="M350.35,357.42c.15,4.6-1.63,8.76-3.95,11.45-10.41,11.96-42.64,10.94-52.46-1.16-1.9-2.34-3.26-5.26-3.48-9.35h20.19c1.01,1.36,1.67,3.07,3.48,4.21,3.87,2.33,15.4,2.53,15.55-2.33.12-3.47-5.57-4.36-7.89-4.91-12.92-3.15-31.65-4.67-29.94-21.49,1.04-10.36,12.3-15.38,23.91-16.12,17.61-1.12,29.37,3.43,32.74,17.76-6.19.54-13.39.08-19.96.23-1.47-.89-.81-2.45-3.02-3.74-3.51-2.1-12.84-1.9-13,1.87-.19,4.59,11.95,5.88,15.78,6.78,10.53,2.41,21.71,5.14,22.06,16.81"/>
  <path class="cls-1" d="M317.39,82.02c.5,2.18-1.2,2.92-3.48,2.8-.54,3.27-3.75,4.95-5.8,7.01-14.93,15.03-29.86,31.07-45.27,46.02-17.72,17.17-34.93,34.96-51.99,52.56,3.32,5.06,7.97,9.03,12.3,13.08,4.34,4.05,8.36,8.64,12.54,12.85,8.43,8.48,16.87,16.97,25.31,25.46,8.39,8.45,16.52,17.41,25.3,25.46,4.37,4.01,8.9,8.1,12.99,12.38,4.11,4.28,8.59,8.18,12.08,13.08-35.95.97-77.61-.93-114.91.24-2.78.08-5.91.62-7.19,0-.73-.35-1.86-3.07-2.79-4.44-6.58-9.46-14.58-20.36-21.12-28.97-8.43-11.17-15.59-22.5-24.38-32.7-1.24,5.1-.69,10.75-.69,16.35,0,17.56.31,33.21-.47,48.12-35.94.58-67.04-.19-100.75-.47.74-42.75,0-92.46,0-137.35,0-13.78-.31-33.56,0-48.12.2-8.06-.23-9.77-.23-18.92,0-4.2-.89-6.11,2.09-6.31,8.05-.58,16.64.24,25.07.24,24.53,0,49.98,0,73.12.47.23,11.06.35,26.39.69,35.27.43,11.37.04,24.29.93,35.74,2.2-2.57,3.95-5.57,5.8-8.41,5.46-8.3,11.06-17.05,16.48-25.7,7.2-11.52,14.35-23.05,22.52-33.64.5-.89-.12-2.92.92-3.27,39.85-.66,81.94-.23,123.96-.23,3.25,0,6.57-.32,6.96,1.4"/>
  <path class="cls-1" d="M280.25,319.35v21.02c-3.17.55-7.35.08-10.91.24-.39-6.62-.39-14.87,0-21.49h10.68l.23.24Z"/>
  <path class="cls-1" d="M255.64,319.11c.39,18.37.39,38.39,0,56.76h-9.98c-3.06,0-7.12.86-9.75,0-1.9-.62-4.57-5.8-6.04-7.71-5.73-7.51-12.26-15.77-17.65-22.89.74,9.69.78,20.09.7,30.6h-20.66c.16-18.84-.31-38.31.24-56.76h9.74c3.1,0,7.04-.82,9.75,0,1.85.55,4.83,5.57,6.27,7.47,5.84,7.63,11.96,16.24,17.65,23.13-1.01-9.58-.66-20.24-.7-30.6h20.43Z"/>
  <path class="cls-1" d="M182.06,362.56c-.16,4.36.31,9.34-.24,13.31h-54.78v-56.06l.24-.7h53.39v13.32h-31.8c-.55,2.18-.08,5.37-.24,7.94h26.92c.54,3.97.08,8.95.24,13.31h-27.16v8.88h33.43Z"/>
  <path class="cls-1" d="M114.74,319.35v56.29c-6.04.55-13.08.08-19.5.24.04-12.5-.35-25.43,1.4-36.21-4.34,11.75-8.09,24.09-12.07,36.21h-15.09c-3.91-11.96-7.82-23.91-11.84-35.74,1.16,10.12,1.32,23.28,1.16,35.5-6.03.55-13.07.08-19.49.24.15-18.84-.31-38.31.23-56.77h25.99c3.67,11.8,7.66,23.28,11.38,35.04,4.06-11.49,7.82-23.28,11.61-35.04,8.66.16,17.95-.32,26.23.24"/>
  <path class="cls-1" d="M1132.4,81.32c.23,2.18-4.03,5.45-5.8,7.24-24.72,24.45-49.02,49.33-73.35,73.82-6.39,6.43-13.35,12.96-20.2,20.08-1.28,1.33-6.19,5.69-6.27,7.01-.12,1.87,3.6,5.02,5.57,7.01,22.83,22.97,45.84,46.4,69.18,68.91,7.43,7.16,14.9,14.29,22.28,21.72.89.86,2.59,1.68,2.32,3.27-1.7.51-4.33.23-5.57-.47-4.37,1.09-9.01.78-13.46.93-4.41.16-8.78-.12-13.22,0-27.51.66-54.56-.08-83.34.23-18.15-21.37-34.01-45.04-51.76-66.81-.86,23.95-.82,47.77,0,67.04-68.98.55-133.32.93-201.03.23-2.01-9.5-4.02-19-7.2-27.33-24.1-.78-49.02-.93-73.82-.47-3.17,8.64-5.49,18.14-7.43,28.03-66.81.04-123.26.43-192.67-.24-.77-12.85-.04-27.99-.7-41.58-17.14-.97-34.62-1.25-50.83-.47-.85,3.07-.7,6.31-.7,9.34-.04,5.22,0,13,0,21.72,0,3.85.66,8.02-.93,11.21-26.69.08-53.58.74-77.07,0-8.32-.27-16.75.93-24.6-.47-.27-34.97.7-74.32.7-109.32,0-19.74-.24-34.69-.24-51.86,0-9.26-.23-12.42-.23-22.66v-14.49c0-4.32-.85-8.37-.47-12.38,1.66-1.01,3.68-.31,5.57-.24,31.3.97,66.5-.16,97.26.93.58,16.2.31,29.43.47,39.95.15,8.84-.16,24.8-.24,32.7-.04,3.97-.04,7.28,0,11.91.08,6.97.16,20.83.47,30.6,15.28,1.16,33.42.9,50.38.47l.46-.23c1.28-23.01.66-58.05.7-74.28,0-5.61-.15-17.48-.46-27.57-.16-4.59-.47-9.34.69-14.01,35.52.08,68.98.62,103.76.47,1.55,6.27.58,13.86.69,21.03.12,5.99-.04,16.74,0,21.49.04,11.91-.19,27.4-.24,37.84-.04,6.5.08,14.56.24,21.02.2,7.32-.04,16.23-.24,22.19-.46,15.49.2,34.26.24,50.69,1.7-1.01,1.78-3.27,2.32-4.91,13.31-40.06,25.26-82.37,38.3-123.1,3.41-10.67,6.58-21.57,9.75-32.47.51-1.75,1.05-3.62,1.62-5.37.82-2.34,1.63-6.97,3.49-8.18,3.1-1.99,14.16-.62,19.27-.47,44.07,1.28,91.92-.82,136.26-.47,6.31,14.87,11.22,30.44,16.71,45.78,8.28,23.01,16.17,46.14,24.37,69.38,2.71,7.7,5.03,15.69,7.89,23.36,5.69,15.26,10.06,30.95,16.48,45.79,1.16-30.1.93-64.01.93-96.47,0-8.06.2-15.07.24-20.79.08-8.84.08-15.81,0-24.76-.08-12.3-.47-29.01-.24-41.81,34.01-.2,66-.62,99.35-.24,1.74,6.31.62,12.38.7,17.29.15,12.46,0,19.58,0,35.97,0,7.28-.31,15.03.46,21.02,2.87-2.17,4.57-5.6,6.5-8.64,12.89-20.32,25.65-40.8,39-61.44.89-1.4,2.01-4.43,2.78-4.9,1.94-1.21,10.6-.24,15.09-.24,26.42,0,49.78-.04,76.83-.47,10.22-.16,20.74.27,29.94-.47,1.47-.12,2.79.27,3.02,2.33M714.33,123.83h-.46l-.24-.24-.23.7c-4.11,14.64-8.05,29.24-11.84,43.92-3.83,14.8-8.24,29.39-11.14,44.85,14.78.7,33.08.94,46.89-.23-.85-7.59-3.37-14.84-5.35-22.19-5.99-22.39-11.25-44.89-17.64-66.81"/>
</svg>