<?xml version="1.0" encoding="UTF-8"?>
<svg id="Layer_1" data-name="Layer 1" xmlns="http://www.w3.org/2000/svg" version="1.1" viewBox="0 0 503 409">
  <defs>
    <style>
      .cls-1 {
        fill: #000;
        stroke-width: 0px;
      }
    </style>
  </defs>
  <path class="cls-1" d="M382.5,22.6H54.7c-15.2,0-30.4,12.1-30.4,27.3v30.4c0,6.1,3,12.1,6.1,15.2,6.1,6.1,18.2,18.2,39.5,36.4,42.5,30.4,151.8,118.4,182.1,118.4s139.6-88,182.1-118.4c21.2-18.2,33.4-27.3,39.5-36.4,0-3,3-9.1,3-15.2v-30.4c0-15.2-12.1-27.3-27.3-27.3,3,0-66.8,0-66.8,0Z"/>
  <path class="cls-1" d="M252,283.7s-27.3-3-51.6-18.2c-24.3-15.2-176.1-124.5-176.1-124.5v215.5s3,24.3,27.3,24.3h394.6c27.3,0,27.3-24.3,27.3-24.3v-218.6s-151.8,109.3-176.1,124.5c-15.2,18.2-45.5,21.2-45.5,21.2Z"/>
</svg>