<svg width="366" height="43" viewBox="0 0 366 43" fill="none" xmlns="http://www.w3.org/2000/svg">
<path fill-rule="evenodd" clip-rule="evenodd" d="M43.6532 17.3427L43.4195 17.4674L43.4729 17.7552C43.4849 17.8234 43.4909 17.8936 43.4909 17.9666C43.4909 19.3287 41.3673 21.8332 40.4871 22.6981C40.4871 22.6981 40.2747 22.9074 40.238 22.9866C40.1518 23.0713 22.1074 40.7798 22.1074 40.7798H35.4444L43.0128 32.9784C49.8432 25.936 45.121 18.7874 44.5594 17.9941C44.1494 17.415 43.9337 17.1974 43.6532 17.3427Z" fill="#0057BF"/>
<path fill-rule="evenodd" clip-rule="evenodd" d="M43.638 1.24364L43.2952 1.3354L43.3849 1.70043C43.4097 1.78482 43.4217 1.87324 43.4217 1.96901C43.4217 3.15989 41.6676 5.35344 40.4163 6.48269L4.9126 40.7804H18.2685L43.0877 16.4739C48.9244 10.4967 46.1098 4.47535 45.1109 2.77209C44.4635 1.66828 43.9701 1.15523 43.638 1.24364Z" fill="#0057BF"/>
<path fill-rule="evenodd" clip-rule="evenodd" d="M11.2286 0L3.66094 7.93176C-1.99428 13.5865 0.271547 19.3937 1.50867 21.627C1.83799 22.2221 2.65762 23.5949 3.1192 23.4731L3.45587 23.3828L3.37103 23.0244C3.34565 22.9273 3.33162 22.8165 3.33162 22.707C3.33162 21.2467 5.36232 18.8465 6.26077 18.0558L24.5638 0H11.2286Z" fill="#0057BF"/>
<path fill-rule="evenodd" clip-rule="evenodd" d="M28.3797 0L3.68306 24.9623C-2.05001 30.8435 0.299302 36.748 1.57525 39.0147C1.97374 39.7219 2.70832 40.8935 3.139 40.7738L3.47375 40.6823L3.39057 40.3266C3.36508 40.2214 3.34898 40.1113 3.34898 39.9992C3.34898 38.5153 5.52253 36.1571 6.42884 35.3164C6.43957 35.3061 6.95479 34.7798 6.96149 34.7702C6.96351 34.7674 41.7584 0 41.7584 0H28.3797Z" fill="#0057BF"/>
<path fill-rule="evenodd" clip-rule="evenodd" d="M66.4651 40.7804H74.1867C78.4325 20.4019 79.0948 17.5372 80.3104 9.93406H80.4167C81.742 17.5372 82.4577 21.3935 86.5417 40.7804H94.4819L105.623 1.23389H97.2407C92.1114 22.9883 91.4491 26.4055 90.7855 30.151H90.6772C89.7951 25.0269 89.4088 22.9343 84.7761 1.23389H76.0065C71.8142 22.0001 71.2087 26.0218 70.491 30.151H70.38C69.6629 25.6335 69.1664 22.8795 64.0933 1.23389H55.2676L66.4651 40.7804Z" fill="#0057BF"/>
<path fill-rule="evenodd" clip-rule="evenodd" d="M112.45 22.4112H124.586C124.143 17.665 121.064 16.2311 118.547 16.2311C114.855 16.2311 112.898 18.5481 112.45 22.4112ZM124.254 31.3998H132.306C130.237 38.4636 124.31 40.7792 119.218 40.7792C110.828 40.7792 104.396 36.8058 104.396 24.7257C104.396 21.1962 105.626 9.88354 118.657 9.88354C124.531 9.88354 132.644 12.6417 132.644 26.0507V27.4284H112.226C112.45 29.6357 112.898 34.5998 119.218 34.5998C121.4 34.5998 123.635 33.4988 124.254 31.3998Z" fill="#0057BF"/>
<path fill-rule="evenodd" clip-rule="evenodd" d="M160.01 19.5957C159.403 11.318 152.551 9.88477 146.805 9.88477C137.632 9.88477 134.925 15.4017 134.925 19.706C134.925 30.6864 153.16 26.9871 153.16 31.8997C153.16 33.0041 152.219 34.9339 148.243 34.9339C143.378 34.9339 141.834 33.1157 141.834 30.6296H133.873C134.094 38.4648 141.334 40.7805 148.021 40.7805C152.608 40.7805 160.893 39.2369 160.893 30.6864C160.893 19.8718 142.496 23.2363 142.496 18.5997C142.496 17.3316 143.048 15.7346 147.249 15.7346C151.446 15.7346 152.113 17.7187 152.441 19.5957H160.01Z" fill="#0057BF"/>
<path fill-rule="evenodd" clip-rule="evenodd" d="M175.544 2.47363H167.491V10.5618H163.349V16.1794H167.491V34.3254C167.491 38.2001 168.755 40.7843 175.714 40.7843H176.749C178.013 40.7843 179.279 40.7291 180.544 40.6699V34.7188C179.968 34.7746 179.394 34.8311 178.876 34.8311C175.599 34.8311 175.544 34.156 175.544 32.4157V16.1794H180.544V10.5618H175.544V2.47363Z" fill="#0057BF"/>
<path fill-rule="evenodd" clip-rule="evenodd" d="M233.355 1.23389H221.103L213.876 32.4085H213.76L206.421 1.23389H194.053V40.7804H201.961V7.72999H202.074L209.471 40.7804H217.77L225.335 7.72999H225.448V40.7804H233.355V1.23389Z" fill="#0057BF"/>
<path fill-rule="evenodd" clip-rule="evenodd" d="M255.759 29.4702V25.7168C254.965 26.3298 253.662 26.8224 250.372 27.3164C247.42 27.8151 244.981 28.533 244.981 31.733C244.981 34.4369 247.137 35.2658 248.67 35.2658C252.186 35.2658 255.759 33.0552 255.759 29.4702ZM263.529 18.3777V34.2724C263.529 37.7457 264.324 38.5178 265.288 38.85V40.0092H256.724C256.27 38.6268 256.155 38.1856 255.986 36.5318C254.172 38.354 251.619 40.7792 246.227 40.7792C241.693 40.7792 237.04 38.2966 237.04 32.2289C237.04 26.4902 240.783 23.565 245.834 22.8484L252.98 21.8009C254.227 21.6371 255.759 21.1385 255.759 19.484C255.759 16.2286 252.583 16.0621 250.542 16.0621C246.57 16.0621 245.893 18.4345 245.663 20.1445H238.008C238.914 11.1509 245.322 9.88354 251.506 9.88354C255.759 9.88354 263.529 11.151 263.529 18.3777Z" fill="#0057BF"/>
<path fill-rule="evenodd" clip-rule="evenodd" d="M268.973 40.7805H276.763V25.1064C276.763 21.7663 277.874 17.9189 283.94 17.9189C284.665 17.9189 285.498 17.9189 286.167 18.0313V9.99583C285.665 9.94235 285.164 9.88477 284.665 9.88477C279.935 9.88477 278.153 12.8279 276.541 15.8841H276.426V10.6752H268.973V40.7805Z" fill="#0057BF"/>
<mask id="mask0_1167_291" style="mask-type:luminance" maskUnits="userSpaceOnUse" x="0" y="0" width="366" height="43">
<path fill-rule="evenodd" clip-rule="evenodd" d="M0 42.0181H366V0H0V42.0181Z" fill="white"/>
</mask>
<g mask="url(#mask0_1167_291)">
<path fill-rule="evenodd" clip-rule="evenodd" d="M291.081 40.7839H298.45V11.124H291.081V40.7839Z" fill="#0057BF"/>
<path fill-rule="evenodd" clip-rule="evenodd" d="M291.081 7.41496H298.45V0H291.081V7.41496Z" fill="#0057BF"/>
<path fill-rule="evenodd" clip-rule="evenodd" d="M330.382 19.9571C330.382 13.3366 325.831 9.88477 319.989 9.88477C314.315 9.88477 312.071 13.2776 311.001 15.0916H310.889V10.6752H303.362V40.7805H311.227V23.5241C311.227 18.937 313.925 16.5601 317.405 16.5601C322.404 16.5601 322.519 20.2978 322.519 22.5012V40.7805H330.382V19.9571Z" fill="#0057BF"/>
<path fill-rule="evenodd" clip-rule="evenodd" d="M342.125 22.4112H354.264C353.814 17.665 350.737 16.2311 348.219 16.2311C344.528 16.2311 342.571 18.5481 342.125 22.4112ZM353.928 31.3998H361.982C359.911 38.4636 353.981 40.7792 348.89 40.7792C340.504 40.7792 334.067 36.8058 334.067 24.7257C334.067 21.1962 335.297 9.88354 348.333 9.88354C354.206 9.88354 362.316 12.6417 362.316 26.0507V27.4284H341.9C342.125 29.6357 342.571 34.5998 348.89 34.5998C351.075 34.5998 353.309 33.4988 353.928 31.3998Z" fill="#0057BF"/>
</g>
</svg>
