<?xml version="1.0" encoding="UTF-8"?>
<svg id="Layer_1" data-name="Layer 1" xmlns="http://www.w3.org/2000/svg" xmlns:xlink="http://www.w3.org/1999/xlink" version="1.1" viewBox="0 0 177.9 54.7">
  <defs>
    <style>
      .cls-1 {
        clip-path: url(#clippath);
      }

      .cls-2 {
        fill: none;
      }

      .cls-2, .cls-3, .cls-4, .cls-5 {
        stroke-width: 0px;
      }

      .cls-3 {
        fill: #ef2e31;
      }

      .cls-4 {
        fill: #fff;
      }

      .cls-5 {
        fill: #231f20;
      }
    </style>
    <clipPath id="clippath">
      <polygon class="cls-2" points=".2 0 .2 53.7 44.4 53.7 44.4 54.7 48.3 54.7 48.3 53.7 178.9 53.7 178.9 0 .2 0"/>
    </clipPath>
  </defs>
  <g class="cls-1">
    <g>
      <path class="cls-5" d="M177.9,52.9H0V0h177.9v52.9Z"/>
      <path class="cls-4" d="M22.1,29.4l-4-8.7-2.4,3.4v5.3h-6.6V6.4h6.6v9.5l6.4-9.5h6.3l-5.8,8.4,7.2,14.6s-7.7,0-7.7,0ZM38.5,29.4h-7.1V6.4h7.1v23h0ZM49,15.7v-4.4h2.8c.7,0,1.4,0,2,.3.7.4,1.1,1.1,1.1,1.9,0,2-1.8,2.2-3.4,2.2h-2.6ZM62.4,29.4l-4.2-10c2.7-1.2,4-3,4-6.1s-.9-4.3-2.8-5.5c-1.7-1.1-3.9-1.4-5.9-1.4h-11.7v23h7.1v-8.8h2.2l3.3,8.8h7.8ZM77.6,29.4l-3.9-8.7-2.4,3.4v5.3h-6.6V6.4h6.6v9.5l6.4-9.5h6.3l-5.8,8.4,7.2,14.6s-7.7,0-7.7,0ZM103.1,29.4h-16.1V6.4h7.1v17.3h9v5.6h0ZM141.4,29.4l-6.6-10.8-2-4.1h0c0,0,0,.3,0,.3.3,1.5.5,2.3.5,3.9v10.7h-5.7V6.4h6.7l7.7,12.8h0c0,0-.5-6.4-.5-6.4v-6.4h5.7v23h-5.8ZM157.1,24.1v-12.5h.8c1.6,0,2.7,0,3.8,1.3,1,1.3,1.4,3.3,1.4,4.8s-.3,3.1-1.1,4.4c-.4.6-.9,1.1-1.5,1.5-.9.5-1.5.4-2.4.4h-1ZM150.1,29.4h8.9c3.2,0,6-.7,8.3-3.1,2.1-2.2,3.2-5.3,3.2-8.3s-1.1-6.4-3.5-8.7c-2.5-2.4-5.1-2.8-8.4-2.8h-8.5v23h0ZM111.6,6.4h7.2l7.4,23h-7.4l-3.6-12.4-.7-2.3-.6,2.2-3.6,12.5h-5.8l7.1-23h0Z"/>
      <g>
        <path class="cls-3" d="M116.1,25.2c.5-1.8,8.8-5.8,8.8-5.8,0,0-12,1.1-12,4,0,0,3.2.2,3.2,1.7Z"/>
        <path class="cls-3" d="M36.8,32.1s0,0,0,0h0s0,0,0,0Z"/>
        <path class="cls-3" d="M157.7,44.5c-1.3,0-2.6,0-3.8,0-.6,0-1.3,0-1.9,0-3.3,0-6.3-.2-7.9-.6,1.4-.7,2.6-1.3,3.7-1.9,1.1-.6,1.9-1.2,2.4-1.5.1-.1.2-.2.3-.3.2-.4.4-.7.4-1.1,0-.2,0-.5-.2-.7-.1-.2-.3-.3-.5-.4-.3-.2-.7-.2-1.1-.2-.9,0-2.1.3-3.2.9-1.2.6-2.3,1.4-3.2,2.5-.5.7-.9,1.4-1,2.3-.9.4-1.8.7-2.7,1-1.6.5-3,.8-4.2.8s-.7,0-1,0c-.5-.1-.8-.3-.9-.4v-.2c-.1-.1,0-.3,0-.6.2-.3.4-.6.7-.9.5-.6,1.1-1.2,1.5-1.7.1-.1.2-.2.3-.4,0,0,.1-.2.1-.4s0-.3,0-.4c0-.1-.2-.2-.3-.3-.2-.1-.4-.1-.5-.1h-.1c-.1,0-.3,0-.4,0-1.1,0-2.4-.4-2.7-.5h0s-.4-.1-.4-.1l-.3.2s0,0-.3.2-.5.3-.8.6c-.7.5-1.7,1.1-2.8,1.7-2.2,1.3-5.1,2.5-7.3,2.6h-.2c-.4,0-.7,0-.9-.1-.2,0-.2-.1-.2-.1h0c0-.2,0-.5.2-.9.2-.3.4-.7.7-1,.5-.7,1.1-1.3,1.3-1.5h0c0,0-1-1.2-1-1.2,0,0-.2.2-.7.5-.4.3-1,.7-1.7,1.2-1.4,1-3.2,2.1-4.7,2.8-1,.5-1.9.8-2.4.8-.2,0-.2,0-.2,0h-.1c0-.2,0-.5.3-.8.2-.3.6-.7.9-1.1.6-.6,1.3-1.2,1.7-1.5.2-.1.3-.2.3-.2h0s0,0,0,0l-.8-1.2s0,0-.2.2c-.1,0-.4.2-.7.4-.6.4-1.4.9-2.5,1.4-2,1.1-4.8,2.3-7.7,3-.2,0-.4,0-.5,0s-.1,0-.2,0h0c0-.2,0-.5.2-.9.1-.4.3-.8.6-1.2.5-.9,1.2-2,1.9-3,.6-.9,1.3-1.8,1.9-2.6h14.1v-1.1h-13.4c.4-.5.8-.9,1-1.2,0,0,.1-.1.2-.2,0,0,0,0,0,0h0c0,0,.1-.1.1-.1l-1.1-1s-.4.3-.9.9c-.5.5-1.2,1.1-2,1.8h-10.9c0,0,0,1.1,0,1.1h9.7c-1.9,1.6-4.1,3.5-6.3,5.1-1.6,1.2-3.1,2.2-4.2,2.8-.6.3-1.1.5-1.3.4h0c-.2,0-.3-.1-.4-.2,0,0,0-.2,0-.5,0-.6.4-1.8.9-2.8.5-.9,1-1.7,1.3-2.1,0,0,.1,0,.2-.2,0,0,.1-.2.1-.4,0-.2-.1-.4-.2-.5l-.2-.2h-.2c0,0-.1,0-.1,0-.3,0-.6,0-1,0-1.7,0-3.6.4-5.7,1-2,.6-4.1,1.5-6,2.3-2.6,1.1-4.9,2.3-6,2.9,0-.1.2-.3.3-.4.5-.6,1.1-1.3,1.6-2,.3-.4.6-.9.9-1.3.1-.2.2-.5.2-.8s0-.5-.2-.7c-.2-.2-.4-.3-.6-.3-.3,0-.6,0-.9,0-1.1,0-2.3.4-3.6.9-.9.4-1.9.9-2.8,1.5,0-.2.2-.5.2-.8,0-.4-.1-.8-.4-1.1-.3-.3-.7-.5-1.1-.5h-.2s-.2,0-.2,0c-4.6,1.7-8.2,3.2-11.1,4.5l1.7-2.3c.5-.4,1-.9,1.3-1.4.2-.3.4-.6.4-.9l.7-.9h-1.1c-.7-.7-1.5-.9-2.3-.9-1.2,0-2.6.4-4,.9-1.4.5-3,1.3-4.4,2.1-2.9,1.5-5.8,3.3-7.3,3.9-.2,0-.3.1-.5.2,0,0,0,0,0,0,.1-.2.3-.4.6-.7.5-.5,1.1-1,1.7-1.5.4-.3.7-.6,1-.9.1-.2.3-.4.3-.8,0-.3-.2-.6-.4-.8-.2-.2-.4-.2-.7-.3-.2,0-.3,0-.5,0-.6,0-1.5.1-2.6.4-1.1.2-2.4.6-3.9,1-.4,0-.8.2-1.2.3.2-.4.3-.7.3-1.1s-.1-.8-.3-1.1-.5-.6-.8-.8c-.7-.4-1.5-.7-2.5-.9-1.9-.4-4.4-.5-7-.5s-5.9.2-8.2.3c1.6-.4,3.5-.9,5.5-1.3,4.4-1,9.2-2,12.4-2.6,1.9-.4,3.2-.6,3.5-.7l-.3-1.4s-4.3.8-9.3,1.9c-5.1,1.1-10.9,2.4-14.1,3.3-.9.3-1.6.5-2.1.8-.1,0-.2.1-.4.4,0,0,0,.2,0,.4,0,.2.1.5.2.6.1.1.2.2.3.2.2,0,.3,0,.4.1.3,0,.6,0,.9,0,2.2,0,6.8-.4,11.1-.4s3.3,0,4.7.2c1.4.1,2.6.4,3.4.7.5.2.8.5,1,.7,0,.1,0,.2,0,.3,0,.3-.1.7-.5,1.1-.2.3-.5.5-.9.8-2,.6-4,1.2-6.1,1.8-6.9,2.1-13.2,4.2-13.2,4.2h0s0,0,0,0v.7c.1,0,.3.7.3.7,0,0,0,0,0,0,.5,0,9.4-1.6,15.6-4,1.6-.6,2.9-1.3,4-2,2.8-.8,5.4-1.5,7.3-1.9.8-.2,1.5-.3,1.9-.3-.1.1-.3.2-.5.4-.6.5-1.5,1.2-2.1,1.9-.4.5-.8,1-.8,1.7v.3c0,.3.2.6.5.7.2.2.5.2.7.2.3,0,.7,0,1-.2.4-.1.8-.3,1.2-.5.9-.4,1.9-1,3-1.6,1.2-.7,2.5-1.4,3.8-2.1-.6.8-1,1.8-1.2,2.9v.7c-.1,0,.6.2.6.2.2,0,.4,0,.6,0,1.1,0,2.5-.5,4-1.1.3-.1.7-.3,1-.5l-1,1.3c-.2.1-.5.2-.7.4-3.3,1.8-5.2,3.1-6.3,4.3-.7.8-1,1.5-1,2.2,0,.5.2.9.4,1.2.2.3.5.5.8.7.5.3,1.1.5,1.1.5h.5c0,.1,6.4-8.3,6.4-8.3,3.1-1.6,7.4-3.4,13.3-5.6,0,0,0,0,.1,0h0c0,0,0,0,0,0h0c0,.1,0,.5-.3.9s-.6.8-1,1.2c-.8.8-1.7,1.6-2,1.9h-.1c0,.1.9,1.3.9,1.3h0s0,0,0,0c0,0,.1-.1.3-.3,0,0,.1-.1.2-.2.4-.3,1-.7,1.7-1.2,1.4-.9,3.2-2.1,4.9-2.8,1.1-.5,2.2-.8,3-.8-.1.2-.3.4-.5.7-.5.6-1.1,1.3-1.6,2-.3.5-.7.9-.9,1.3-.1.2-.2.5-.2.8s0,.3,0,.5c0,.1.2.3.3.4.3.2.6.2.8.2h.3s.1,0,.1,0h.1c0,0,0-.1.3-.2.2-.1.5-.2.8-.4.7-.4,1.7-.9,2.9-1.5,1.6-.8,3.6-1.6,5.6-2.4-.3.4-.6.7-.9,1.2-.4.7-.7,1.3-.9,1.8-.2.5-.3.9-.3,1.3s0,.6.3.9c.2.3.6.4.9.4.5,0,.9-.2,1.3-.4.5-.2.9-.5,1.5-.9,1.1-.7,2.2-1.7,3.4-2.6.3-.3.6-.5,1-.8,0,0,0,0,0,.1-.2.7-.4,1.3-.4,2s0,.9.4,1.3c.3.4.8.7,1.3.8.1,0,.2,0,.4,0,.6,0,1.3-.2,2-.6.7-.4,1.5-.8,2.4-1.4,1.7-1.2,3.7-2.7,5.5-4.3.4-.3.8-.7,1.2-1-.9,1.3-1.6,2.6-2,3.6-.2.5-.3,1-.3,1.5s0,.8.4,1.1c.3.3.8.4,1.2.4s.6,0,.9-.1c2.6-.6,5.1-1.6,7.1-2.6-.1.3-.2.6-.2,1,0,.3,0,.5.2.8.1.2.4.5.6.6.3.2.7.3,1,.3.9,0,1.9-.4,3-.9,1.1-.5,2.3-1.2,3.3-1.9.1,0,.2-.2.4-.2,0,.3-.1.5-.1.8s0,.5.2.8.3.5.6.6c.5.3,1.1.4,1.8.4h.2c2.7,0,5.6-1.5,8-2.8,1.8-1,3.2-2,3.8-2.4.4.1,1.2.3,2.1.4-.5.5-1.1,1.1-1.5,1.8-.3.5-.6,1-.6,1.6,0,.5.2,1,.6,1.3.4.3.9.6,1.6.7.4,0,.9.1,1.3.1,2,0,4.4-.7,6.7-1.7.3-.1.5-.2.8-.3.2.1.4.3.7.4.6.2,1.3.4,2.2.5,1.8.3,4.2.4,6.8.4s1.3,0,2,0c1.2,0,2.5,0,3.8,0,2.7,0,5.4,0,7.5,0s3.6,0,3.6,0v-1.5s-5.8-.2-11.1-.2ZM46.1,53c-.2-.1-.4-.3-.6-.4,0-.1-.1-.2-.1-.4s.1-.6.7-1.3c.5-.6,1.5-1.4,3.1-2.4.2-.1.4-.3.7-.4l-3.7,4.9ZM50.4,43.4c-.7.3-1.4.5-1.9.6.2-.8.6-1.4,1.1-1.9.6-.7,1.4-1.2,2.2-1.6,1.5-.7,3.3-.9,4.5-.9l-.6.8c-.2.2-.5.4-.7.5-1.3.9-3.1,1.9-4.5,2.4ZM89.1,40.7c-1.2,1.1-2.8,2.4-4.2,3.5-.9.7-1.8,1.3-2.5,1.7-.1,0-.2,0-.3.1,0-.1,0-.2.1-.4.2-.4.4-1,.8-1.7.8-1.5,2.6-2.4,4.4-3,.6-.2,1.2-.3,1.8-.4,0,0-.1.1-.2.2ZM144.7,41.2c.8-.8,1.9-1.3,2.9-1.6.6-.2,1.2-.3,1.6-.3,0,0,.1,0,.2,0h0c0,0,0,0,0,0h0s-.2.2-.2.2c-.2.1-.4.3-.7.5-.6.4-1.5.9-2.5,1.4-.7.4-1.5.8-2.3,1.2.3-.5.6-1,1.1-1.4Z"/>
        <path class="cls-3" d="M45.7,38.5c.2-.9,4.4-2.9,4.4-2.9,0,0-6,.6-6,2,0,0,1.6.1,1.6.9Z"/>
      </g>
    </g>
  </g>
</svg>