<?xml version="1.0" encoding="UTF-8"?>
<svg id="Layer_1" data-name="Layer 1" xmlns="http://www.w3.org/2000/svg" viewBox="0 0 814 1000">
  <defs>
    <style>
      .cls-1, .cls-2 {
        fill: #000;
        stroke-width: 0px;
      }

      .cls-2 {
        opacity: 0;
      }
    </style>
  </defs>
  <path class="cls-1" d="M691.48,331.23c-4.33,3.36-80.76,46.43-80.76,142.19,0,110.77,97.26,149.96,100.17,150.93-.45,2.39-15.45,53.67-51.28,105.92-31.95,45.98-65.31,91.89-116.07,91.89s-63.82-29.48-122.41-29.48-77.4,30.45-123.83,30.45-78.82-42.55-116.07-94.8c-43.14-61.36-78-156.68-78-247.14,0-145.11,94.35-222.06,187.2-222.06,49.34,0,90.47,32.4,121.44,32.4s75.46-34.34,131.6-34.34c21.27,0,97.71,1.94,148.02,74.05h0ZM516.81,195.75c23.21-27.54,39.64-65.76,39.64-103.98,0-5.3-.45-10.67-1.42-15-37.77,1.42-82.7,25.15-109.8,56.58-21.27,24.18-41.13,62.4-41.13,101.14,0,5.82.97,11.64,1.42,13.51,2.39.45,6.27.97,10.15.97,33.89,0,76.51-22.69,101.14-53.22h0Z"/>
  <rect class="cls-2" width="814" height="1000"/>
</svg>