<?xml version="1.0" encoding="UTF-8"?>
<svg id="Layer_1" data-name="Layer 1" xmlns="http://www.w3.org/2000/svg" xmlns:xlink="http://www.w3.org/1999/xlink" viewBox="0 0 48 48">
  <defs>
    <style>
      .cls-1 {
        fill: url(#linear-gradient);
      }

      .cls-1, .cls-2, .cls-3 {
        stroke-width: 0px;
      }

      .cls-2 {
        fill: #202026;
      }

      .cls-3 {
        fill: #fff;
      }
    </style>
    <linearGradient id="linear-gradient" x1="15.37" y1="9.8" x2="31.69" y2="17.51" gradientTransform="translate(0 50) scale(1 -1)" gradientUnits="userSpaceOnUse">
      <stop offset="0" stop-color="#d83333"/>
      <stop offset="1" stop-color="#f041ff"/>
    </linearGradient>
  </defs>
  <path class="cls-2" d="M10.4,0h27.2c5.7,0,10.4,4.7,10.4,10.4v27.2c0,5.7-4.7,10.4-10.4,10.4H10.4c-5.7,0-10.4-4.7-10.4-10.4V10.4C0,4.7,4.7,0,10.4,0Z"/>
  <g>
    <path class="cls-3" d="M18.82,38.16c-1.69-1.55-2.18-4.79-1.48-7.14,1.22,1.48,2.91,1.95,4.67,2.22,2.71.41,5.36.26,7.88-.98.29-.14.55-.33.87-.52.24.68.3,1.37.21,2.08-.2,1.71-1.05,3.03-2.41,4.04-.54.4-1.12.76-1.67,1.14-1.72,1.16-2.18,2.52-1.54,4.51.02.05.03.1.06.21-.88-.39-1.52-.97-2.01-1.72-.52-.79-.76-1.67-.77-2.62,0-.46,0-.93-.07-1.38-.15-1.11-.67-1.61-1.66-1.64-1.01-.03-1.81.59-2.02,1.58-.02.08-.04.15-.06.24h0Z"/>
    <g>
      <path class="cls-1" d="M18.82,38.16c-1.69-1.55-2.18-4.79-1.48-7.14,1.22,1.48,2.91,1.95,4.67,2.22,2.71.41,5.36.26,7.88-.98.29-.14.55-.33.87-.52.24.68.3,1.37.21,2.08-.2,1.71-1.05,3.03-2.41,4.04-.54.4-1.12.76-1.67,1.14-1.72,1.16-2.18,2.52-1.54,4.51.02.05.03.1.06.21-.88-.39-1.52-.97-2.01-1.72-.52-.79-.76-1.67-.77-2.62,0-.46,0-.93-.07-1.38-.15-1.11-.67-1.61-1.66-1.64-1.01-.03-1.81.59-2.02,1.58-.02.08-.04.15-.06.24h0Z"/>
      <path class="cls-3" d="M9.17,30.62s5-2.44,10.02-2.44l3.78-11.71c.14-.57.56-.95,1.02-.95s.88.38,1.02.95l3.78,11.71c5.94,0,10.02,2.44,10.02,2.44,0,0-8.5-23.16-8.52-23.21-.24-.68-.66-1.13-1.21-1.13h-10.2c-.56,0-.95.44-1.21,1.13-.02.05-8.52,23.21-8.52,23.21Z"/>
    </g>
  </g>
</svg>