<?xml version="1.0" encoding="UTF-8"?>
<svg id="horizontal_color" data-name="horizontal color" xmlns="http://www.w3.org/2000/svg" version="1.1" viewBox="0 0 1857.8 635.5">
  <defs>
    <style>
      .cls-1 {
        fill: #4a4f54;
      }

      .cls-1, .cls-2 {
        stroke-width: 0px;
      }

      .cls-2 {
        fill: #d22630;
      }
    </style>
  </defs>
  <path class="cls-1" d="M68.9,413.4l55.9-8.2c12.9-1.7,17.2-8.2,17.2-16.3,0-16.3-12.5-29.7-38.3-29.7s-41.7,17.2-43.4,37l-54.6-11.6c3.9-35.7,36.5-74.8,97.6-74.8s98.9,40.8,98.9,86.4v111.8c0,12,1.3,28.4,2.6,36.1h-56.3c-1.3-6-2.1-18.5-2.1-27.1-11.6,18.1-33.1,34-67.1,34-48.6,0-78.2-32.7-78.2-68.3s30.1-63.6,67.9-69.2ZM142,452.5v-10.3l-51.1,7.7c-15.9,2.1-28.4,11.2-28.4,28.8s9.9,26.2,29.7,26.2c25.8,0,49.9-12.5,49.9-52.4ZM292.4,430.2l-80.8-113.5h73.1c7.7,12.5,37.4,55,45.1,67.5l44.7-67.5h69.6l-79.5,111.3,82.5,116.1h-72.2l-47.3-69.6c-8.2,12.5-38.7,57.2-46.9,69.6h-69.2l80.8-113.9ZM657.8,316.7l49,146.6,42.1-146.6h61l-71.4,227.4h-61.5l-53.3-155.2-52.4,155.2h-62.3l-72.6-227.4h64.9l42.1,146.1,49.4-146.1h64.9ZM872.3,413.4l55.9-8.2c12.9-1.7,17.2-8.2,17.2-16.3,0-16.3-12.5-29.7-38.3-29.7s-41.7,17.2-43.4,37l-54.6-11.6c3.9-35.7,36.5-74.8,97.6-74.8s98.9,40.8,98.9,86.4v111.8c0,12,1.3,28.4,2.6,36.1h-56.3c-1.3-6-2.1-18.5-2.1-27.1-11.6,18.1-33.1,34-67.1,34-48.6,0-78.2-32.7-78.2-68.3s30.1-63.6,67.9-69.2ZM945.3,452.5v-10.3l-51.1,7.7c-15.9,2.1-28.4,11.2-28.4,28.8s9.9,26.2,29.7,26.2c25.8,0,49.9-12.5,49.9-52.4ZM1043.8,634.4l53.7-118.2-96.7-199h68.8l60.6,133.2,55.9-133.2h65.8l-142.7,317.2h-65.3Z"/>
  <path class="cls-2" d="M1804.5,206.7v116.1l-510.2-242.9V2.5l446.6,212.8v-116.1l116.9,55.9v77.4l-53.3-25.8ZM1408.7,289.2v77.4l81.7,38.7-131.5,139.3h87.3l156-163.3-193.4-92ZM1804.5,361.4l-449.2-213.6v77.4l357.6,170.2,91.6-34Z"/>
</svg>