<?xml version="1.0" encoding="UTF-8"?>
<svg id="Layer_1" data-name="Layer 1" xmlns="http://www.w3.org/2000/svg" viewBox="0 0 288 109.49">
  <defs>
    <style>
      .cls-1 {
        fill: #002d74;
      }

      .cls-1, .cls-2, .cls-3 {
        stroke-width: 0px;
      }

      .cls-2 {
        fill: #cd0e2c;
      }

      .cls-3 {
        fill: #fff;
      }
    </style>
  </defs>
  <g id="Layer_2" data-name="Layer 2">
    <g id="Layer_1-2" data-name="Layer 1-2">
      <path id="White_Bkg" data-name="White Bkg" class="cls-3" d="M236.79,0H51.21C22.93,0,0,22.94.01,51.22c0,28.27,22.93,51.19,51.2,51.2h26.59c3.16,4.43,8.27,7.07,13.72,7.07h105.75c3.63,0,7.16-1.17,10.06-3.34,2.69,1.94,6.44,1.33,8.38-1.36.51-.71.86-1.52,1.02-2.37h20.06c28.28,0,51.21-22.92,51.22-51.2C288.02,22.94,265.09,0,236.81,0c0,0-.01,0-.02,0Z"/>
      <path id="Blue_Oval" data-name="Blue Oval" class="cls-1" d="M236.79,5.82H51.21C26.24,5.45,5.7,25.39,5.33,50.35c-.37,24.97,19.57,45.51,44.53,45.88.45,0,.9,0,1.34,0h29.79c1.55,4.32,5.64,7.2,10.22,7.2h105.78c4.58,0,8.67-2.88,10.22-7.2h29.62c24.97.37,45.51-19.57,45.88-44.53.37-24.97-19.57-45.51-44.53-45.88-.45,0-.9,0-1.34,0h-.05ZM236.79,90.52h-29.17c-.98-5.1-5.43-8.8-10.62-8.82h-105.8c-5.21,0-9.69,3.7-10.67,8.82h-29.32c-21.82,0-39.5-17.68-39.5-39.5S29.39,11.52,51.21,11.52h185.58c21.82,0,39.5,17.68,39.5,39.5s-17.68,39.5-39.5,39.5h0Z"/>
      <g id="Register_Mark" data-name="Register Mark">
        <path class="cls-1" d="M210.89,104.23c-1.49.03-2.72-1.14-2.75-2.63,0-.06,0-.12,0-.17.03-1.52,1.28-2.73,2.8-2.7,1.52.03,2.73,1.28,2.7,2.8-.03,1.5-1.25,2.7-2.75,2.7ZM210.89,99.12c-1.28-.1-2.39.86-2.49,2.13-.1,1.28.86,2.39,2.13,2.49s2.39-.86,2.49-2.13c0-.06,0-.12,0-.18.08-1.2-.83-2.23-2.03-2.31-.04,0-.08,0-.11,0ZM210.34,103.03h-.51v-3.09h1.17c.74,0,1.13.26,1.13.89.03.44-.3.81-.74.84-.02,0-.05,0-.07,0l.87,1.36h-.58l-.8-1.32h-.48v1.32ZM210.91,101.28c.38,0,.72,0,.72-.49s-.37-.42-.68-.42h-.61v.91h.57Z"/>
      </g>
      <g id="BERRY_FARMS" data-name="BERRY FARMS">
        <path class="cls-3" d="M191.21,97c1.82,0,3.1-.94,3.1-2.62h0c0-1.48-1-2.09-2.68-2.54-1.46-.38-1.82-.56-1.82-1.11h0c0-.41.37-.73,1.08-.73.63.02,1.25.22,1.78.56.14.09.3.14.47.14.47,0,.86-.38.87-.85,0,0,0,0,0-.01,0-.3-.15-.58-.41-.74-.8-.5-1.73-.76-2.68-.75-1.73,0-3,1-3,2.55h0c0,1.68,1.1,2.15,2.8,2.58,1.41.37,1.7.61,1.7,1.08h0c0,.5-.46.8-1.22.8-.78,0-1.54-.28-2.16-.76-.39-.29-.93-.21-1.22.18-.29.39-.21.93.18,1.22.93.66,2.04,1.01,3.18,1"/>
        <path class="cls-3" d="M176.26,96.08c0,.5.39.9.89.91,0,0,0,0,.01,0,.5,0,.91-.4.92-.9,0,0,0,0,0-.01v-4.21l1.61,2.48c.16.28.45.46.77.47.32,0,.62-.19.78-.47l1.63-2.51v4.21c-.05.51.32.97.83,1.02.51.05.97-.32,1.02-.83,0-.06,0-.13,0-.19v-6.71c0-.51-.41-.93-.92-.94,0,0,0,0-.01,0h-.21c-.35-.01-.67.17-.83.48l-2.26,3.67-2.25-3.66c-.18-.3-.5-.49-.85-.49h-.2c-.51,0-.93.42-.93.93,0,0,0,0,0,.01v6.74Z"/>
        <path class="cls-3" d="M167.93,92.56v-2.43h1.85c.91,0,1.46.41,1.46,1.21h0c0,.71-.52,1.19-1.42,1.19l-1.89.03ZM166.07,96.05c0,.51.42.93.93.93s.93-.42.93-.93v-1.84h1.49l1.81,2.29c.21.3.55.49.92.49.47.01.87-.36.88-.84,0,0,0-.01,0-.02,0-.27-.12-.52-.3-.72l-1.29-1.57c1.07-.39,1.75-1.43,1.69-2.57h0c.03-.72-.24-1.41-.73-1.93-.67-.6-1.56-.91-2.46-.86h-2.94c-.51,0-.92.4-.93.91,0,0,0,.01,0,.02v6.64Z"/>
        <path class="cls-3" d="M157.78,93.37l1.22-2.79,1.17,2.79h-2.39ZM154.78,96.11c-.01.47.36.87.84.88,0,0,.01,0,.02,0,.38,0,.72-.23.86-.58l.59-1.39h3.72l.57,1.32c.14.38.5.64.9.65.48,0,.87-.38.88-.86,0-.14-.03-.28-.1-.41l-2.95-6.66c-.16-.45-.59-.74-1.07-.74h-.11c-.48,0-.92.29-1.09.74l-3,6.66c-.06.12-.1.25-.11.39"/>
        <path class="cls-3" d="M146.77,96.05c0,.51.42.93.93.93s.93-.42.93-.93v-2.41h3.27c.46,0,.84-.38.84-.84,0,0,0,0,0-.01,0-.46-.36-.83-.82-.84,0,0-.01,0-.02,0h-3.27v-1.8h3.81c.47,0,.85-.38.85-.85,0-.47-.38-.85-.85-.85h-4.74c-.51,0-.92.4-.93.91,0,0,0,.01,0,.02v6.67Z"/>
        <path class="cls-3" d="M135.59,96.05c0,.51.42.93.93.93s.93-.42.93-.93v-2.44l2.73-3.68c.15-.18.24-.41.25-.65.02-.48-.35-.89-.83-.91-.03,0-.05,0-.08,0-.37.02-.71.22-.89.55l-2.1,3-2.05-3c-.18-.34-.53-.56-.92-.57-.5-.01-.92.39-.93.89,0,0,0,0,0,.01,0,.24.08.47.23.66l2.73,3.71v2.43Z"/>
        <path class="cls-3" d="M125.24,92.56v-2.43h1.84c.91,0,1.47.41,1.47,1.21h0c0,.71-.52,1.19-1.43,1.19l-1.88.03ZM123.37,96.05c-.05.52.32.98.84,1.03s.98-.32,1.03-.84c0-.06,0-.13,0-.19v-1.84h1.48l1.81,2.29c.21.3.55.49.92.49.48.01.88-.37.89-.85,0,0,0,0,0-.01-.01-.27-.12-.53-.31-.72l-1.29-1.57c1.07-.39,1.76-1.43,1.69-2.57h0c.03-.71-.23-1.41-.72-1.93-.68-.6-1.57-.91-2.47-.86h-2.93c-.51,0-.93.41-.94.92,0,0,0,0,0,.01v6.64Z"/>
        <path class="cls-3" d="M115.05,92.56v-2.43h1.85c.9,0,1.46.41,1.46,1.21h0c0,.71-.52,1.19-1.43,1.19l-1.88.03ZM113.19,96.05c0,.51.42.93.93.93s.93-.42.93-.93v-1.84h1.48l1.82,2.29c.2.31.55.49.92.49.48,0,.87-.38.88-.86h0c0-.27-.12-.52-.3-.72l-1.3-1.57c1.07-.39,1.76-1.43,1.69-2.57h0c.03-.71-.23-1.41-.72-1.93-.68-.6-1.57-.91-2.47-.86h-2.93c-.51,0-.92.4-.93.91,0,0,0,.01,0,.02v6.64Z"/>
        <path class="cls-3" d="M104.57,96.91h4.75c.45,0,.82-.36.83-.81,0,0,0,0,0-.01,0-.46-.37-.83-.83-.83h-3.83v-1.78h3.23c.45,0,.82-.37.83-.82,0-.46-.37-.83-.83-.83h-3.23v-1.72h3.77c.45,0,.82-.36.83-.81,0,0,0,0,0-.01,0-.46-.37-.83-.83-.84h-4.69c-.51,0-.92.4-.93.91,0,0,0,.01,0,.02v6.62c0,.51.4.92.91.93,0,0,.01,0,.02,0"/>
        <path class="cls-3" d="M95.28,95.28v-1.86h2.15c.95,0,1.38.35,1.38.92h0c0,.63-.5.92-1.32.92l-2.21.02ZM95.28,91.87v-1.79h1.83c.79,0,1.22.32,1.22.87h0c0,.63-.52.89-1.34.89l-1.71.03ZM93.46,96c0,.51.42.93.93.93h3.1c1.91,0,3.16-.77,3.16-2.32h0c.04-.98-.62-1.85-1.58-2.08.69-.34,1.12-1.06,1.11-1.83h0c.02-.54-.19-1.06-.58-1.44-.61-.53-1.4-.8-2.21-.75h-3c-.51,0-.93.42-.93.93h0v6.56Z"/>
      </g>
      <g id="GIANT">
        <path class="cls-2" d="M53.24,80c-9.09,0-14.71-2.38-18.79-8-3.91-5.28-4.34-13.7-4.34-17.08,0-17.22,7.66-25.59,23.41-25.59,2.24,0,5.83.38,9,.7l1.39.15c1.43.15,2.86.22,4.29.21,2.73-.01,5.44-.3,8.11-.87.14,6.46.28,10.71.68,16.79l-.3.29-4.54,1.79c-.12.06-.25.1-.38.11-.44,0-.65-.71-.69-.85-1.72-6.32-2-7.22-3-8.7-1.67-2.4-5.06-2.59-6.06-2.59-10.53.03-12.74,10.64-12.74,19.58,0,2.92,0,11.81,4.65,15.61,1.61,1.18,3.58,1.77,5.58,1.68.82.04,1.64-.06,2.43-.31l.37-.11v-.39c.14-1.74.22-5.36.22-7.31,0-5-.15-5.59-4.58-6.28-1.32-.2-1.34-.21-1.28-5l.37-.31c4.51.49,9.05.74,13.59.75,3.91,0,8.92-.19,12.87-.48l.15.18v.53c0,.87-.14,3.53-.5,3.94-.32.22-.66.43-1,.61-1.22.67-1.77,1-2,1.37-.46,1.1-1,15.38-1,18.7l-.1.07c-2.52-.46-5.08-.69-7.64-.68-3.12,0-3.71.07-10.82.93l-1.09.13c-2.08.26-4.18.4-6.28.42"/>
        <path class="cls-1" d="M53.52,28.79c-17.52,0-23.98,10.21-23.98,26.21,0,3.46.42,12,4.44,17.42,3.67,5,9,8.18,19.26,8.18,2.12-.02,4.24-.16,6.34-.42,8.19-1,8.61-1.06,11.85-1.06,2.6,0,5.2.24,7.76.71l.56-.35c-.14-3,.57-17.92.92-18.76.21-.43,2.54-1.48,2.89-1.84.64-.63.64-3.95.71-5.07l-.5-.57c-3.73.28-8.88.49-13.11.49-4.6,0-9.19-.27-13.76-.77l-.77.63q-.07,5.57,1.76,5.86c4.11.55,4.11.86,4.11,5.66,0,1.83-.07,5.5-.21,7.26-.73.23-1.5.33-2.26.29-1.87.09-3.71-.46-5.23-1.56-4.24-3.45-4.45-11.56-4.45-15.16,0-4.72.28-19,12.2-19,1.77,0,4.3.49,5.57,2.33.92,1.41,1.2,2.32,2.9,8.53.16.62.55,1.28,1.24,1.28.21,0,.41-.06.59-.15l4.65-1.8.57-.57c-.43-6.42-.57-10.86-.71-17.35l-.42-.28c-2.71.6-5.48.91-8.25.92-1.4,0-2.8-.07-4.19-.21-3.46-.36-7.83-.85-10.44-.85M53.56,29.94c2.21,0,5.78.37,8.93.7l1.36.14c1.46.15,2.92.22,4.38.22,2.53-.02,5.06-.26,7.55-.74.13,6,.28,10.13.65,15.86h0l-4.43,1.75h0c-.09-.12-.15-.26-.19-.41-1.68-6.19-2-7.26-3.05-8.89-1.81-2.62-5.45-2.82-6.52-2.82-11,0-13.35,10.94-13.35,20.12,0,3,0,12.08,4.87,16.06,1.72,1.26,3.81,1.9,5.94,1.81.88.03,1.75-.08,2.59-.33l.75-.23.07-.78c.14-1.76.21-5.4.21-7.36,0-5.1-.15-6.09-5.06-6.85-.24,0-.53-.08-.67-.12-.17-1.33-.21-2.67-.13-4,3.62.44,9.64.71,13.39.71s8.55-.17,12.43-.44v.08c-.07,1.21-.26,2.41-.57,3.58-.18.12-.6.34-.88.5-1.38.76-1.93,1.09-2.19,1.61h0c-.47,1.14-1,14.16-1,18.3-2.36-.41-4.76-.61-7.16-.6-3.16,0-3.74.07-10.89.94l-1.14.25c-2.06.25-4.13.39-6.21.41-8.89,0-14.37-2.3-18.33-7.71-3.81-5.15-4.22-13.43-4.22-16.7,0-8.06,1.74-14.23,5.16-18.32,3.77-4.5,9.55-6.69,17.67-6.69"/>
        <path class="cls-2" d="M84.77,73.88v-3.18c0-.62,0-.63,1.53-1,2.26-.49,2.83-1,2.9-2.44.23-3.53.39-20,.39-21.21,0-4.32,0-4.77-.94-5.32-.72-.3-1.46-.54-2.22-.73-.57-.17-1.22-.36-1.4-.44-.07-.09-.12-.18-.15-.29l.1-3h0c1.78.16,4.28.36,10.19.36,4.52,0,9.19,0,13.41-.36h0v3.13c-.51.23-1.04.43-1.58.6l-.46.14c-1.43.45-1.78,1-1.89,4.85-.06,2.17-.14,4.34-.22,6.51-.19,5-.38,10.12-.38,15.18,0,1.8.14,2.85,3.08,3.52,1.35.31,1.35.59,1.35.75l-.2,3.14h0c-3.86-.31-7.75-.36-11.38-.36-4,0-7.52.17-10.07.29l-1.78.09-.28-.23Z"/>
        <path class="cls-1" d="M108.83,35.68c-4.27.38-9.09.38-13.63.38-3.47.05-6.94-.08-10.4-.38l-.38.38-.11,3.23c.04.33.22.63.49.82.49.22,3.06.88,3.56,1.15.65.38.65.77.65,4.82,0,1.2-.16,17.67-.38,21.18,0,1-.22,1.42-2.46,1.91-1.92.44-1.92.66-2,1.53v3.45l.65.55c2.69-.11,6.9-.38,12.05-.38,3.88,0,7.77.05,11.6.38l.38-.38.22-3.4c0-.6-.38-1-1.81-1.31-2.62-.6-2.62-1.37-2.62-3,0-7.22.38-14.44.6-21.67.11-3.89.44-4,1.48-4.32,2-.6,2.46-.71,2.46-1.15v-3.41l-.35-.38ZM108.06,36.89v2.11l-1.19.38-.47.14c-1.89.6-2.17,1.63-2.28,5.39-.07,2.17-.15,4.33-.23,6.5-.18,5-.37,10.13-.37,15.2,0,2,.24,3.33,3.51,4.08.31.06.62.16.91.29l-.16,2.47c-3.7-.28-7.41-.32-10.88-.32-4.05,0-7.55.17-10.11.29l-1.44.07v-2.9c.33-.12.66-.22,1-.3,2.25-.49,3.27-1,3.37-3,.22-3.54.38-20.07.38-21.25,0-4.42,0-5.1-1.24-5.83-.76-.32-1.53-.58-2.33-.78l-1.13-.34.08-2.23c1.76.15,4.33.31,9.66.31,4.32,0,8.77,0,12.86-.32"/>
        <path class="cls-2" d="M129.44,45.72c-.69,0-.89.54-1.1,1.11l-.09.24-3.53,11.35h8.89l-.16-.71c-1.3-5.58-2.21-9.07-2.76-10.67-.3-1.09-.85-1.32-1.25-1.32M124.77,74c-2.3-.13-5.17-.29-7.32-.29-1.97-.01-3.94.11-5.89.36h0v-2.33c-.03-.27.03-.54.16-.77,3.27-.92,3.64-1.52,4.43-3.44l.07-.16c1.52-3.74,2.91-7.85,3.3-9l4.65-15.12c.12-.3.18-.61.19-.93,0-1.3-.9-1.39-3.31-1.61s-2.56-.3-2.67-.77l-.73-3.63h.42c1.78.12,5.1.34,10.55.34,6.7,0,11-.22,13.35-.34h.2c.42,3.74.9,5.67,7.57,30.14.81,2.91,1,3.25,3.7,3.91h.11q1.06.24,1.09.81l.15,2.93c-3.65-.24-7.39-.36-10.85-.36-4.44,0-8.48.12-12.33.37l.1-3q0-.32.85-.57c2.11-.7,2.82-.93,2.82-2.68-.15-1.62-.39-3.23-.72-4.82l-.09-.44h-.45c-2.48-.11-2.73-.11-5.12-.11-2,0-2.31,0-5.06.11h-.38l-.13.36c-.66,1.6-1.08,3.28-1.24,5,0,1.19.5,2,3.14,2.8.31.07.61.17.91.28v.15l.1,3-1.57-.19"/>
        <path class="cls-1" d="M125.5,57.84l3.28-10.56c.28-.71.33-1,.66-1s.6.55.71.93c.6,1.76,1.59,5.7,2.74,10.62h-7.39ZM142.68,35.68c-2.18.11-6.62.38-14.06.38-6.08,0-9.41-.27-11.11-.38l-.51.32.82,4.05c.22.93.71,1,3.18,1.2s2.79.27,2.79,1c-.02.26-.07.52-.17.77l-4.65,15.1c-.55,1.64-1.86,5.47-3.28,9-.77,1.86-.88,2.35-4.16,3.28-.38.11-.55.71-.55,1.31v2.58l.44.38c2.01-.26,4.04-.39,6.07-.38,2.8,0,6.9.27,9.14.38l.33-.33-.11-3.23c0-.6-.11-.66-1.31-1-2.52-.77-2.74-1.43-2.74-2.25.18-1.62.58-3.2,1.2-4.71,2.73-.11,3-.11,5-.11,2.41,0,2.63,0,5.09.11.33,1.55.56,3.13.71,4.71,0,1.31-.27,1.42-2.4,2.13-.93.28-1.21.39-1.26,1.1l-.14,3.28.33.33c4.16-.27,8.37-.38,12.58-.38,3.29,0,7.12.11,11.22.38l.22-.33-.16-3.23c-.06-1-.44-1.09-1.64-1.37-2.47-.6-2.52-.76-3.29-3.5-7-25.72-7.17-26.54-7.61-30.59M123.94,59h10.4l-.34-1.42c-1.3-5.57-2.21-9.07-2.76-10.7s-1.32-1.74-1.81-1.74c-1.08,0-1.42.9-1.64,1.49l-.09.24h0l-3.3,10.63-.46,1.5ZM141.66,36.89c.43,3.48,1.17,6.36,7.52,29.7.87,3.1,1.19,3.59,4.14,4.32h.11l.63.15v.13l.12,2.29c-3.46-.21-7-.32-10.25-.32-4.21,0-8.06.1-11.73.32l.07-2.26.44-.13h0c2.13-.71,3.19-1.06,3.19-3.22-.15-1.66-.39-3.3-.73-4.93l-.17-.94h-.9c-2.49-.11-2.74-.11-5.14-.11-2,0-2.32,0-5.08.11h-.76l-.27.72c-.68,1.65-1.11,3.39-1.28,5.16,0,1.65,1,2.56,3.59,3.36l.47.13.07,2.1h-.92c-2.31-.12-5.19-.28-7.37-.28-1.79,0-3.58.09-5.36.28v-1.73c0-.1,0-.19,0-.29,3.09-.91,3.67-1.59,4.53-3.7l.07-.17c1.53-3.75,2.92-7.87,3.32-9.07l4.64-15.07c.14-.36.22-.75.23-1.14,0-1.83-1.45-2-3.84-2.19-.72-.04-1.44-.13-2.15-.27h0l-.6-2.95c1.85.13,5.12.33,10.31.33,6.4,0,10.64-.2,13-.33"/>
        <path class="cls-2" d="M174.67,74.11c-2.37-.17-7.41-.37-9.43-.37-1.83,0-5.7.16-8,.36h0v-3.18c0-.14,0-.27,1-.54,3.34-.82,3.38-1.47,3.7-6.59.12-1.36.5-9.77.5-15.52,0-6.53,0-7.06-3.81-8.17-1.28-.41-1.28-.46-1.28-.76l.1-3.09h0c2.66.2,7.13.36,9.2.36,1.26,0,5.29-.09,9.28-.36l11.48,17.85c.65,1,1,1.36,1.52,1.36,1.17,0,1.23-1.38,1.29-2.85.11-2.45.16-4.45.16-8,0-3.08-.35-3.29-3.58-4.27-.76-.15-1.5-.39-2.2-.71l.14-3.4c1.9.15,6,.36,8.63.36,2.38.01,4.76-.11,7.13-.35l-.05,2.56c0,.89,0,.91-2.71,2l-.15.06c-1.54.63-1.61,3.18-1.67,5.24l-.81,27.9c-1.6-.17-3.2-.25-4.81-.24-1.77-.01-3.53.08-5.29.28l-2.33-3.58-11.68-16.83-.17-.24c-.52-.71-.81-1.1-1.39-1.1-1.07,0-1.07,1.11-1.07,2l-.06,10.29c0,4.47.22,4.78,3.92,5.49l.51.09c1,.14,2,.33,2,.88v3l-.07.07Z"/>
        <path class="cls-1" d="M176.24,35.62c-3.89.28-8.1.39-9.58.39-2,0-6.73-.17-9.41-.39l-.39.39-.11,3.33c0,.66.17.82,1.7,1.32q3.39,1,3.39,7.61c0,5.85-.38,14.22-.49,15.48-.33,5.15-.38,5.37-3.28,6.08-1,.27-1.37.49-1.43,1.09v3.4l.39.38c2.3-.22,6.4-.38,8.21-.38,2.13,0,7.49.22,9.63.38l.44-.38-.06-3.32c0-1.31-2.19-1.37-2.95-1.53-3.4-.66-3.45-.71-3.45-4.93l.05-10.28c0-.88,0-1.43.5-1.43.32,0,.49.28,1.09,1.1l11.71,16.88,2.52,3.89c1.85-.23,3.71-.34,5.58-.33,1.8-.01,3.59.1,5.37.33l.82-28.46c0-1.81.11-4.32,1.31-4.82,2.85-1.15,3.18-1.26,3.23-2.57l.05-2.9-.38-.27c-2.43.26-4.88.39-7.33.38-2.68,0-7-.22-8.81-.38l-.39.27-.11,3.72c-.01.16.05.33.17.44.77.37,1.58.64,2.41.82,3.06.93,3.17,1,3.17,3.72,0,3.45-.05,5.42-.16,7.94-.06,1.31-.11,2.3-.72,2.3-.21,0-.38-.11-1-1.1l-11.69-18.17ZM175.64,36.82l11.3,17.61c.6.9,1.07,1.61,2,1.61,1.72,0,1.8-2,1.87-3.4.1-2.47.16-4.48.16-8s-.55-3.78-4-4.83c-.91-.24-1.42-.41-1.71-.51l.08-2.42c2.09.15,5.64.32,8.07.32,1.4,0,4,0,6.55-.29v1.88c.03.14.03.28,0,.42-.72.45-1.5.81-2.31,1.08l-.15.06c-1.88.77-2,3.53-2,5.75v.1l-.79,27.2c-1.41-.14-2.83-.2-4.25-.19-1.67,0-3.34.08-5,.25l-2.15-3.31-11.89-16.87-.17-.23c-.54-.75-1-1.34-1.85-1.34-1.65,0-1.65,1.74-1.65,2.57l-.05,10.29c0,4.89.55,5.32,4.36,6.05.18.05.37.08.56.1.51.04,1.01.17,1.48.37v2.41c-2.54-.16-7-.33-8.9-.33-1.69,0-5.11.13-7.45.31v-2.35c.18-.07.36-.13.55-.18,3.76-.93,3.83-2,4.16-7.1.12-1.38.49-9.82.49-15.58,0-6.64,0-7.49-4.19-8.71-.3-.09-.6-.2-.89-.32l.08-2.41c2.7.18,6.73.33,8.67.33,1.23,0,5.09-.09,9-.34"/>
        <path class="cls-2" d="M210.47,79.17v-4c0-.89.65-1.12,3.4-1.72,1.74-.34,3.43-.87,5.06-1.57.93-.75,1-2.76,1-3.16.08-3.43.11-5,.16-7.21l.11-5.19c0-9.64,0-15.39-.07-17.09v-.51h-.5c-2.6-.29-4.44-.42-5.06-.42s-1.86,0-2.55,2l-3.05,9.16c-.19.42-.23.52-.61.59l-5.15.86-.17-.13c.58-5.62,1.09-12.37,1.49-19.57l.1-.12c7.54.47,15.22.68,24.86.68,6.07,0,14.41-.08,25.16-.68l.14.14.14,7.74c.03,4.02.26,8.03.69,12.03l-.12.12-5,.21c-.34,0-.38,0-.82-1.41l-.46-1.48c-1.21-3.91-2.55-8.19-3.3-9.4-.25-.5-.76-.82-1.32-.83-.32,0-3.71.44-4.69.64l-.44.08v.44c-.52,8.29-.84,17.5-.84,24q0,6.89.44,7.59c.44.7,1.23,1.1,2.84,1.5h.13c4.41,1.11,5.24,1.57,5.4,1.72s.21.29.21.47l-.5,4.35-.22.31c-7.29-.34-12.39-.54-16.78-.54-6.41,0-11.81.23-16.58.42l-3,.13-.1-.15Z"/>
        <path class="cls-1" d="M254.85,30.43c-11,.63-19.57.7-25.39.7-9.64,0-17.41-.21-25.11-.7l-.42.49c-.28,5.06-.76,12.69-1.52,20l.62.49,5.41-.9c.69-.14.83-.49,1-1l3.05-9.16c.56-1.6,1.46-1.6,2-1.6s2.5.14,5,.42c.07,2.57.07,13.74.07,17.07-.14,6.24-.14,6.93-.28,12.41,0,.35-.07,2.15-.76,2.71-1.55.64-3.15,1.12-4.79,1.45-2.57.56-3.88.84-3.88,2.29v4.3l.48.49c5.41-.21,11.86-.55,19.77-.55,4.51,0,9.71.2,17.07.55l.48-.69.49-4.44c0-.32-.12-.62-.35-.84-.49-.62-4.72-1.66-5.83-1.94-1.66-.41-2.15-.76-2.49-1.25s-.35-.69-.35-7.28c0-6,.28-15.05.83-24,1-.21,4.37-.63,4.58-.63s.49.07.83.56c.9,1.46,2.92,8.25,3.61,10.47.52,1.62.61,2.09,1.47,2.09h.19l5.07-.21.48-.49c-.47-4.1-.72-8.22-.76-12.35l-.14-8-.43-.46ZM254.19,31.62l.13,7.3c.06,2.62.19,7.86.67,11.69l-4.38.18h-.06c-.09-.21-.22-.61-.35-1l-.08-.27c-.1-.31-.22-.71-.37-1.17-1.27-4.14-2.57-8.29-3.36-9.56h0c-.38-.62-1.05-1-1.77-1-.38,0-3.84.45-4.8.64l-.87.17-.06.89c-.51,8.3-.83,17.52-.83,24.07q0,7.06.52,7.89h0c.58.82,1.41,1.26,3.15,1.7h.13c3.93,1,4.9,1.43,5.13,1.58v.05l-.43,3.95c-7.11-.33-12.12-.52-16.45-.52-6.43,0-11.84.22-16.61.42l-2.49.1v-3.56c0-.44.46-.62,3-1.16.87-.18,4.53-1.1,5.27-1.69,1.1-.88,1.19-3,1.19-3.57.09-3.45.12-5,.17-7.23,0-1.32.06-2.87.11-5.21,0-9.63,0-15.39-.07-17.1v-1l-1-.11c-2.29-.25-4.34-.42-5.13-.42-.62,0-2.27,0-3.1,2.38l-3,9.11c0,.08-.08.18-.11.23h-.05l-4.61.77c.54-5.39,1-11.77,1.4-18.55,7.4.45,15,.65,24.42.65,6,0,14.19-.08,24.73-.66"/>
      </g>
      <g id="CALIFORNIA">
        <path class="cls-1" d="M191.16,25.56l1.2-2.87,1.2,2.87h-2.4ZM188.09,28.37c-.01.48.37.88.85.89.01,0,.02,0,.03,0,.38-.01.72-.24.88-.59l.6-1.43h3.82l.58,1.37c.14.39.51.64.92.65.5,0,.9-.4.9-.9,0,0,0-.01,0-.02,0-.13-.04-.26-.09-.38l-3-6.83c-.17-.46-.61-.76-1.1-.75h-.11c-.49,0-.94.29-1.12.75l-3,6.83c-.07.13-.11.27-.11.41"/>
        <path class="cls-1" d="M181.5,28.31c.16.53.72.82,1.25.66.31-.1.56-.34.66-.66v-6.92c-.16-.53-.72-.82-1.25-.66-.31.1-.56.34-.66.66v6.92Z"/>
        <path class="cls-1" d="M168.27,28.32c0,.52.42.94.94.94s.94-.42.94-.94v-4.65l3.82,5c.22.35.59.56,1,.56h.03c.55,0,1-.45,1-1v-6.9c-.05-.52-.52-.9-1.04-.85-.45.05-.8.4-.85.85v4.47l-3.7-4.8c-.22-.35-.59-.56-1-.56h-.2c-.53.03-.95.47-.95,1v6.88Z"/>
        <path class="cls-1" d="M158.27,24.73v-2.49h1.89c.93,0,1.5.42,1.5,1.23h0c0,.73-.53,1.23-1.46,1.23l-1.93.03ZM156.36,28.31c.16.53.72.82,1.25.66.31-.1.56-.34.66-.66v-1.9h1.52l1.86,2.36c.21.31.57.49.94.49.49.01.9-.38.91-.87,0,0,0,0,0-.01-.01-.27-.12-.53-.31-.73l-1.33-1.65c1.1-.4,1.81-1.47,1.74-2.64h0c.03-.74-.24-1.46-.75-2-.69-.62-1.6-.94-2.52-.88h-3c-.53.03-.95.47-.95,1l-.02,6.83Z"/>
        <path class="cls-1" d="M147.37,27.58c-1.46-.01-2.63-1.2-2.62-2.66,0-.02,0-.05,0-.07h0c-.06-1.43,1.05-2.65,2.49-2.71.04,0,.07,0,.11,0,1.46,0,2.64,1.17,2.65,2.63,0,.03,0,.05,0,.08h0c.06,1.43-1.05,2.65-2.49,2.71-.04,0-.08,0-.12,0M147.39,29.32c2.48.07,4.54-1.89,4.61-4.37,0-.03,0-.07,0-.1h0c0-2.55-2.06-4.61-4.61-4.61s-4.61,2.06-4.61,4.61h0c-.01,2.46,1.97,4.46,4.43,4.47.06,0,.12,0,.17,0"/>
        <path class="cls-1" d="M132.54,28.31c0,.52.43.95.95.95.52,0,.95-.42.95-.95v-2.48h3.35c.48,0,.87-.39.87-.87,0-.48-.39-.87-.87-.87h-3.35v-1.84h3.91c.48,0,.87-.39.87-.87,0-.48-.39-.87-.87-.87h-4.86c-.55,0-1,.45-1,1l.05,6.8Z"/>
        <path class="cls-1" d="M124.47,28.31c.16.53.72.82,1.25.66.31-.1.56-.34.66-.66v-6.92c-.16-.53-.72-.82-1.25-.66-.31.1-.56.34-.66.66v6.92Z"/>
        <path class="cls-1" d="M113.47,28.23c0,.55.45,1,1,1h4.49c.48,0,.87-.39.87-.87,0-.48-.39-.87-.87-.87h-3.54v-6.1c0-.52-.43-.95-.95-.95s-.95.43-.95.95l-.05,6.84Z"/>
        <path class="cls-1" d="M103.46,25.56l1.21-2.87,1.2,2.87h-2.41ZM100.39,28.37c-.01.48.37.88.85.89.01,0,.02,0,.03,0,.39,0,.74-.23.88-.59l.61-1.43h3.82l.58,1.37c.14.39.51.64.92.65.5,0,.91-.42.9-.92h0c0-.13-.04-.26-.1-.38l-3-6.83c-.18-.46-.62-.76-1.11-.75h-.11c-.49,0-.93.29-1.11.75l-3,6.83c-.07.13-.1.27-.11.41"/>
        <path class="cls-1" d="M92.81,29.34c1.13.05,2.23-.34,3.08-1.09.38-.32.42-.88.11-1.25-.17-.2-.42-.31-.68-.32-.21,0-.41.08-.57.21-.52.46-1.19.7-1.88.69-1.42-.03-2.55-1.21-2.52-2.64,0-.03,0-.06,0-.09h0c-.07-1.42,1.02-2.64,2.45-2.71.02,0,.05,0,.07,0,.64,0,1.27.22,1.77.62.17.12.37.19.57.19.51,0,.93-.41.94-.92,0,0,0,0,0-.01,0-.3-.14-.57-.37-.76-.84-.61-1.86-.92-2.9-.88-2.43-.06-4.46,1.86-4.52,4.3,0,.06,0,.13,0,.19h0c-.05,2.42,1.87,4.42,4.29,4.47.05,0,.11,0,.16,0"/>
      </g>
    </g>
  </g>
</svg>