<?xml version="1.0" encoding="UTF-8"?>
<svg id="Layer_1" data-name="Layer 1" xmlns="http://www.w3.org/2000/svg" viewBox="0 0 187.01 55.01">
  <defs>
    <style>
      .cls-1 {
        fill: #e31837;
      }

      .cls-1, .cls-2, .cls-3 {
        stroke-width: 0px;
      }

      .cls-2 {
        fill: #005daa;
      }

      .cls-3 {
        fill: #fff;
      }
    </style>
  </defs>
  <path class="cls-3" d="M184.16,12.49c-3.19-3.87-8.83-6.1-15.46-6.1-7.01,0-13.33,2.39-17.7,6.26l.71-4.47-1.89-.56c-2.69-.8-5.66-1.22-8.62-1.22-5.08,0-9.93,1.57-13.86,4.16l1.13-3.72h-30.37l-.36,1.19c-2.7-1.08-5.67-1.62-9.01-1.62-6.25,0-13.02,2.43-16.53,7.1-.23-.34-.47-.68-.74-1-3.19-3.87-8.83-6.1-15.46-6.1s-12.96,2.24-17.31,5.92l1.69-10.3-1.93-.56C35.17.5,31.52,0,27.89,0,14.59,0,2.48,8.46.32,19.25c-.92,4.59.15,9.04,3.01,12.53,2.44,2.97,6.04,5.09,10.31,6.17H.46v16.86h67.15l.1-.2v.2h8.1l1.1-1.79-.34,1.79h18.27l.27-1.41c1.61,1.04,3.69,1.6,6.09,1.6,2.15,0,4.14-.44,5.85-1.23l-.2,1.04h25.62l.04-.23c1.19.27,2.44.43,3.63.43.72,0,1.47-.06,2.21-.2h9.77l.73-1.54h.65l.2,1.54h30.13l1.5-7.89h-.55l.21-1.08h.39l1.5-7.89h-.83c.68-.61,1.17-1.4,1.35-2.3.2-1.06-.08-2.15-.76-2.98-.18-.21-.38-.4-.6-.57,2.39-2.45,4.05-5.43,4.69-8.77.79-4.1-.1-7.84-2.57-10.84h0ZM166.73,46.34h-.92l1.4-7.34c.32-.04.64-.09.95-.14l-1.42,7.47ZM145.16,22.47c-.1.49-.16.98-.21,1.45-2.03,1.36-3.94,2-5.98,2-1.38,0-2.57-.45-3.19-1.2-.35-.43-.47-.91-.36-1.46.36-1.88,2.91-3.53,5.45-3.53,1.59,0,3.08.56,4.55,1.71-.09.34-.19.68-.26,1.03ZM147.22,37.95l-.99,1.64-.82-.46c-.55-.3-1.13-.55-1.73-.74.44-.1.85-.22,1.21-.35l1.16-.42,1.14-4.98c.15.21.3.43.47.64,1.71,2.08,4.19,3.67,7.17,4.69h-7.6s0,0,0,0ZM157.29,38.64l-.39,2.08-.55-2.3c.31.08.62.16.94.23h0ZM166.95,19.95c1.24,0,2.19.33,2.69.93.45.55.44,1.25.34,1.74-.39,2.03-2.48,3.45-5.08,3.45-1.27,0-2.27-.33-2.74-.92-.33-.4-.43-.97-.29-1.68.34-1.75,2.2-3.52,5.09-3.52ZM109.77,39.47c-.37-.24-.75-.46-1.15-.65h1.27l-.12.65ZM102.78,46.33c-.16.15-.43.24-.74.26.16-.14.41-.25.74-.26ZM100.79,20.14l-1.51,4.96c-.09-1.29-.51-2.53-1.23-3.6-.31-.44-.66-.85-1.05-1.22l3.79-.14ZM57.28,22.62c-.39,2.03-2.48,3.45-5.08,3.45-1.26,0-2.27-.33-2.74-.92-.33-.4-.43-.97-.29-1.68.34-1.75,2.2-3.52,5.1-3.52,1.24,0,2.19.33,2.69.93.45.55.43,1.25.34,1.74h0ZM74.71,38.76l-.05.1v-.11s.03,0,.05,0h0ZM97.15,32.15l-1.76,5.8h-6.76c3.46-1.14,6.56-3.05,8.52-5.8ZM97.88,38.82h.38c-.14.06-.27.12-.41.18l.03-.18ZM25.12,23.6c-1.93,0-3.6-.63-4.47-1.69-.5-.61-.67-1.29-.52-2.08.5-2.52,3.87-4.66,7.35-4.66,2.35,0,4.53.88,6.65,2.68-.56,1.05-1.01,2.15-1.33,3.3-2.6,1.66-5.05,2.45-7.68,2.45h0ZM64.9,35.56l2.2.99c1.21.55,2.56,1.01,3.98,1.41h-4.09l-.44.88-.06-.88h-7.07c1.91-.58,3.75-1.39,5.48-2.4h0ZM118.45,46.34l1.59-8.38h-7.73l5.42-17.86,1.65.06c-.31.81-.56,1.65-.73,2.5-.77,3.99.17,7.83,2.64,10.83,1.63,1.98,3.87,3.48,6.49,4.46h-6.82l-1.59,8.38h-.92s0,0,0,0ZM32.28,37.33l1.16-.41,1.02-4.33c.16.23.32.46.5.67,1.71,2.08,4.19,3.67,7.17,4.69h-12.34c.93-.17,1.79-.38,2.49-.63h0ZM172.12,37.95c.98-.3,1.95-.66,2.89-1.07.14.33.3.64.53.92.05.06.11.1.16.16h-3.59,0Z"/>
  <path class="cls-2" d="M64.37,40.21l.47,7.37h.12c.24-.75.51-1.54.89-2.28l2.54-5.09h4.13l.62,7.37h.12c.21-.72.46-1.48.79-2.18l2.48-5.19h5.6l-7.57,12.35h-4.7l-.41-6.71h-.18c-.18.64-.34,1.26-.63,1.87l-2.41,4.85h-4.58l-2.84-12.35h5.58Z"/>
  <path class="cls-2" d="M81.73,40.21h5.19l-.79,4.16h3.3l.79-4.16h5.19l-2.35,12.35h-5.19l.81-4.29h-3.3l-.81,4.29h-5.19l2.35-12.35Z"/>
  <path class="cls-2" d="M110.6,46.42c-.75,3.96-4.88,6.34-9.4,6.34s-7.75-2.38-6.99-6.34c.74-3.88,4.91-6.4,9.41-6.4s7.71,2.52,6.98,6.4h0ZM99.62,46.48c-.27,1.41.69,2.38,2.32,2.38s2.95-.97,3.22-2.38c.25-1.31-.6-2.41-2.31-2.41s-2.98,1.1-3.23,2.41ZM111.78,40.21h5.39l-1.59,8.38h4.52l-.75,3.96h-9.9l2.35-12.35ZM132.83,48.14l.24.18c.84.62,1.91,1.13,3.15,1.13.53,0,1.41-.18,1.52-.74s-.59-.61-1.07-.69l-1.05-.16c-2.05-.31-3.61-1.34-3.25-3.27.56-2.93,4.07-4.57,7.3-4.57,1.69,0,3.18.35,4.49,1.08l-2.05,3.16c-.82-.52-1.79-.93-2.95-.93-.47,0-1.19.15-1.28.65-.09.46.57.52.96.61l1.18.23c2.2.43,3.66,1.44,3.26,3.54-.56,2.95-4.06,4.4-7.27,4.4-1.86,0-3.95-.43-5.48-1.13l2.31-3.49h0Z"/>
  <path class="cls-2" d="M151.33,48.09l-.21-2.18c-.06-.52-.05-1.06-.05-1.59h-.2l-1.7,3.77h2.16,0ZM146.64,52.56h-5.7l7.5-12.35h5.95l2.94,12.35h-5.7l-.2-1.54h-4.07l-.73,1.54h0Z"/>
  <path class="cls-2" d="M159.23,40.21h5.39l-1.59,8.38h4.52l-.75,3.96h-9.9l2.35-12.35ZM170.13,40.21h9.97l-.64,3.37h-4.54l-.23,1.18h4.15l-.61,3.21h-4.15l-.23,1.21h4.7l-.64,3.37h-10.12l2.35-12.35Z"/>
  <g>
    <path class="cls-1" d="M97.07,18.02l6.8-.26-5.7,18.8h12.2l5.7-18.8,6.65.26,2.71-8.93h-25.64l-2.71,8.93h0ZM71.82,22.9c-1.71,8.81-11.05,14.1-21.29,14.1s-17.54-5.28-15.84-14.1c1.67-8.64,11.12-14.24,21.32-14.24s17.48,5.61,15.81,14.24h0ZM46.95,23.05c-.61,3.13,1.56,5.28,5.26,5.28s6.69-2.15,7.3-5.28c.56-2.91-1.37-5.35-5.24-5.35-3.87,0-6.75,2.44-7.31,5.35h0Z"/>
    <path class="cls-1" d="M68.03,34.49c3.48,1.56,8.2,2.51,12.42,2.51,7.26,0,15.18-3.24,16.45-9.8.9-4.66-2.4-6.92-7.38-7.87l-2.66-.51c-.9-.18-2.39-.33-2.19-1.35.22-1.13,1.84-1.46,2.91-1.46,2.62,0,4.81.91,6.68,2.08l4.65-7.03c-2.98-1.64-6.35-2.4-10.18-2.4-7.3,0-15.26,3.64-16.52,10.16-.83,4.3,2.73,6.59,7.36,7.29l2.38.36c1.08.18,2.66.29,2.42,1.53s-2.23,1.64-3.43,1.64c-2.81,0-5.21-1.13-7.13-2.51l-.55-.4-5.24,7.76h0ZM149.17,9.79c-2.44-.73-5.21-1.13-7.98-1.13-9.84,0-18.78,6.41-20.33,14.43-1.52,7.83,4.79,13.92,14.36,13.92,2.18,0,6.78-.33,8.89-1.09l2.34-10.27c-2.26,1.57-4.68,2.55-7.48,2.55-3.65,0-6.36-2.33-5.77-5.35.58-2.99,4.02-5.36,7.67-5.36,2.76,0,4.96,1.27,6.63,2.77l1.66-10.46h0ZM168.7,8.66c-10.19,0-19.65,5.61-21.32,14.24-1.7,8.82,5.6,14.1,15.84,14.1s19.59-5.28,21.29-14.1c1.67-8.63-5.62-14.24-15.81-14.24ZM166.95,17.69c3.87,0,5.81,2.44,5.24,5.35-.61,3.13-3.6,5.28-7.3,5.28s-5.86-2.15-5.26-5.28c.56-2.91,3.44-5.35,7.31-5.35h0ZM37.83,3.62c-3.04-.88-6.5-1.36-9.94-1.36C15.62,2.26,4.47,10.01,2.53,19.69c-1.89,9.47,5.97,16.82,17.91,16.82,2.72,0,8.46-.4,11.09-1.32l2.92-12.42c-2.82,1.89-5.83,3.08-9.33,3.08-4.55,0-7.93-2.82-7.2-6.48.72-3.61,5.01-6.47,9.56-6.47,3.44,0,6.19,1.54,8.27,3.35l2.08-12.64h0Z"/>
    <path class="cls-1" d="M177,35.23c.18-.96,1.25-1.73,2.42-1.73s1.94.77,1.76,1.73c-.19.96-1.26,1.74-2.42,1.74s-1.94-.77-1.76-1.74ZM180.63,35.23c.15-.77-.41-1.28-1.3-1.28s-1.64.51-1.78,1.28c-.15.77.39,1.28,1.3,1.28s1.64-.51,1.78-1.28ZM179.89,36.14h-.54l-.34-.77h-.35l-.15.77h-.46l.35-1.82h1.06c.47,0,.72.13.64.56-.06.31-.3.47-.59.49l.38.77h0ZM179.22,35.02c.23,0,.43,0,.46-.19.03-.16-.17-.16-.4-.16h-.5l-.07.35h.49Z"/>
  </g>
  <path class="cls-2" d="M3.39,52.58h57.09v-.02h-.05l-.72-3.14H3.39v3.16ZM3.39,48.09h56.01l-.73-3.16H3.38v3.16ZM3.39,43.58h54.96l-.25-1.15-.51-2.2H3.38v3.35ZM122.69,40.21h9.96l-.64,3.37h-4.54l-.23,1.18h4.15l-.61,3.21h-4.15l-.23,1.21h4.7l-.64,3.37h-10.12l2.35-12.35Z"/>
</svg>