<svg xmlns="http://www.w3.org/2000/svg" width="100" height="100" viewBox="0 0 100 100">
    <g fill="none" fill-rule="evenodd">
        <g fill-rule="nonzero">
            <g>
                <g>
                    <path fill="#4C12A1" d="M100 50c0 27.614-22.386 50-50 50S0 77.614 0 50 22.386 0 50 0c13.26 0 25.979 5.268 35.355 14.645C94.732 24.02 100 36.739 100 50" transform="translate(-45 -40) translate(45 40)"/>
                    <path fill="#FFF" d="M86.478 58.432c3.316 0 6.35-2.092 6.35-5.373 0-2.932-1.577-4.188-4.41-4.992l-1.45-.417c-1.411-.388-2.35-.772-2.35-1.644 0-.673.58-1.287 1.765-1.287.881-.052 1.702.448 2.06 1.256L91.5 44.46c-1.097-2.116-3.316-2.896-5.217-2.896-3.122 0-5.373 1.933-5.373 4.586 0 2.653 1.93 3.733 4.022 4.346l1.996.579c1.64.483 2.117.967 2.117 1.997 0 1.22-1.192 1.898-2.512 1.898-1.41 0-2.822-.773-2.822-2.223-.004-.16.008-.321.035-.48h-3.736c-.046.222-.067.448-.063.674 0 3.196 2.702 5.49 6.53 5.49zM71.22 65.417c2.329.032 4.527-1.073 5.891-2.96.862-1.27 1.3-2.78 1.253-4.315V41.953H74.66v9.303c0 2.155-1.412 3.669-3.412 3.669s-3.411-1.411-3.411-3.67v-9.302h-3.694v9.56c0 4.41 3.122 6.919 6.953 6.919 1.862.029 3.663-.667 5.02-1.94v.257c-.299.403-.644.77-1.03 1.093 0 2.801-1.739 4.057-3.637 4.057-1.997 0-3.154-1.03-3.475-2.511h-3.637c0 2.554 2.477 6.029 6.886 6.029h-.003zm-17.96-7.37h3.7v-9.67c.014-1.873 1.539-3.383 3.412-3.38.59-.04 1.18.083 1.707.353V41.76c-.56-.13-1.132-.196-1.707-.194-1.817-.023-3.568.685-4.858 1.965v-.258c.241-.39.558-.73.931-.998v-.321H53.27l-.01 16.094zm-11.17 0h3.701v-9.67c.014-1.873 1.538-3.383 3.412-3.38.59-.04 1.18.083 1.707.353V41.76c-.56-.13-1.133-.196-1.707-.194-1.818-.024-3.568.684-4.858 1.965v-.258c.241-.39.558-.73.931-.998v-.321h-3.175l-.01 16.094zm-9.465.385c1.828-.052 3.568-.8 4.862-2.092v.257c-.25.431-.565.823-.932 1.16v.29h3.175V41.953h-3.7v9.303c0 2.155-1.411 3.669-3.415 3.669-1.93 0-3.443-1.45-3.443-3.67v-9.302h-3.687v9.56c0 4.184 2.784 6.919 7.144 6.919h-.004zm-16.125 0c3.203.033 6.133-1.802 7.5-4.7l-3.285-1.703c-.772 1.735-2.187 2.864-4.233 2.864-2.67 0-4.586-2.06-4.586-4.893 0-2.833 1.901-4.893 4.586-4.893 2.06 0 3.475 1.125 4.233 2.864L24 46.264c-1.369-2.896-4.297-4.73-7.5-4.7-3.054-.062-5.904 1.532-7.449 4.167s-1.545 5.9 0 8.534c1.545 2.635 4.395 4.229 7.449 4.167z" transform="translate(-45 -40) translate(45 40)"/>
                </g>
            </g>
        </g>
    </g>
</svg>
