<?xml version="1.0" encoding="UTF-8"?>
<svg id="Layer_1" data-name="Layer 1" xmlns="http://www.w3.org/2000/svg" xmlns:xlink="http://www.w3.org/1999/xlink" version="1.1" viewBox="0 0 2008.6 389.6">
  <defs>
    <style>
      .cls-1 {
        fill: url(#linear-gradient);
      }

      .cls-1, .cls-2, .cls-3, .cls-4, .cls-5, .cls-6, .cls-7, .cls-8, .cls-9 {
        stroke-width: 0px;
      }

      .cls-2 {
        fill: #6b1725;
      }

      .cls-3 {
        fill: #0d857d;
      }

      .cls-4 {
        fill: #ef5929;
      }

      .cls-5 {
        fill: url(#linear-gradient-2);
      }

      .cls-6 {
        fill: url(#linear-gradient-3);
      }

      .cls-7 {
        fill: #444;
      }

      .cls-10 {
        isolation: isolate;
      }

      .cls-8 {
        fill: #0ab5a4;
      }

      .cls-9 {
        fill: #fff;
      }
    </style>
    <linearGradient id="linear-gradient" x1="15.7" y1="382.4" x2="351.2" y2="183.1" gradientTransform="translate(0 391.6) scale(1 -1)" gradientUnits="userSpaceOnUse">
      <stop offset="0" stop-color="#fff"/>
      <stop offset="0" stop-color="#07b5a5"/>
      <stop offset="1" stop-color="#000"/>
    </linearGradient>
    <linearGradient id="linear-gradient-2" x1="606.9" y1="305.9" x2="-178.7" y2="-340.2" gradientTransform="translate(0 391.6) scale(1 -1)" gradientUnits="userSpaceOnUse">
      <stop offset="0" stop-color="#fff"/>
      <stop offset="0" stop-color="#ef592b"/>
      <stop offset=".1" stop-color="#e9572a"/>
      <stop offset=".2" stop-color="#db5127"/>
      <stop offset=".4" stop-color="#c24823"/>
      <stop offset=".5" stop-color="#a03b1c"/>
      <stop offset=".7" stop-color="#752b15"/>
      <stop offset=".8" stop-color="#3f170b"/>
      <stop offset="1" stop-color="#010000"/>
      <stop offset="1" stop-color="#000"/>
    </linearGradient>
    <linearGradient id="linear-gradient-3" x1="-36.7" y1="294.4" x2="298.8" y2="95" gradientTransform="translate(0 391.6) scale(1 -1)" gradientUnits="userSpaceOnUse">
      <stop offset="0" stop-color="#fff"/>
      <stop offset="0" stop-color="#07b5a5"/>
      <stop offset="1" stop-color="#000"/>
    </linearGradient>
  </defs>
  <g>
    <path class="cls-1" d="M431.3,253.7c-.6,1.3-1.3,2.5-2.2,3.6,1.2-.8,2.5-1.6,3.9-2.6-.6-.3-1.2-.7-1.8-1Z"/>
    <path class="cls-5" d="M234,370.9c-3.4,2-6.3,3-9.2,3.1,3.4.2,6.8-.9,10.8-3.2,61.6-36,123.4-71.7,185.4-107,3.5-2,6.2-4.1,8.2-6.6-4,2.6-6.9,4.6-10,6.4-61.8,35.7-123.6,71.3-185.2,107.3h0Z"/>
    <path class="cls-8" d="M433.1,243.7c-.6-71.4-.3-142.8-.3-214.3v-13.4c-69.7,40-138.9,79.6-208,119.2,68.7,39.4,137.3,78.7,206.6,118.4,1.2-2.7,1.8-5.9,1.8-9.9h0Z"/>
    <path class="cls-6" d="M224.8,135.3v238.8c2.9-.2,5.8-1.1,9.2-3.1,61.6-36,123.4-71.6,185.2-107.3,3-1.8,5.9-3.7,10-6.4.9-1.1,1.6-2.3,2.2-3.6-69.3-39.7-137.9-79.1-206.6-118.4h0Z"/>
    <path class="cls-3" d="M224.8,135.3v238.8c2.9-.2,5.8-1.1,9.2-3.1,61.6-36,123.4-71.6,185.2-107.3,3-1.8,5.9-3.7,10-6.4.9-1.1,1.6-2.3,2.2-3.6-69.3-39.7-137.9-79.1-206.6-118.4h0Z"/>
    <path class="cls-9" d="M30.3,263.6c-3-1.8-5.9-3.7-10-6.4,2,2.5,4.7,4.5,8.2,6.6,62,35.4,123.7,71.1,185.4,107,4,2.3,7.4,3.4,10.8,3.2-2.9-.2-5.8-1.1-9.2-3.1-61.6-36-123.4-71.6-185.2-107.3h0Z"/>
    <path class="cls-4" d="M16.7,29.5c0,71.4.3,142.8-.3,214.3,0,4.1.5,7.2,1.8,9.9,69.3-39.7,137.9-79.1,206.6-118.4C155.6,95.6,86.5,56,16.7,16v13.4h0Z"/>
    <path class="cls-9" d="M20.4,257.3c-.9-1.1-1.6-2.3-2.2-3.6-.6.3-1.2.7-1.8,1,1.4.9,2.7,1.8,3.9,2.6Z"/>
    <path class="cls-2" d="M18.2,253.7c.6,1.3,1.3,2.5,2.2,3.6,4,2.6,6.9,4.6,10,6.4,61.8,35.7,123.6,71.3,185.2,107.3,3.4,2,6.3,3,9.2,3.1v-238.8c-68.7,39.4-137.3,78.7-206.6,118.4h0Z"/>
  </g>
  <g class="cls-10">
    <g class="cls-10">
      <path class="cls-7" d="M497.2,326.5V77.1h175.4v46.6h-125.5v53.2h92.6v46.4h-92.6v103.3h-49.9Z"/>
    </g>
    <g class="cls-10">
      <path class="cls-7" d="M677.5,180.2c21.1-13.3,45.4-20,73.2-20s35.7,5.5,47.4,16.6c11.6,11.1,17.5,27.7,17.5,49.9v99.8h-46.6v-13.3c-13.5,8.9-25.7,13.3-36.6,13.3-22.2,0-38.8-4.7-49.9-14.1-11.1-9.4-16.6-22.4-16.6-39.1s5.2-29.4,15.7-41.6c10.5-12.2,27.4-18.3,50.8-18.3s22.9,3.3,36.6,10v-5c-.2-12.2-9.1-18.8-26.6-20-20,0-35.5,3.3-46.6,10l-18.3-28.3ZM768.9,276.6v-18.8c-4.4-8.5-15-12.8-31.6-12.8-20,2.2-30.5,10-31.6,23.3,1.1,13.2,11.6,20.3,31.6,21.4,16.6,0,27.2-4.4,31.6-13.1Z"/>
    </g>
    <g class="cls-10">
      <path class="cls-7" d="M941.5,164.9c8.6,3.8,16.7,9.4,24.3,16.8l-25.9,29.3c-7.5-9-17-13.5-28.3-13.5s-18.7,2.1-22.4,6.2c-3.8,4.2-3.8,7.9,0,11.3,3.8,3.4,11.2,6.2,22.4,8.4,16.5,1.6,30,6.3,40.6,14.1,10.5,7.9,15.8,21.6,15.8,41.1s-6.2,27.9-18.6,36.6c-12.4,8.6-26.9,13-43.4,13s-28.8-2.2-39.3-6.7c-10.5-4.5-19.5-10.5-27-18l25.8-29.1c7.5,9,19.2,14.2,35.1,15.6,12.7,0,21-2.1,24.7-6.2,3.7-4.2,4.3-8.3,1.7-12.5-2.6-4.2-11.4-7-26.4-8.4-13.5-1.5-25.9-5.7-37.2-12.5-11.3-6.8-16.9-19.5-16.9-38.2s6.4-30.3,19.2-39.3c12.8-9,26-13.5,39.5-13.5s27.8,1.9,36.4,5.7Z"/>
    </g>
    <g class="cls-10">
      <path class="cls-7" d="M1069.7,326.5c-18.8,0-33.8-5.3-44.9-15.8-11.1-10.5-16.6-24.1-16.6-40.7v-72h-24.9v-37.6h24.9v-45.1l46.7-5v50h24.9v37.6h-24.9v65.3c0,8.9,1.9,15.1,5.6,18.7,3.7,3.6,8.5,5.4,14.4,5.4s5.9-.7,12.5-2.2l9.8,33.4c-8,5.2-17.1,7.8-27.4,7.8Z"/>
    </g>
    <g class="cls-10">
      <path class="cls-7" d="M1121.9,326.5V77.1h108.7c58.2,0,87.3,23.9,87.3,71.8s-29,74.5-87.1,74.5h-59v103.1h-49.9ZM1171.8,176.9h69.8c20.1-.3,30.4-9.5,30.9-27.4-.6-16.4-10.7-24.9-30.4-25.6h-70.3v53Z"/>
    </g>
    <g class="cls-10">
      <path class="cls-7" d="M1323.6,243.4c0-24.4,7.8-44.3,23.3-59.9,15.5-15.5,35.5-23.3,59.9-23.3s43.8,7.8,58.2,23.3c14.4,15.5,21.6,35.5,21.6,59.9v16.6h-114.7c1.1,8.9,5,15.8,11.6,20.8,6.7,5,14.4,7.5,23.3,7.5,15.5,0,29.4-4.4,41.6-13.3l26.6,26.6c-12.2,16.6-34.9,24.9-68.2,24.9s-44.3-7.8-59.9-23.3c-15.5-15.5-23.3-35.5-23.3-59.9ZM1430,206c-6.7-5-14.4-7.5-23.3-7.5s-16.6,2.5-23.3,7.5-10,11.9-10,20.8h66.5c0-8.9-3.3-15.8-10-20.8Z"/>
    </g>
    <g class="cls-10">
      <path class="cls-7" d="M1562.1,220.8v105.7h-46.6v-161.4l46.6-5v15.1c11.2-10,24.5-15,39.9-15s37.1,6.4,48.2,19.1c11.1,12.7,16.6,27.4,16.6,44.1v103.1h-46.6v-91.4c0-11.1-2.8-19.7-8.3-25.8-5.5-6.1-13.9-9.3-25.1-9.6-9.6.7-17.9,7.7-24.8,21.1Z"/>
    </g>
    <g class="cls-10">
      <path class="cls-7" d="M1717.6,305.7c-16.6-13.9-24.9-31.9-24.9-54v-16.6c0-22.2,8.3-40.2,24.9-54,16.6-13.9,36.1-20.8,58.4-20.8s48.7,9.4,66.3,28.3l-33.3,24.9c-10-10-21.1-15-33.3-15s-20.8,4.4-29.1,13.3c-8.3,8.9-12.5,19.4-12.5,31.6s3.9,22.7,11.6,31.6c7.8,8.9,17.7,13.3,29.9,13.3s23.3-5,33.3-15l33.3,24.9c-17.7,18.8-39.9,28.3-66.5,28.3s-41.6-6.9-58.2-20.8Z"/>
    </g>
    <g class="cls-10">
      <path class="cls-7" d="M1869.7,103.6c4.4-4.5,10.4-6.7,18-6.7s14.2,2.2,18.6,6.7c4.4,4.5,6.7,10.1,6.7,16.7s-2.2,12.2-6.7,16.6c-4.4,4.4-10.5,6.6-18.3,6.6s-13.9-2.2-18.3-6.6c-4.4-4.4-6.7-10-6.7-16.6s2.2-12.2,6.7-16.7ZM1911.3,326.5v-166.4h-46.6v166.4h46.6Z"/>
    </g>
    <g class="cls-10">
      <path class="cls-7" d="M1946.9,326.5V77.1h46.6v249.4h-46.6Z"/>
    </g>
  </g>
</svg>