<?xml version="1.0" encoding="UTF-8"?>
<svg id="Layer_1" data-name="Layer 1" xmlns="http://www.w3.org/2000/svg" viewBox="0 0 18 18">
  <defs>
    <style>
      .cls-1 {
        fill: #000;
        stroke-width: 0px;
      }
    </style>
  </defs>
  <path class="cls-1" d="M17.71,10.88v6.45h-3.76v-6.02c0-1.51-.54-2.58-1.94-2.58-1.08,0-1.61.65-1.94,1.4-.11.22-.11.54-.11.86v6.24h-3.66V5.93h3.76v1.61h0c.54-.75,1.4-1.83,3.33-1.83,2.47.11,4.3,1.72,4.3,5.16ZM2.44.66C1.15.66.29,1.53.29,2.6s.86,1.94,2.04,1.94h0c1.29,0,2.15-.86,2.15-1.94s-.75-1.94-2.04-1.94h0ZM.5,17.34h3.76V6.15H.5v11.19Z"/>
</svg>