<?xml version="1.0" encoding="UTF-8"?>
<svg id="layer" xmlns="http://www.w3.org/2000/svg" viewBox="0 0 600.09 138.53">
  <defs>
    <style>
      .cls-1 {
        fill: black;
        stroke-width: 0px;
      }
    </style>
  </defs>
  <path class="cls-1" d="M587.09,24.93c.1-3.1-1.5-6.9-3.1-8.6-2-2.1-5.2-3.9-9.1-2.1-4.7,2-7.7,7.5-6.9,13.6.9,5.6,5.5,7.9,5.9,8.4,1.3,1.3,1.5,3.5-.5,4.7-2.2,1.1-1,3.1.4,2.8,4.7-1.7,6.1-3.3,9.5-8,2.1-3.2,3.6-6.5,3.8-10.8"/>
  <path class="cls-1" d="M600.09,46.03c0-2.1-1.4-4-3-4.3-3.7-1-8.1.4-11,2.6-6.3,5.2-6.3,18.5-6.4,25.1-7,15.4-15.5,28.8-25.6,43.6-3.4,5.1-6.9,11.4-11.6,11-1.7-.1-2.4-5.3-1.7-7.5,3.8-10.9,16.4-45.6,18.3-50.1h-16.6c-4.3,10.3-8.7,23.7-14.4,34.7-4.4,8.2-13.7,23.4-20.9,24.3-2.4.1-4.7-1.8-5.4-4.6-2.1-6.6.9-13.8,3-21.1,8.9-8,17.4-20.5,23.1-32.7,4.6-10,10-26.5,8.1-33.2-1-4-4.4-5.1-8.4-4.8-19.3,1.6-32.8,47-41.4,73.6-5.7,7.5-11.8,17.7-20.6,21.1-1.5.6-5.5,1.4-6.2-2-1-5.4.5-12.8,1.1-14.7,15.6-16.9,37.7-48.1,37.4-72.3,0-3.5-3.5-7-7-6.8-7.4.2-15.4,8.5-20.5,15.3-11.3,15-23.8,39.2-29.6,63-5.1,8.9-20.1,18.3-22,18.9-3.1.9-6.5,1.2-8.2-1.6-2-3.5-1.8-11.4-1.2-11.7,13.7-3.8,24-12.3,29.2-23.3,2.8-5.6,3.8-11.3,1.2-16.6-1.7-3.6-6-6.6-9.8-6.4-15.7,1.1-27.2,15.6-33.7,27.6-3.3,5.8-4,9.2-5.3,12.8-2.6,4.7-4.7,7.2-8,10.9-2.2,2.5-6.7,7-9.1,6.5-1.3-.2-2-1.6-1.3-3.9,3.7-13.8,15.9-37.3,13-49.7-1-4.4-8.1-6.8-12.3-5.7-5,1.3-9.2,6-14.5,11.2l-2.5,2.4c.3-3.6-.9-7.2-1.8-10-1.2-3.2-3.7-5.6-7.2-5.3-8.8.6-12.3,5.6-15.7,11.1-9.5,15.8-18.6,39.9-30.3,49.1-1.9,1.5-3.4,2-4.2,0-2.9-8,10.9-35.7,18-57l-15.7.1c-1.4,4.1-9.9,24.3-16,37.1-3.9,7.9-12.7,17.2-18.7,19.7-3.1,1.4-4.9-1.1-5.8-2.5-2-4.9,8.1-29.3,15.3-47l1.4-3.6h9.9l3.3-10.4h-9.2l7.6-21.2-16-.4-7.3,21.2h-10.3l-3.9,10.4h9.7s-8.1,24.3-12.3,32.2c-5.8,10.8-11.2,19.9-16.8,20.6-3.4.4-4.9-3.9-4.2-8.1,2.2-13.7,10-29.3,16.3-42.5l-6.2-8.7c-6.9,7.9-20.4,5-19.3,2.6,3.1-6.2,4.7-11.2,2.1-16-2.9-5.7-11.5,1.6-13.9,5.2-2.9,4.5-3.7,11.9-3.4,16.4.3,3.6,1.3,4.8,2.4,8.3-4.6,12.8-15.8,29.9-24.1,41.3-4.2,5.5-8.9,3-7.4-.8,6.1-14.6,13.7-37.1,19.4-54.3h-16.4c-.8,2.1-.6,4.2-1.5,3.2-8.6-7.9-20.2-2.7-26.2,5-6.2,6-18.9,23.5-22,34.7-3.7,9.6-10.9,14-13.2,15.6-7.3,5.7-6.8-3.7-4.7-9.8,6.4-18,29.2-60.5,25.1-76.5-1.5-5.8-6.9-8.5-10.6-8.6-5.6,0-11.6,5.5-15.5,10.9l-1.2.3c.1-3-.2-8.9-4.2-11.8-4.4-3.3-7.7-2.9-12-1.2-4.8,2-8.4,6-11.9,10-1.5,1.6-2.7,3.4-2.6,1.7,1.5-11.7.9-22.4-6.4-29.7C61.39,1.93,50.39-1.37,39.69.53c-10.6,1.8-18.6,6.3-25.3,14.7C5.39,26.33-2.91,41.83.99,58.23c1.7,7.5,7.5,14.9,13.9,16.3,7.9,2.1,15.4.7,20.9-3.7,6-4.8,13-11.9,15.7-22.8-2.7-3-8.8-10.9-10.2-12-3.4,10.9-7.7,22.1-19.1,24.4-3.5.7-5.6-.6-7.2-3.8-3.5-7,2.1-17.3,6.8-24.5,7-10.8,17.7-17.8,30.5-15.7,5.2.8,6.8,4.1,7.8,7.7,2.9,9.5-1.9,22-4.4,31.3l-27.1,76.8h17.9s26.6-79.3,37.1-91.1c2.1-2.4,3.4-3.1,3.4-.2.1,9.2-12.8,41.3-18.8,60.9-2.8,9.5-7.1,20-10.4,31.2h16.8c6.7-19.3,12.9-38.3,19.8-57.9,5.2-14.4,13.4-28.8,18.9-33.5.8-.9,3-1.4,2.5,2-1.7,8.7-7.6,20.6-10,27.6-10.5,30-19.1,47.8-12,60.9,1.7,3.4,6.2,5,8.8,5,10.5.4,15.7-6.3,21.9-14.1l1.8-2.2c.2,5.4,5.7,12.1,9,12.9,9.3,3,19.3-4.9,21.1-7.7,0,0,4.1,8,9.8,8.8,7,1.2,13.7-2.8,17.5-7.7,12-15,18.6-28.3,26.2-44.3.5-1,2.1-.5,5.6-.4,2.5,0,5.3.4,4.8,1.9-5,11-15.4,32-12.2,41.6,1.7,4.9,4.7,9.1,9.1,9.1,10.3.2,16.5-5.2,20.8-11.3,2.1-3,2.6-3.7,2.9-2,.6,2.4.7,5.6,1.9,7.7,2.2,3.6,6.8,6.5,12.1,5.7,6.1-.7,17.3-6.4,23.5-14.7l.8,1.7c1.4,5.7,2.6,10.9,8,12.7,5.7,1.8,12.3.3,16.1-3.3,17.1-17,29.4-50.6,36-56.4.6-.9,2.6-1.1,2,.6-4.8,16.6-20.2,57.3-20.2,57.3h17.5s12.8-45.7,27.3-55c1.4-1,3.3-1,3.3-.3-4.8,13.2-17,41.8-12.8,54.1,1.4,4.4,10.9,5.4,16.9,2.1,6.2-3.5,12.4-9.1,17.3-14.6l.7,1.4c.6,3.6,4.4,8.9,8.9,12.1,5.8,4,14.9,3.4,21.4.1,8.2-4.2,13-9.4,18.6-15.1l.8.1c.7,6.8,2,12.8,5.2,15.5,3.9,3.2,13.4,3.9,18.7,1.2,8-4.2,11.9-8.6,18.2-15.1.7-.5.7.2,1.1,1.6,3.2,10.9,7.8,14.6,11.1,15.4,10.2,2.2,20.9-5.9,25.4-12.8.9-1.4,1.1-.9,1.3.3.4,1.2,1.1,6.4,2,8.3,2.3,4.9,9.4,6,14,4.5,12.3-3.9,14.6-10.2,15.5-8.8,4.2,7.2,12.3,10.6,22.1,10.5,9.9-.2,18.3-10.8,21.6-19.4,3.3-9,1-23.3-2-33.1-4.5-15.2-6.2-21-3.6-23.3,3.9-2.8,8.5-11.9,8.5-16.7M526.39,39.23c1.9-1.2,2.7-.2,2.2,2.6-2.7,13.2-12.4,33.9-19.6,41.4-2.8,3.2,9.7-39,17.4-44M488.99,38.03c.9-.6,1.1,0,1.1,1.7-.2,3-3,15.3-11.1,29.7-3.3,5.7-10.9,21.7-13.9,19.8-2.5-4.5,19.1-48.3,23.9-51.2M430.49,73.53c2.4,0,2.2,3.9,1.8,6.8-.7,3.2-3.4,7.4-6,11.1-3.7,5.2-15.3,12.4-15.5,9.9-.5-9.9,11.1-27.2,19.7-27.8M159.09,109.83c-2.7,5.7-5.9,11.1-11.9,13.3-5.9,2.3-6.5-6.6-4.5-14.6,3.3-12.7,10.5-25.1,20.4-33,3.9-2.9,8.6-.7,8.1,1.9-1.2,4.5-8.1,23.8-12.1,32.4M572.99,124.83l-4.5,1.9c-1.1-.6-2.2-1.3-2.2-3.5,0-5.4,5.4-12.2,5.4-12.2l-3.6-3s9.1-14.1,11.7-19.8c1.5-3.6,2.2.8,2,1.6.9,7,2.8,23-8.8,35"/>
  <path class="cls-1" d="M319.59,40.53c0,5.5-4.1,10.1-9.1,10.1s-9.1-4.6-9-10.1c-.1-5.7,4-10.3,9-10.3s9.1,4.6,9.1,10.3"/>
  <path class="cls-1" d="M564.69,41.73c-.1,5.6-4.3,10.1-9.5,10.1-5.1.1-9.3-4.5-9.3-10.1s4.2-10.1,9.3-10.1c5.2-.1,9.4,4.5,9.5,10.1"/>
</svg>