<?xml version="1.0" encoding="UTF-8"?>
<svg id="Layer_1" data-name="Layer 1" xmlns="http://www.w3.org/2000/svg" viewBox="0 0 256 226">
  <defs>
    <style>
      .cls-1 {
        fill: #05bdba;
      }

      .cls-1, .cls-2 {
        stroke-width: 0px;
      }

      .cls-2 {
        fill: #014847;
      }
    </style>
  </defs>
  <polygon class="cls-1" points="69.18 188.09 66.76 188.09 54.7 176.02 54.7 173.61 73.14 155.16 85.92 155.16 87.62 156.86 87.62 169.64 69.18 188.09"/>
  <polygon class="cls-1" points="54.7 51.63 54.7 49.21 66.76 37.15 69.18 37.15 87.62 55.59 87.62 68.37 85.92 70.07 73.14 70.07 54.7 51.63"/>
  <path class="cls-2" d="M160.91,149.2h-17.55l-1.47-1.47v-41.09c0-7.31-2.87-12.98-11.69-13.17-4.54-.12-9.73,0-15.27.22l-.83.85v53.17l-1.47,1.47h-17.55l-1.47-1.47v-70.19l1.47-1.47h39.5c15.35,0,27.8,12.44,27.8,27.8v43.88l-1.47,1.47Z"/>
  <polygon class="cls-1" points="71.68 122.89 1.47 122.89 0 121.42 0 103.83 1.47 102.36 71.68 102.36 73.14 103.83 73.14 121.42 71.68 122.89"/>
  <polygon class="cls-1" points="254.53 122.89 184.32 122.89 182.86 121.42 182.86 103.83 184.32 102.36 254.53 102.36 256 103.83 256 121.42 254.53 122.89"/>
  <polygon class="cls-1" points="117.88 54.12 117.88 1.47 119.34 0 136.93 0 138.4 1.47 138.4 54.12 136.93 55.59 119.34 55.59 117.88 54.12"/>
  <polygon class="cls-1" points="117.88 223.79 117.88 171.13 119.34 169.66 136.93 169.66 138.4 171.13 138.4 223.79 136.93 225.25 119.34 225.25 117.88 223.79"/>
</svg>