<svg class="site-logo icon" xmlns="http://www.w3.org/2000/svg" width="95" height="30" viewBox="0 0 480 157.479"><path d="M179.373 73.857c37.001 6.491 107.985 12.11 175.497 12.896-47.319-6.453-84.646-18.463-104.01-30.812-8.047-5.681-12.521-11.641-13.566-17.652-.814-8.757 2.587-15.478 10.965-21.514.096-.072.196-.129.297-.196a33.036 33.036 0 0 1 1.825-1.255c.182-.101.35-.216.551-.335a49.917 49.917 0 0 1 1.974-1.203c.077-.052.183-.101.259-.163a84.299 84.299 0 0 1 5.346-2.798l.024-.187c-4.953.273-63.325 2.132-77.174 21.628-1.744 2.161-2.702 4.015-3.262 6.668-3.09 14.726 32.196 28.254 63.712 33.643 12.46 2.127 29.523 4.675 45.576 6.98 7.377 1.054 14.553 2.05 20.973 2.941-1.519-.145-3.21-.264-5.106-.35-22.18-.987-68.292-3.569-113.959-13.241-30.424-6.458-51.19-16.225-51.392-25.638-.225-11.167 32.608-21.27 63.866-28.786 32.015-7.674 73.695-10.429 99.766-6.137 10.241 1.691 17.614 4.369 19.899 8.57 2.074 4.915-1.777 10.587-13.231 16.613l.058.115c13.293-1.106 54.103-11.607 52.201-20.182C358.793 5.9 321.591-.231 274.793.032c-17.523-.264-38.304 1.073-63.382 4.79-68.062 10.089-156.331 47.215-32.038 69.035m50.035 44.067c2.127-3.669 5.087-5.136 12.048-5.921 4.115-.45 8.666-.613 16.642-.633.102-.014.188-.014.254-.014 7.402 0 20.471.574 28.6 1.14l.891.062 3.492-12.187-1.37-.086c-9.265-.652-21.466-1.111-30.419-1.111-.158 0-.326-.01-.508 0-13.212.023-20.857.728-27.593 2.251-10.318 2.323-17.428 8.062-20.498 16.642-1.15 3.166-2.419 6.688-3.425 10.203-1.006 3.551-1.677 6.852-2.357 9.988-.292 1.418-.445 2.765-.445 4.039-.058 6.61 4.249 11.281 11.885 13.154 5.777 1.471 12.877 2.017 25.533 2.017h.877c9-.028 21.719-.407 31.549-1.097l.771-.048 3.512-12.278-1.576.11c-8.58.604-22.218 1.241-29.547 1.25h-1.154c-7.244 0-11.464-.157-15.129-.565-3.219-.345-5.365-.967-6.572-1.777-1.111-.795-1.562-1.662-1.629-3.324l.034-.066-.053-.288c.019-1.394.666-3.88.876-4.618l.134-.475h56.029l3.578-12.498h-55.995c.411-1.24 1.01-2.921 1.565-3.87m57.164 39.545h18.324l16.703-58.29h-18.304l-16.723 58.29zm191.387-13.298c-8.574.589-22.223 1.227-29.542 1.24-.407-.005-.781 0-1.154 0-7.268 0-11.474-.158-15.138-.551-3.229-.354-5.365-.963-6.559-1.791-1.145-.82-1.604-1.716-1.639-3.479l.034-.397-.024-.053c.087-1.39.748-3.622.968-4.369l10.209-35.588h-18.199l-11.2 39.028c-.297 1.451-.45 2.768-.45 4.009-.062 6.683 4.364 11.368 12.015 13.25 5.763 1.457 12.853 2.008 25.441 2.008h.992c8.981-.029 21.715-.407 31.55-1.098l.771-.048 3.488-12.277-1.563.116zm-111.717 1.236c-.412-.005-.796 0-1.169 0-7.253 0-11.464-.157-15.128-.551-3.21-.354-5.375-.963-6.559-1.792-1.164-.818-1.604-1.719-1.643-3.502l.038-.373-.024-.053c.087-1.389.748-3.621.973-4.379l10.194-35.578h-18.189l-11.2 39.027c-.302 1.452-.44 2.77-.44 4.01-.062 6.683 4.364 11.367 12.01 13.25 5.772 1.457 12.843 2.008 25.441 2.008h.982c8.996-.029 21.715-.407 31.563-1.097l.771-.048 3.482-12.278-1.562.12c-8.582.589-22.22 1.227-29.54 1.236M73.423 122.59l-3.334 11.569c-.216.771-1.03 3.324-1.869 4.789-2.141 3.68-5.097 5.137-12.053 5.897-3.741.388-7.89.552-14.649.565-6.735-.014-10.788-.178-14.294-.565-3.234-.345-5.389-.968-6.582-1.776-1.121-.796-1.581-1.663-1.643-3.325l.048-.067-.048-.287c.014-1.395.646-3.881.876-4.613l3.296-11.583c.22-.747 1.164-3.817 2.012-5.265 2.113-3.67 5.078-5.135 12.048-5.921 3.746-.412 7.914-.604 14.678-.632 6.759.027 10.807.22 14.333.632 3.214.358 5.366.963 6.563 1.792 1.155.838 1.6 1.748 1.638 3.529 0 0-.009.029.005.111-.019 1.376-.81 4.417-1.025 5.15m7.679-21.155c-5.892-1.527-13.116-2.217-26.318-2.256-13.217.039-20.853.732-27.579 2.252-10.318 2.323-17.427 8.062-20.503 16.642-1.14 3.167-2.41 6.688-3.416 10.204-1.006 3.549-1.681 6.85-2.352 9.997-.297 1.403-.455 2.755-.455 4.038-.053 6.602 4.259 11.271 11.89 13.146 5.782 1.471 12.877 2.017 25.533 2.017h1.595c12.642 0 20.058-.551 26.63-2.008 10.338-2.279 17.442-7.994 20.532-16.579 1.135-3.157 2.362-6.458 3.382-10.003 1.016-3.53 1.758-7.051 2.443-10.203v-.01c.292-1.418.46-2.773.46-4.057.057-6.602-4.249-11.282-11.842-13.18m32.019-2.251h-12.537l-3.478 12.12h12.537l3.478-12.12zm73.887-.005l-10.922 38.089-39.631-38.089h-17.308l-16.714 58.29h18.313l10.922-38.093 39.631 38.093h17.298l16.714-58.29h-18.303z"></path></svg>