<?xml version="1.0" encoding="UTF-8"?>
<svg id="Layer_1" data-name="Layer 1" xmlns="http://www.w3.org/2000/svg" viewBox="0 0 1773 300">
  <defs>
    <style>
      .cls-1 {
        fill: none;
        stroke: #fff;
        stroke-width: 2px;
      }

      .cls-1, .cls-2 {
        font-family: Cabin-Bold, Cabin;
        font-size: 94.62px;
        font-variation-settings: 'wght' 700, 'wdth' 100;
        font-weight: 700;
        letter-spacing: .33em;
      }

      .cls-2 {
        fill: #5f3c97;
      }

      .cls-3 {
        fill: #009d96;
        stroke: #5f3c97;
        stroke-linecap: round;
        stroke-linejoin: round;
        stroke-width: 5px;
      }
    </style>
  </defs>
  <g>
    <path class="cls-3" d="M226.96,122.04c-4.13,18.18-15.68,30.88-34.62,38.1-13.28,5.08-31.22,7.62-53.83,7.62H14.83l6.6-30.74h116.37c11.67,0,20.14-1.16,25.42-3.51,4.87-2.14,7.9-5.61,9.1-10.42.26-1.67.4-2.77.4-3.31,0-3.27-1.44-5.87-4.3-7.82-3.4-1.87-10.58-2.81-21.51-2.81h-53.13c-13.08,0-24.01-.9-32.82-2.7-9.54-1.93-16.85-4.59-21.91-7.98-8.08-5.39-12.11-13.21-12.11-23.45,0-2.93.4-6.22,1.2-9.88,4.07-18.49,15.54-31.43,34.42-38.82,13.27-5.19,31.35-7.78,54.23-7.78h121.88l-6.6,31.06h-115.17c-11.14,0-19.41,1.29-24.82,3.85-5.07,2.44-8.2,6.45-9.41,12.04-.14.66-.2,1.48-.2,2.47,0,2.83,1.23,5.2,3.7,7.1,4,2.24,10.04,3.36,18.11,3.36h59.64c25.68,0,43.29,3.38,52.83,10.13,7.67,5.41,11.51,13.13,11.51,23.16,0,3.08-.44,6.52-1.3,10.33Z"/>
    <path class="cls-3" d="M449.41,48.64h-69.94l-25.42,119.11h-54.13l25.42-119.11h-69.24l6.41-30.1h193.22l-6.3,30.1Z"/>
    <path class="cls-3" d="M490.35,102.44l35.22-45.31,17.01,45.31h-52.23ZM562.29,18.55h-53.53l-125.68,149.21h56.84l26.42-34.26h87.55l12.31,34.26h59.04l-62.94-149.21Z"/>
    <path class="cls-3" d="M821.92,167.76h-100.76c-18.61,0-32.54-1.04-41.77-3.1-9.24-2.07-17.8-5.46-25.67-10.2-10.14-6.13-17.04-14.09-20.71-23.88-1.93-5.19-2.9-11.36-2.9-18.49,0-4.93.63-10.39,1.9-16.39,6.07-28.58,20.74-49.13,44.03-61.66,19.14-10.33,44.76-15.49,76.85-15.49h100.86l-6.41,30.1h-100.74c-16.34,0-28.98,3.48-37.91,10.43-8.6,6.69-14.78,18.42-18.51,35.18-1.2,5.36-1.8,10.2-1.8,14.5,0,7.56,1.97,13.51,5.9,17.89,5.8,6.49,17,9.74,33.61,9.74h47.11l6.2-28.5h-60.24l6.3-30.74h113.97l-19.31,90.62Z"/>
    <path class="cls-3" d="M1047.55,167.76h-58.34l-64.34-101.72-19.92,101.72h-53.53l31.82-149.21h63.14l60.64,96.22,18.62-96.22h53.73l-31.82,149.21Z"/>
    <path class="cls-3" d="M1172.68,102.44l35.22-45.31,17.01,45.31h-52.23ZM1244.62,18.55h-53.53l-125.68,149.21h56.83l26.42-34.26h87.55l12.31,34.26h59.04l-62.94-149.21Z"/>
    <path class="cls-3" d="M1468.2,76.69c-5.74,2.44-15.65,3.66-29.72,3.66h-51.23l6.6-30.74h51.23c14.54,0,24.01,1.12,28.42,3.36,3.27,1.65,4.9,4.28,4.9,7.9,0,1.45-.14,2.74-.4,3.86-1.4,5.8-4.67,9.79-9.81,11.96ZM1480.91,106.53c13.27-2.46,24.08-7.02,32.42-13.68,9.47-7.59,15.41-17.08,17.81-28.46.66-3.19,1-6.46,1-9.79,0-10.59-4.37-18.84-13.11-24.77-11.08-7.52-29.92-11.29-56.53-11.29h-114.77l-31.92,149.21h52.83l12.11-56.36h46.93l35.02,56.36h59.63l-41.43-61.22Z"/>
    <path class="cls-3" d="M1681.45,129.36c-10.31,7.67-24.47,11.5-42.49,11.5s-31.49-3.77-38.4-11.3c-4.65-5.06-6.98-12.23-6.98-21.5,0-4.87.63-10.24,1.9-16.1,6.64-31.01,27.89-46.51,63.73-46.51,18.09,0,30.62,3.8,37.6,11.4,5.25,5.73,7.88,13.2,7.88,22.4,0,4.67-.54,9.31-1.6,13.9-3.72,16.2-10.94,28.27-21.64,36.21ZM1762,74.58c0-17.03-5.74-30.39-17.21-40.08-14.88-12.56-41.22-18.84-79.05-18.84-33.15,0-59.63,4.81-79.44,14.43-25.42,12.29-41.26,32.8-47.53,61.52-1.67,7.61-2.5,14.5-2.5,20.64,0,16.56,5.5,29.56,16.51,38.97,15.34,13.16,41.99,19.74,79.95,19.74,73.71,0,116.14-25.98,127.28-77.95,1.33-6.21,2-12.35,2-18.44Z"/>
    <path class="cls-3" d="M226.96,122.04c-4.13,18.18-15.68,30.88-34.62,38.1-13.28,5.08-31.22,7.62-53.83,7.62H14.83l6.6-30.74h116.37c11.67,0,20.14-1.16,25.42-3.51,4.87-2.14,7.9-5.61,9.1-10.42.26-1.67.4-2.77.4-3.31,0-3.27-1.44-5.87-4.3-7.82-3.4-1.87-10.58-2.81-21.51-2.81h-53.13c-13.08,0-24.01-.9-32.82-2.7-9.54-1.93-16.85-4.59-21.91-7.98-8.08-5.39-12.11-13.21-12.11-23.45,0-2.93.4-6.22,1.2-9.88,4.07-18.49,15.54-31.43,34.42-38.82,13.27-5.19,31.35-7.78,54.23-7.78h121.88l-6.6,31.06h-115.17c-11.14,0-19.41,1.29-24.82,3.85-5.07,2.44-8.2,6.45-9.41,12.04-.14.66-.2,1.48-.2,2.47,0,2.83,1.23,5.2,3.7,7.1,4,2.24,10.04,3.36,18.11,3.36h59.64c25.68,0,43.29,3.38,52.83,10.13,7.67,5.41,11.51,13.13,11.51,23.16,0,3.08-.44,6.52-1.3,10.33Z"/>
    <path class="cls-3" d="M449.41,48.64h-69.94l-25.42,119.11h-54.13l25.42-119.11h-69.24l6.41-30.1h193.22l-6.3,30.1Z"/>
    <path class="cls-3" d="M490.35,102.44l35.22-45.31,17.01,45.31h-52.23ZM562.29,18.55h-53.53l-125.68,149.21h56.84l26.42-34.26h87.55l12.31,34.26h59.04l-62.94-149.21Z"/>
    <path class="cls-3" d="M821.92,167.76h-100.76c-18.61,0-32.54-1.04-41.77-3.1-9.24-2.07-17.8-5.46-25.67-10.2-10.14-6.13-17.04-14.09-20.71-23.88-1.93-5.19-2.9-11.36-2.9-18.49,0-4.93.63-10.39,1.9-16.39,6.07-28.58,20.74-49.13,44.03-61.66,19.14-10.33,44.76-15.49,76.85-15.49h100.86l-6.41,30.1h-100.74c-16.34,0-28.98,3.48-37.91,10.43-8.6,6.69-14.78,18.42-18.51,35.18-1.2,5.36-1.8,10.2-1.8,14.5,0,7.56,1.97,13.51,5.9,17.89,5.8,6.49,17,9.74,33.61,9.74h47.11l6.2-28.5h-60.24l6.3-30.74h113.97l-19.31,90.62Z"/>
    <path class="cls-3" d="M1047.55,167.76h-58.34l-64.34-101.72-19.92,101.72h-53.53l31.82-149.21h63.14l60.64,96.22,18.62-96.22h53.73l-31.82,149.21Z"/>
    <path class="cls-3" d="M1172.68,102.44l35.22-45.31,17.01,45.31h-52.23ZM1244.62,18.55h-53.53l-125.68,149.21h56.83l26.42-34.26h87.55l12.31,34.26h59.04l-62.94-149.21Z"/>
    <path class="cls-3" d="M1468.2,76.69c-5.74,2.44-15.65,3.66-29.72,3.66h-51.23l6.6-30.74h51.23c14.54,0,24.01,1.12,28.42,3.36,3.27,1.65,4.9,4.28,4.9,7.9,0,1.45-.14,2.74-.4,3.86-1.4,5.8-4.67,9.79-9.81,11.96ZM1480.91,106.53c13.27-2.46,24.08-7.02,32.42-13.68,9.47-7.59,15.41-17.08,17.81-28.46.66-3.19,1-6.46,1-9.79,0-10.59-4.37-18.84-13.11-24.77-11.08-7.52-29.92-11.29-56.53-11.29h-114.77l-31.92,149.21h52.83l12.11-56.36h46.93l35.02,56.36h59.63l-41.43-61.22Z"/>
    <path class="cls-3" d="M1681.45,129.36c-10.31,7.67-24.47,11.5-42.49,11.5s-31.49-3.77-38.4-11.3c-4.65-5.06-6.98-12.23-6.98-21.5,0-4.87.63-10.24,1.9-16.1,6.64-31.01,27.89-46.51,63.73-46.51,18.09,0,30.62,3.8,37.6,11.4,5.25,5.73,7.88,13.2,7.88,22.4,0,4.67-.54,9.31-1.6,13.9-3.72,16.2-10.94,28.27-21.64,36.21ZM1762,74.58c0-17.03-5.74-30.39-17.21-40.08-14.88-12.56-41.22-18.84-79.05-18.84-33.15,0-59.63,4.81-79.44,14.43-25.42,12.29-41.26,32.8-47.53,61.52-1.67,7.61-2.5,14.5-2.5,20.64,0,16.56,5.5,29.56,16.51,38.97,15.34,13.16,41.99,19.74,79.95,19.74,73.71,0,116.14-25.98,127.28-77.95,1.33-6.21,2-12.35,2-18.44Z"/>
  </g>
  <g>
    <text class="cls-1" transform="translate(189.15 273.05) scale(1.24 1)"><tspan x="0" y="0">CHARTER BOATS</tspan></text>
    <text class="cls-2" transform="translate(189.15 273.05) scale(1.24 1)"><tspan x="0" y="0">CHARTER BOATS</tspan></text>
  </g>
</svg>