<?xml version="1.0" encoding="UTF-8"?>
<svg id="Layer_1" data-name="Layer 1" xmlns="http://www.w3.org/2000/svg" version="1.1" viewBox="0 0 457.5 90">
  <defs>
    <style>
      .cls-1 {
        fill: #78bddf;
      }

      .cls-1, .cls-2 {
        stroke-width: 0px;
      }

      .cls-2 {
        fill: #4f5051;
      }
    </style>
  </defs>
  <g>
    <path class="cls-2" d="M265.1,28.2c-11.1,0-18.6,8.4-18.6,19.2s6.9,17.4,17.5,17.4,18.6-8.4,18.6-19.2-6.9-17.4-17.5-17.4M265.6,62.9c-5,0-12.8-4.4-12.8-18.4s9-14.3,10.7-14.3c5,0,12.8,4.4,12.8,18.4s-9,14.3-10.7,14.3"/>
    <path class="cls-2" d="M93.6,31.1h2.6c1,0,1.7.4,1.7.9v29.1c0,.5-.8.9-1.7.9h-2.6v1.8h14.9v-1.8h-2.6c-1,0-1.7-.4-1.7-.9v-29.1c0-.5.8-.9,1.7-.9h2.6v-1.8h-14.9v1.8Z"/>
    <path class="cls-2" d="M215.1,61.4c-.6-.3-1.1-.6-1.7-1.1-.6-.5-1.2-1.2-1.9-2.2-1.6-2.2-6.7-9.1-8.4-11.3,1.2-.4,2.4-.8,3.4-1.3,1-.5,1.9-1.1,2.6-1.8.8-.7,1.4-1.6,1.8-2.7.4-1,.6-2.2.6-3.5s-.3-2.7-.9-3.8c-.6-1-1.4-1.9-2.4-2.5-1-.7-2.2-1.1-3.5-1.4-1.3-.3-2.7-.5-4.1-.5h-17.7v1.8h3.5c1,0,1.7.4,1.7.9v29.1c0,.5-.8.9-1.7.9h-2.6v1.8h14.9v-1.8h-2.6c-1,0-1.7-.4-1.7-.9v-12.9h2.9l10.4,15.6h10.3v-1.8c-.4,0-.7,0-1.4-.1-.6-.1-1.2-.3-1.6-.5M194.5,46.1v-14.6h4.1c2.2,0,3.9.5,5.1,1.7,1.2,1.2,1.8,2.9,1.8,5s-.7,4.4-2.2,5.8c-1.5,1.4-3.4,2.1-5.6,2.1h-3.2Z"/>
    <path class="cls-2" d="M309.7,29.3v1.8h1s2.6,0,2.6,0c1,0,1.7.4,1.7.9v21.9l-21.7-24.6h-9.8v1.8h2c1.9,0,3.3,1.6,3.3,3.9v26.1c0,.5-.8.9-1.7.9h-2.6v1.8h12v-1.8h-3.6c-1,0-1.7-.4-1.7-.9v-25.4l24,27.3c.9,1,1.2,1.4,1.6,1.4s.5-.3.5-.6v-31.7c0-.5.8-.9,1.7-.9h2.6v-1.8h-11.9Z"/>
    <path class="cls-2" d="M137.9,31.1h3.6c1,0,1.7.4,1.7.9v21.9l-21.7-24.6h-9.8v1.8h2c1.9,0,3.3,1.6,3.3,3.9v26.1c0,.5-.8.9-1.7.9h-2.6v1.8h12v-1.8h-3.6c-1,0-1.7-.4-1.7-.9v-25.4l24,27.3c.9,1,1.2,1.4,1.6,1.4s.5-.3.5-.6v-31.7c0-.5.8-.9,1.7-.9h2.6v-1.8h-11.9v1.8Z"/>
    <path class="cls-2" d="M179.4,58.9c-.8,1.6-2.2,2.4-5,2.6-.8,0-1.7.1-2.8.1h-6.4c-.9,0-1.7-.4-1.7-.9v-14.7h9.2c.6,0,1,.2,1.3.4.2.2.4.3.4.6v2.4h1.8v-9h-1.8v2.4c0,.2-.2.4-.4.6-.3.2-.8.4-1.3.4h-9.2v-11.4c0-.5.8-.9,1.7-.9h8.3c.8,0,1.4,0,1.9.5,1.1,1.1,1.8,2.8,2.1,4.2,0,.1,0,.3,0,.3l1.3-.3-1-6.9h0s0,0,0,0h-25.1v1.8h2.6c1,0,1.7.4,1.7.9v29.1c0,.5-.8.9-1.7.9h-2.6v1.8h26.7l2-6.3-1.2-.4s-.8,1.6-.9,1.8"/>
    <path class="cls-2" d="M244.5,29.3h-.5s0,0,0,0h-27.6s-2,6.4-2.3,7.2l1.3.4c.3-.8,1-2.2,1.2-2.7,1.1-2.1,3-2.8,7.8-2.8h3v29.7c0,.5-.8.9-1.7.9h-2.6v1.8h14.9v-1.8h-2.6c-1,0-1.7-.4-1.7-.9v-29.7h3c4.8,0,6.7.6,7.8,2.8.2.5.9,1.8,1.2,2.7l1.3-.4c-.3-.8-2.3-7.2-2.3-7.2"/>
    <path class="cls-2" d="M81.2,31.1h2.8c.9,0,1.5.2,1,1.7l-9.3,24.3-6.4-14.7,4.4-9.6c.2-.5,1-1.7,2.5-1.7h2.2v-1.8h-23.2s0,1.8,0,1.8h.7c.5,0,1,.1,1.3.4.7.4,1,1,1.2,1.3l6.6,13.9-4.9,10.7-10.4-24.5c-.6-1.4,0-1.7,1-1.7h1.8v-1.8h-13.1v1.8h1.4c.5,0,1,.1,1.3.4.7.4,1,1,1.2,1.3l14.3,31.5c.4.8,1.3.8,1.7,0l7-15.2,7.2,15.2c.4.8,1.5.8,1.8,0l12.1-31.5h0c.2-.5,1-1.7,2.5-1.7h1.5v-1.8h-10v1.8ZM65,32.7c-.6-1.4,0-1.6.9-1.6h4.4c.9,0,1.6.3,1,1.7l-3.3,7-3.1-7.1Z"/>
  </g>
  <g>
    <path class="cls-2" d="M28.1,38.7c-4.7-1.8-9.4-3.4-9.4-8.3s.8-3.5,2.1-4.8c1.3-1.3,3.2-2.3,4.9-2.4,3.5-.2,5.3.7,6.8,2.3,1.3,1.4,2.2,4,2.7,5.6h1.9l-1.1-7.4-.2-1.5h-.2c0,0-.2,0-.4,0-.5,0-1.1-.2-1.9-.4-1.6-.5-3.6-.8-5.3-.9-.2,0-.6,0-.8,0-5.8,0-10.2,2.4-12.5,6.5-.7,1.4-1.4,3.5-1.4,5.4,0,7.9,6,10.2,11.8,12.3,4.5,1.7,8.7,3.2,9.6,7.4.1.5.2,1.1.2,1.6,0,2.2-.6,3.8-2,5.3-.8.8-1.7,1.6-2.8,2.1-2.1.9-3.9,1.2-5,1.2-4.1,0-5.7-1.2-7.6-3.2-1.6-1.7-2.6-3.9-3.4-6.6h-2l1.8,9.5s1,.6,1.7.9c1.7.7,4.5,1.6,8.4,1.6.5,0,1.3,0,2,0,.5,0,1-.1,1.3-.2,1-.2,2-.4,3-.7,2.8-.9,5-2.3,6.7-4.2,3-3.6,3.2-7.7,3.2-7.8,0-8.7-6.2-11-12.3-13.2"/>
    <path class="cls-1" d="M447.8,19.8h0l-1.7-3s-.8-.7-1.7-.8c-.1,0-.2,0-.3,0,0,0,0,0,0,0,0,0,0,0,0,0,0,0,0,0,0,0-.5.1-.5.3.1-.8.2-.4.5-.7.7-1,.6-.7,1.2-1.2,1.8-1.7.2-.2.2-.4.2-.5,0-.6-.8-1.1-1.4-.6-.6.6-6,4.8-8,7.1-.3.3-.5.6-.6.9-.1.2-.3.4-.4.6-1.1,1.2-2.9,1.1-3.3,1.4,0,0-.1,0-.2.2-.4.5-.6,1.5-.6,1.5l-1.4,1.1-3.4,2.8-3.9.2-1.3,1-1,.8h-1v-1.3c0,0-3.8.7-3.8.7l-1.7,1.7-1.3,1.3-.9-.5.6-1,1.4-2.2s-2.3-.6-3.4-.2c-1.1.4-1.8,1.5-1.8,1.5l-2.4-.7h0l-5.1,4.8-.6.6,1.2-4.6h-1.8c0,0,0,2.7,0,2.7l-1.6-1.4-1.2-3.7-.9-4.5s0,0,0,0c0,0,0,0,0,0h0c.2,0,.6-.3,1.2-.1.2.8.5,1.7.5,1.7l3.6,2.2h4.1l.6-.4h0s.7-5.4.7-5.4l-1.5-1.9h-.7c0,0,.2-1.1.2-1.1l.8-.3.8.9,2.8-2.5v-1.1s-.3-.1-.6,0c-.2,0-.3.2-.3.4,0,.1-.5.4-1,.8,0,0,0,0,0,0-.1,0-.3.2-.4.2-.6.3-1.1.6-1.1.6l-.8-.5s-2.9-.4-4.1-.3c0,0-.1,0-.2,0-.5.1-1.7.7-2.7,1.3-.8.5-1.5.9-1.5.9v1.8c.1,0-.6.4-.6.4l-.3.2-1.3-.5h0l-.6.4-.4.2h0s.9,2.5.9,2.5l-.5,1.6v2.4l5.3,8.2-2,11.5-.7-3,.2-7.9-2.2-3.5s-2.4-1.5-2.1-2.3c.2-.8-.2-.7-.8-.7-.3,0-1.6.4-3.2,1-.6.2-1.3.5-2,.8,0,0,0,0-.1,0,0,0,0,0-.1,0-.3.1-.5.2-.7.4-.3.1-.6.3-.8.5,0,0-.1,0-.2.1,0,0,0,0,0,0-.5.3-1,.7-1.3,1-.1.1-.2.2-.3.4-1.3,1.7-.3,2.9-.3,2.9,0,0-5.4,10.8-5.4,12l-1.8-.3s-5.3-11-4.9-11.8c.5-.9.5-1.5-.4-2.5-.8-1-12.2-4.2-12.2-4.2,0-.2-.5-.6-.5-.6h-4c0-.1-.4-.7-.4-.7l-1.5-.2h0s-.1.1-.2.2c-.1,0-.3.1-.5,0-.3-.4-1-3.9-.9-4.6,0-.3.1-.5.2-.5.1,0,.2,0,.3.3.2.4.5,1.6.5,1.6l2.3,1.1s4.7.3,5.3.1h0c.6-.2,1.1-.5.9-1.3-.2-.6-.3-3.1-.5-4.3l-.4.6h-1.7c0,0-.9-2.3-1.1-2.8-1-.2-1.9,0-2.6.1,0,0-.1,0-.2,0-.6.1-1,.3-1.1.2-.2-.1-.4-.4-.3-.6,0-.2,2.5-1.6,2.5-1.6,0,0,1.9.3,2,.4.1.2-.1.3-.1.3l1.4,3h1.6c0-.1,0-.1,0-.1,0-.1,0-.3,0-.3-.3-.5-1.2-2.5-1.3-2.8,0-.1,0-.2.2-.2.3,0,.6,0,.6,0,0,0,.6,1,.8,1s3-3.6,3.1-3.9c.1-.2-.1-1.1-.4-1.2,0,0,0,0-.1,0-.3,0-.9.6-.9.6v.7c0,0-1.9,1.6-1.9,1.6l-.7-.7-3.5.2h0l-4.5,1.9-.7.3h0l-.2,2.2-.7.6-.5-.5s-.5-.2-.9,0c-.4,0-.8.4-.5,1.4.6,2,1.5,2,1.5,2l-.4.7-.9,3.3s-1,1.4-2.5,2.5c0,0-.2.1-.2.2h0c-.9,2-1.3,4.4-1.3,5,.9.5,2.8,1.6,2.8,1.6l-1.1,1.8-2.7-3s.6-3.6,1-4.7c0,0,0,0,0,0-.1,0-.2,0-.3.1,0,0,0,0-.2,0-.1,0-.3,0-.4.1,0,0,0,0,0,0,0,0-.1,0-.2,0-2.9.9-8.9,2.7-9,4.9,0,1-.5,3.1-.6,5.1,0,2.9.4,5.6.4,5.6l-.8-.2-2,7.8-1.2,2.5s2.7,6.2,2.5,7c.3,0,1.3.7,2.4,1.5.1.1.3.2.5.3,0,0,.2.1.2.2,0,0,.2.1.3.2,0,0,.2.2.3.2.1,0,.2.2.3.3.1,0,.2.2.4.3,0,0,.1.1.2.2.2.1.3.3.5.4,0,0,0,0,0,0,.2.1.3.3.5.4,0,0,0,0,0,0,.3.3.6.5.8.7,0,0,0,0,0,0,.2.2.4.4.5.5,0,0,0,0,0,0,0,0,0,0,0,.1.1.4.7,1.2.7,1.2h0s1.5-.8,1.5-.8h0l-1.8-2.3v-2.7c0,0,.8-.8,1.7-1.6.7-.6,1.5-1.2,1.7-1.4,0,0,0,0,0,0,.3,0,.4,0,.4.2,0,.2-.5.4-1.5,1.3-1,.9-1.6,2.2-1.6,2.9s.3,1.2.7,1.3c.4,0,.9-.2,1.4-.4,1.5,1.3,4.9,1.6,4.9,1.6h0s1.4-1.6,1.4-1.7c0-.1.9.1.9.1,0,0,.4-.1.8-.4.2-.2.4-.4.3-.6-.3-.5-1.5-1.3-1.6-1.4-.2-.2-.3-.3-.3-.4,0-.1.4-.1.7,0,.3.2,1.3.8,2.1,1.1.3,0,.4,0,.6-.2.4-.4.5-1.1.5-1.1,0,0,1,.4,1.4,1.3,0,.6-.3.9-.7,1.1-.3.2-.7.3-1.1.2h0s-1.4,1.5-1.7,1.8c0,0,0,0,0,0-.2,0-.3,0-.8,0h0c-.2.2-.7.9-1.2,1.4-.2.2-.4.3-.6.5-.7,0-.9-.2-1.3-.3-.7-.1-1.4-.4-2-.6,0,0,0,0-.1,0,0,0,0,0,0,0-.3.2-.8.5-1.4.8-1.2.7-2.5,1.4-2.5,1.4l-6.4,2.9-2.4,1.1,10.1,3.7h29.7s0,0,0,0h.1c.7,0,1.4-.2,2.1-.4.5,0,.9-.2,1.4-.3,9.8-2.4,10.9-3.1,16.2-5.4,3.4-1.5,11.2-5.5,11.2-5.5,0,0-.6.9-.9,1.4,0,.1-.2.2-.2.3-.3.5-14.4,7.1-17,8.1l-.3,1.8h29.1s-.1-4.5-.1-4.5l-.3-4.8-1-4.9-.9-2.6s6-5.9,11.2-11.4c.2-.2.3-.3.5-.5.7-.7,1.4-1.5,2-2.2.2-.2.3-.4.5-.5,1-1.1,2-2.2,2.7-3.1.6-.7,1-1.3,1.4-1.8,0,0,.1-.2.2-.2.2-.3.4-.6.5-.8-3,.5-10.4,3.1-14,3.2h0c0,0,0,0-.1,0-2,.2-19.4,3.9-19.7,3.9-.2,0-.3,0-.4.2,0,0,0,.1,0,.2.2.1,2.8,1.3,3.1,1.4.2,0,.2.2,0,.4,0,0,0,0,0,0,0,0,0,0,0,0,0,0-.2,0-.3,0-.5,0-12.9-1.7-12.9-1.7,0-1.2,0-3.1,0-3.1l-1.1-.5.2-1,1.4.4.4-1-1.1-1.8s0-4.8,0-5.7c0-.3.1-.5.3-.5.2,0,.3.1.3.3,0,.4.6,5.5.6,5.5,0,0,2.5,4.1,2.8,4.4.2.2.2.4,0,.5,0,0-.2,0-.3,0-.3-.1-.7-.3-1.2-.6-.2-.1-.4,0-.5,0-.2.2-.3.6-.2,1,0,.6.2,1.4.4,1.5.2.1,3.6.2,3.6.2l.3-.7,24.6-4.2v-2.4s5.5-2.5,6.7-3.3c.1,0,.2-.1.2-.2.2-.4-.5-.8-.5-.8l.2-.8,1.9.5,9.7-4.6h0s1.4-1.5,1.4-1.5l.8-1.3,2.6-.7h0l.8-2,.7-1.9-1.5-.2-.8-1.1,3.4-.3,2.5-2.2s.7,0,.9.3c.2.2,1,1.4,1.7.4,0,0,0,0,0-.1,0-.3-.2-.9-.2-.9l.2-.6.2-.5ZM404.4,23.3l-.2-.9s1.8-.1,2.2-.2c0,0,0,0,0,0,0,0,0,0,0,0,0,0,0,0,0,0,0,0,0,0,0,0,0,0,.9.2.9.2l-.2.8h-2.7ZM404.2,17s.1,0,.3,0,0,0,.1-.1c.2,0,0,1,0,1l1.1,2h1.5s-.6,1.4-.6,1.4h-1.7c0,0-1.5-2.8-1.5-2.8l-2.1.2-1.3-.5,1.6-1.8,2.6.6ZM367.2,46.6c.1-.1.9-4.4,1-5,0-.5-.2-1.3,0-1.5.2-.1.8.7.8.7v6.1c0,0-1.8-.3-1.8-.3ZM342.6,57.3h0c-.2.1-.6,2.1-.6,2.1l-1.6-.6-.2-1.7-1.5-1.3-1.6-.2.2-1.1s2.4.8,2.6.7c.2-.1,1-3.6,1-3.6l-2.2-3.2.4-8.8s-.5-.6-.9-1.1c-.3-.4,0-.9,0-.9,0,0,0,0,0,0,0,0,0,0,0,0,0,0,0,0,0,0,0-.2.3-.7.3-.7l1.8,2.1.8,9.2,2.8,8.7s.4.7.1.9c-.3.2-1.3-.9-1.5-.8M355,33l1.6-2.9.7.2,1.9,2-.2.5s-.4.9-.4,1.3c1.2,1.1,2.1,13.3,2.1,13.3v3.6c.1,0,3.5-4.9,3.5-4.9l1.3.3s-3,4.6-5.8,8.3c-3.4,4.4-7.5,8.3-7.5,8.3l-1.1-.6s4.2-3.9,6.8-7.2c-5-3.9-11.8-11.8-13.4-14.5,0,0,.7-1.1,1.3-2,1.9,5.2,12.8,15.6,12.8,15.6h0s.8-1,1.5-1.8c-.4-.4-1.7-2.6-2.9-4.8,0-.6-.1-1.1-.1-1.6,0-.4-.4-9.8-.4-9.8,0,0,.8-2.2.7-2.4,0-.2-.6-.9-.9-.7-.2.2-1.2,1.2-1.2,1.2l-3.9-1.9-1.1-1.4,5,1.9ZM364.1,33.3l-.4,1.9,2.3,3.2s-1.9,6.3-2.6,7.4c.2-2.7.8-5.1,1.2-7.6-.6-.5-2.4-2.1-2.4-2.2,0-.2,1.3-2.2,1.3-2.2l.4-.9.2.4ZM356.8,23.5s-.2-1.1.3-1.2c.5,0,2.8,0,2.8,0v1.1c0,0-3.1,0-3.1,0Z"/>
    <path class="cls-1" d="M391.4,20.2c.1.4.5.5,1,.4h0c.2,0,.7-2.1.7-2.1,0,0,1.5-.9,2.9-1.8.1,0,.2-.1.3-.2,1.1-.7,2.1-1.3,2.3-1.4.5-.3,2.9-1.3,3.3-1.4.5-.1,4,0,4,0,0,0-2.1-3.3-2.4-3.5-.2-.2-2.2-.5-3.4-.7-.5,0-.9-.1-.9-.1v.4c0,0,1.4.7,1.4.7l-.7,1-2.7-1h0s-.2,0-.6,0c-.7,0-1.8.2-1.9.2h0c-.3.2-2.9,3.6-3,4-.1.4.4,3.1.4,3.1,0,0-.9,2-.8,2.4"/>
    <polygon class="cls-1" points="357 12.8 358.8 12.7 356.8 9.3 352.9 8.6 352.9 8.6 352.8 9 355.3 9.8 357 12.8"/>
  </g>
  <path class="cls-1" d="M345.6,20.3c.2,0,.3-.1.3-.1l.3-1.7,3.9-3.1v-1.4l.8-.9,1,1.3h0l.9-.3,2.3-.8-1.1-2.6-3.9-1h0s-3.1,1.7-3.1,1.7l-1.9,3.3.4,3.2s-.6,1-.5,2c0,.6.4.7.7.6"/>
</svg>