<?xml version="1.0" encoding="UTF-8"?>
<svg id="Layer_1" data-name="Layer 1" xmlns="http://www.w3.org/2000/svg" version="1.1" viewBox="0 0 569 184">
  <defs>
    <style>
      .cls-1 {
        fill: #f15a27;
      }

      .cls-1, .cls-2, .cls-3 {
        stroke-width: 0px;
      }

      .cls-2 {
        fill: #fff;
      }

      .cls-3 {
        fill: #0272ba;
      }
    </style>
  </defs>
  <path class="cls-3" d="M8.3,93.3C8.3,46.6,46.2,8.7,93,8.7s84.6,37.9,84.6,84.7-37.9,84.7-84.6,84.7S8.3,140.1,8.3,93.3"/>
  <polygon class="cls-1" points="143.6 63.5 119.4 63.5 131.5 93.2 143.6 63.5"/>
  <polygon class="cls-2" points="104.6 63.5 85.9 63.5 75.7 88.5 65.6 63.5 46.9 63.5 75.7 134.4 94.2 89.1 112.4 134.4 122.7 108.9 104.6 63.5"/>
  <g>
    <polygon class="cls-3" points="242.7 132.5 215.4 65.6 231.5 65.6 248.4 110.5 266.8 65.6 277.9 65.6 296.2 110.5 313.2 65.6 329.3 65.6 302 132.5 291 132.5 272.3 88.5 253.7 132.5 242.7 132.5"/>
    <g>
      <path class="cls-3" d="M353.6,132.5h-14.4v-66.9h14.4v66.9ZM346.4,36.1c5.8,0,10.2,4.4,10.2,10.2s-4.4,10.2-10.2,10.2-10.2-4.4-10.2-10.2,4.4-10.2,10.2-10.2"/>
      <path class="cls-3" d="M396.3,64c12.8,0,21.1,4.8,26.6,12.2l-9.8,9.4c-3.2-4.8-9.4-8.3-17.7-8.3s-11,2.4-11,6.6,5.4,6.2,15.8,8.4c11.4,2.5,22.7,5.9,22.7,20.6s-11.1,21.3-27.2,21.3-24.1-4.1-29.7-13.5l9.9-9.5c4.1,7,12,9.9,20.7,9.9s11.5-2.1,11.5-7.2-4.8-6.4-14.8-8.6c-10.4-2.1-23.7-6-23.7-20.7s9.9-20.5,26.5-20.5"/>
      <path class="cls-3" d="M463.2,76.8c-10.6,0-16.7,6-18.5,15.7h35.5c-.9-9.2-6.6-15.7-17-15.7M463.4,64c20.7,0,32.5,14.6,32.5,35.3v4.1h-51.4c1.3,11.5,10.4,17.1,20.1,17.1s15.4-3.9,20.1-8.7l6.8,11.6c-5.5,5.4-14.2,10.6-26.8,10.6-21.4,0-34.9-14.2-34.9-34.8s13-35.3,33.6-35.3"/>
      <path class="cls-3" d="M541.4,64c2.4,0,4.4.3,6.6.8v15.4c-2.3-.5-4.7-.9-7.4-.9-13.4,0-18.3,8.4-18.3,22.6v30.6h-14.5v-66.9h13.9v10.6c4-7.6,10.3-12.2,19.7-12.2"/>
    </g>
  </g>
</svg>