<?xml version="1.0" encoding="UTF-8"?>
<svg id="Layer_1" data-name="Layer 1" xmlns="http://www.w3.org/2000/svg" xmlns:xlink="http://www.w3.org/1999/xlink" viewBox="0 0 1242 825">
  <defs>
    <style>
      .cls-1 {
        fill: #a6a6a6;
      }

      .cls-1, .cls-2, .cls-3, .cls-4, .cls-5 {
        stroke-width: 0px;
      }

      .cls-2 {
        fill: url(#linear-gradient);
      }

      .cls-3 {
        fill: #ff7600;
      }

      .cls-4 {
        fill: #0000d4;
      }

      .cls-5 {
        fill: #fb0;
      }
    </style>
    <linearGradient id="linear-gradient" x1="467.37" y1="796.2" x2="792.25" y2="471.31" gradientUnits="userSpaceOnUse">
      <stop offset=".29" stop-color="#b900d4"/>
      <stop offset=".37" stop-color="#b300d5"/>
      <stop offset=".48" stop-color="#a400d8"/>
      <stop offset=".6" stop-color="#8c00de"/>
      <stop offset=".72" stop-color="#6900e6"/>
      <stop offset=".85" stop-color="#3d00f0"/>
      <stop offset=".98" stop-color="#0700fd"/>
      <stop offset="1" stop-color="blue"/>
    </linearGradient>
  </defs>
  <path class="cls-1" d="M937.48,394.39c5.45,5.45,5.45,12.27,1.36,17.72h0l-76.32,91.31c-1.36-2.73-4.09-5.45-6.81-8.18l-91.31-91.31c-2.73-2.73-5.45-4.09-8.18-6.81l91.31-76.32h0c5.45-4.09,13.63-4.09,17.72,1.36l72.23,72.23Z"/>
  <path class="cls-4" d="M1197.78,60.49c-19.08-19.08-49.06-19.08-68.14-1.36l-254.86,235.78c4.09,1.36,6.81,4.09,9.54,6.81l72.23,72.23c2.73,2.73,5.45,5.45,6.81,9.54l234.41-254.86c17.72-19.08,17.72-49.06,0-68.14Z"/>
  <path class="cls-2" d="M743.95,423.01c-1.36-1.36-4.09-2.73-5.45-4.09,0,0-2.73-1.36-6.81-1.36-40.89-8.18-81.77-1.36-117.21,20.44-38.16,25.89-61.33,70.87-68.14,133.56-6.81,65.42-27.26,111.76-58.6,136.29-14.99,12.27-35.43,19.08-55.88,17.72-8.18-1.36-14.99,4.09-16.35,10.9,0,6.81,2.73,12.27,8.18,14.99,51.79,20.44,106.3,31.35,162.18,32.71,46.34,1.36,91.31-9.54,130.84-32.71,68.14-39.52,109.03-114.48,121.3-222.15v-4.09c0-4.09-1.36-8.18-4.09-10.9l-89.95-91.31Z"/>
  <path class="cls-2" d="M743.95,423.01c-1.36-1.36-4.09-2.73-5.45-4.09,0,0-2.73-1.36-6.81-1.36-40.89-8.18-81.77-1.36-117.21,20.44-38.16,25.89-61.33,70.87-68.14,133.56-6.81,65.42-27.26,111.76-58.6,136.29-14.99,12.27-35.43,19.08-55.88,17.72-8.18-1.36-14.99,4.09-16.35,10.9,0,6.81,2.73,12.27,8.18,14.99,51.79,20.44,106.3,31.35,162.18,32.71,46.34,1.36,91.31-9.54,130.84-32.71,68.14-39.52,109.03-114.48,121.3-222.15v-4.09c0-4.09-1.36-8.18-4.09-10.9l-89.95-91.31Z"/>
  <path class="cls-3" d="M213.14,256.99c2.63,7.04-.92,14.89-7.95,17.56-30.23,11.39-42.06,81.67-10.93,164.31,2.65,7.04-.91,14.9-7.95,17.56-7.04,2.65-14.9-.91-17.56-7.95-31.13-82.65-86.39-127.66-116.61-116.27-7.04,2.65-14.9-.91-17.56-7.95-2.65-7.04.91-14.9,7.95-17.56,30.23-11.39,42.06-81.67,10.93-164.31-2.65-7.04.91-14.9,7.95-17.56,7.04-2.65,14.9.91,17.56,7.95,31.13,82.65,86.39,127.66,116.61,116.27,7.04-2.63,14.89.92,17.56,7.95Z"/>
  <path class="cls-5" d="M433.66,652.31c.82,12.01-8.25,22.41-20.26,23.23-12.01.82-22.41-8.25-23.23-20.26-9.63-140.93-73.55-235.32-125.09-231.79-12.01.82-22.41-8.25-23.23-20.26-.82-12.01,8.25-22.41,20.26-23.23,51.54-3.52,102.02-105.73,92.39-246.66-.82-12.01,8.25-22.41,20.26-23.23,12.01-.82,22.41,8.25,23.23,20.26,9.63,140.93,73.55,235.32,125.09,231.79,12.01-.82,22.41,8.25,23.23,20.26.82,12.01-8.25,22.41-20.26,23.23-51.54,3.52-102.02,105.73-92.39,246.66Z"/>
</svg>