<svg id="Layer_1" data-name="Layer 1" xmlns="http://www.w3.org/2000/svg" viewBox="0 0 178.89 54.72">
    <defs>
        <clipPath id="clippath">
            <path style="stroke-width:0;fill:none" d="M.18 0v53.7H44.4v.99h3.95v-.99h130.54V0H.18z"/>
        </clipPath>
        <style>
            .cls-3{stroke-width:0;fill:#ef2e31}
        </style>
    </defs>
    <g style="clip-path:url(#clippath)">
        <path d="M177.89 52.93H0V0h177.89v52.93Z" style="fill:#231f20;stroke-width:0"/>
        <path d="m22.11 29.36-3.95-8.67-2.41 3.35v5.33H9.12V6.39h6.63v9.48l6.36-9.48h6.33l-5.79 8.4 7.2 14.57h-7.74Zm16.41 0h-7.1V6.38h7.1v22.97Zm10.45-13.7v-4.39h2.85c.67 0 1.41 0 2.01.3.7.37 1.11 1.11 1.11 1.88 0 1.98-1.84 2.21-3.38 2.21h-2.59Zm13.4 13.7-4.15-10.01c2.71-1.24 4.05-3.05 4.05-6.06 0-2.24-.9-4.29-2.81-5.49-1.71-1.14-3.92-1.41-5.93-1.41H41.84v22.97h7.13v-8.77h2.21l3.35 8.77h7.84Zm15.24 0-3.95-8.67-2.41 3.35v5.33h-6.63V6.39h6.63v9.48l6.36-9.48h6.33l-5.79 8.4 7.2 14.57h-7.74Zm25.48 0H86.98V6.39h7.1v17.35h9.01v5.63Zm38.28 0-6.6-10.75-2.04-4.15-.07.07.07.27c.34 1.47.47 2.28.47 3.85v10.72h-5.73V6.39h6.67l7.7 12.83.07-.07-.5-6.36v-6.4h5.73v22.97h-5.77Zm15.77-5.29V11.61h.8c1.61 0 2.68-.07 3.79 1.31.97 1.27 1.41 3.28 1.41 4.82s-.27 3.08-1.07 4.42c-.37.64-.87 1.14-1.51 1.51-.87.47-1.47.4-2.41.4h-1.01Zm-7.06 5.29h8.94c3.18 0 6.03-.74 8.31-3.12 2.11-2.18 3.18-5.32 3.18-8.34 0-3.28-1.11-6.43-3.52-8.71-2.48-2.38-5.12-2.81-8.44-2.81h-8.47v22.97ZM111.59 6.41h7.2l7.4 22.98h-7.4l-3.62-12.43-.67-2.28-.64 2.18-3.62 12.53h-5.79l7.13-22.98h.01Z" style="fill:#fff;stroke-width:0"/>
        <path class="cls-3" d="M116.1 25.21c.49-1.84 8.82-5.75 8.82-5.75s-12 1.1-12 4.04c0 0 3.18.25 3.18 1.71ZM36.77 32.07s-.02 0-.06.01v.03l.06-.04Z"/>
        <path class="cls-3" d="M157.75 44.52c-1.33 0-2.64.01-3.83.04-.65.03-1.29.03-1.93.03-3.26 0-6.28-.24-7.87-.64 1.36-.65 2.63-1.32 3.66-1.92 1.11-.64 1.92-1.17 2.36-1.52.12-.11.21-.18.33-.33.25-.35.44-.7.44-1.13a1.182 1.182 0 0 0-.66-1.08c-.35-.17-.7-.22-1.08-.22-.93 0-2.07.32-3.24.87-1.16.56-2.33 1.37-3.16 2.46-.5.65-.87 1.44-1.02 2.3-.89.38-1.8.74-2.68 1.04-1.56.51-3.05.84-4.2.84-.38 0-.71-.03-1-.1-.51-.12-.8-.27-.91-.38l-.11-.23c0-.11.06-.34.21-.61.16-.27.39-.58.65-.89.52-.63 1.15-1.21 1.54-1.66.12-.14.22-.25.31-.43.04-.1.11-.22.11-.44 0-.11-.03-.26-.1-.39a.73.73 0 0 0-.29-.31c-.22-.13-.38-.13-.5-.13h-.14c-.13.02-.27.02-.41.02-1.08.01-2.39-.37-2.67-.46l-.06-.02-.37-.12-.31.23s-.1.07-.29.21-.47.34-.82.57c-.7.47-1.68 1.1-2.81 1.73-2.25 1.27-5.1 2.52-7.28 2.58h-.18c-.44 0-.74-.06-.89-.12-.16-.07-.17-.12-.17-.12l-.02-.11c0-.14.07-.42.23-.74.17-.32.4-.68.66-1.02.51-.69 1.1-1.3 1.33-1.53l.1-.1-.96-1.12s-.25.18-.67.49c-.42.31-1.02.74-1.71 1.21-1.38.95-3.16 2.08-4.68 2.82-1.01.5-1.93.79-2.37.78-.17 0-.25-.04-.25-.04l-.1-.07v-.04c-.01-.09.08-.38.32-.72.23-.34.57-.73.94-1.09.63-.63 1.32-1.18 1.72-1.49l.31-.2-.02-.02.05-.04-.85-1.21s-.08.05-.23.15c-.15.1-.38.24-.67.42-.58.36-1.43.85-2.46 1.39-2.05 1.08-4.85 2.32-7.74 2.99-.23.05-.4.07-.52.07-.08 0-.12 0-.15-.01v-.09c-.01-.16.05-.45.18-.81.13-.36.33-.79.57-1.25.49-.93 1.17-1.99 1.9-3.04.64-.92 1.3-1.83 1.91-2.62l14.14-.1v-.98l-13.38.09c.44-.56.81-1.02 1.05-1.3.07-.08.11-.13.15-.19.02-.02.04-.03.04-.03.06-.08.1-.13.1-.13l-1.08-1.01s-.35.33-.94.88c-.5.46-1.18 1.09-1.97 1.8l-10.86.08v.98l9.76-.07c-1.87 1.66-4.15 3.6-6.26 5.21-1.57 1.2-3.06 2.21-4.17 2.76-.62.31-1.14.45-1.35.44h-.08c-.24-.05-.3-.12-.35-.18-.05-.06-.1-.2-.1-.45-.01-.64.42-1.79.94-2.79.48-.93 1-1.75 1.27-2.14.06-.04.14-.08.24-.24a.82.82 0 0 0 .11-.39c0-.23-.11-.41-.19-.5l-.2-.15-.17-.07-.13-.02a9.94 9.94 0 0 0-.96-.05c-1.68 0-3.65.43-5.69 1.05-2.04.62-4.14 1.45-6.04 2.27-2.64 1.14-4.9 2.28-6.04 2.87.09-.13.19-.26.3-.4.47-.62 1.09-1.34 1.61-2.01.35-.44.65-.85.86-1.26.12-.24.23-.47.23-.8 0-.19-.06-.45-.23-.65-.17-.21-.4-.31-.59-.35-.28-.06-.56-.09-.85-.09-1.13 0-2.34.38-3.58.92-.95.41-1.9.92-2.79 1.45.09-.24.15-.5.16-.77 0-.37-.14-.8-.44-1.09-.3-.29-.68-.45-1.12-.54l-.21-.04-.2.07c-4.56 1.69-8.2 3.19-11.11 4.52l1.72-2.26c.55-.45 1-.9 1.33-1.36.19-.28.35-.58.41-.92l.67-.88-1.1-.12c-.65-.53-1.48-.75-2.34-.75-1.23 0-2.58.37-4.02.92-1.43.55-2.95 1.29-4.42 2.06-2.94 1.55-5.78 3.26-7.35 3.89-.19.08-.35.13-.49.17.02-.03.02-.06.05-.1.12-.2.32-.44.56-.68.49-.5 1.15-1 1.72-1.47.38-.32.72-.6.98-.94.14-.2.3-.42.31-.81.01-.3-.18-.63-.39-.79-.21-.16-.42-.23-.65-.29-.17-.05-.33-.05-.51-.05-.63 0-1.48.14-2.59.37-1.11.23-2.44.56-3.93.95-.37.1-.77.21-1.16.31.16-.35.27-.72.27-1.12s-.12-.81-.33-1.14-.5-.6-.83-.82c-.66-.44-1.49-.72-2.46-.93-1.93-.42-4.44-.54-7.02-.54-2.91 0-5.92.16-8.22.27 1.57-.42 3.48-.89 5.52-1.35 4.35-.99 9.23-1.98 12.44-2.61 1.91-.38 3.21-.63 3.47-.68l-.27-1.42s-4.28.81-9.35 1.86c-5.07 1.05-10.91 2.35-14.09 3.33-.92.29-1.6.53-2.08.8-.12.08-.25.13-.42.4a.797.797 0 0 0 .14.96c.12.11.21.16.29.19.16.06.28.08.41.1.26.04.56.04.93.04 2.15 0 6.77-.37 11.13-.37 1.66 0 3.28.05 4.69.2 1.41.14 2.61.38 3.4.72.53.22.84.48.96.68.07.12.1.21.1.35 0 .29-.14.65-.52 1.07-.23.25-.54.51-.91.78-1.97.56-4.03 1.17-6.06 1.78-6.87 2.08-13.23 4.16-13.23 4.16h-.01l.12.73.23.7s.02 0 .06-.02c.49-.08 9.35-1.61 15.61-4.04 1.56-.61 2.95-1.27 4.04-2.01 2.84-.8 5.42-1.48 7.27-1.87.8-.17 1.47-.27 1.92-.31-.14.12-.29.25-.46.38-.65.54-1.47 1.16-2.07 1.87-.4.48-.75 1.02-.76 1.72l.02.26c.03.26.19.57.45.74.25.17.51.21.73.21.35-.01.67-.09 1.04-.22.37-.12.77-.3 1.21-.51.88-.42 1.92-.98 3.05-1.61 1.19-.66 2.49-1.39 3.8-2.07-.56.8-.97 1.76-1.17 2.92l-.11.68.67.16c.19.04.39.06.6.06 1.1-.01 2.48-.47 3.96-1.13.33-.15.67-.31 1.01-.48l-1.02 1.35c-.23.12-.48.24-.7.36-3.32 1.75-5.21 3.13-6.26 4.32-.69.79-1.04 1.53-1.04 2.25-.01.49.17.92.4 1.24.24.32.52.55.79.72.54.34 1.06.48 1.06.48l.48.13 6.41-8.43c3.14-1.56 7.44-3.41 13.29-5.58.04.01.08.03.1.04l.07.05h.01v.04c.01.1-.1.44-.35.82s-.61.82-1 1.24c-.79.84-1.68 1.61-2.03 1.9l-.15.13.92 1.16.06-.04h.01s.13-.1.34-.28c.07-.06.15-.11.24-.18.42-.31 1.01-.74 1.71-1.22 1.4-.95 3.23-2.1 4.94-2.84 1.11-.49 2.19-.79 2.95-.8-.12.19-.28.41-.47.67-.48.61-1.1 1.33-1.62 2.01-.34.45-.65.88-.86 1.3-.11.24-.22.48-.22.81 0 .13.03.29.1.45.07.15.19.3.33.4.28.2.56.24.83.24l.3-.02.14-.02.13-.07s.1-.06.29-.16c.19-.11.47-.25.83-.44.72-.37 1.74-.88 2.95-1.45 1.64-.77 3.62-1.65 5.65-2.41-.34.36-.65.75-.89 1.19-.39.73-.68 1.33-.87 1.83-.2.51-.31.91-.31 1.32 0 .28.06.61.31.88.25.28.6.36.87.36.47-.01.86-.18 1.32-.4.45-.23.94-.54 1.47-.9 1.06-.73 2.24-1.67 3.36-2.62.33-.28.65-.55.96-.82-.01.04-.03.07-.05.11-.25.67-.44 1.34-.44 2 0 .44.09.91.37 1.31.29.41.75.68 1.27.78.13.04.25.04.37.04.65-.01 1.28-.25 2.01-.61.72-.36 1.53-.85 2.39-1.44 1.73-1.18 3.67-2.73 5.51-4.27.41-.35.82-.69 1.22-1.04-.85 1.28-1.61 2.57-2.04 3.65-.2.53-.34 1.01-.34 1.5 0 .38.1.81.43 1.14.33.33.78.44 1.21.44.27 0 .55-.04.85-.11 2.6-.61 5.08-1.63 7.07-2.6-.14.3-.24.62-.24.97-.01.26.06.53.2.78s.35.45.59.6c.33.2.68.26 1.02.26.91-.02 1.91-.4 3.01-.93 1.09-.53 2.26-1.23 3.34-1.92.13-.08.25-.16.37-.24-.09.26-.14.53-.14.82 0 .24.05.51.17.76s.32.47.56.63c.48.32 1.07.43 1.82.43h.23c2.66-.1 5.61-1.46 7.96-2.77 1.77-.98 3.18-1.96 3.78-2.39.43.13 1.2.32 2.05.4-.49.51-1.07 1.12-1.51 1.79-.3.47-.56.98-.56 1.59-.02.47.2.99.6 1.33.4.35.92.57 1.58.72.42.1.86.14 1.32.14 1.98-.01 4.36-.73 6.69-1.67.26-.1.5-.22.76-.33.2.14.41.26.66.36.59.23 1.34.39 2.25.53 1.81.27 4.21.4 6.78.4.65 0 1.31-.01 1.97-.03 1.17-.03 2.47-.04 3.8-.04 2.66 0 5.44.05 7.55.1s3.56.1 3.56.1l.05-1.48s-5.81-.19-11.16-.19ZM46.11 52.98c-.22-.11-.45-.27-.56-.43a.585.585 0 0 1-.13-.38c0-.21.11-.64.67-1.27.55-.63 1.52-1.44 3.07-2.41.22-.14.45-.27.68-.42l-3.73 4.91Zm4.26-9.55c-.72.28-1.39.47-1.9.55.24-.77.61-1.38 1.05-1.89.61-.69 1.38-1.2 2.22-1.57 1.55-.68 3.33-.86 4.52-.89l-.63.83c-.22.18-.45.35-.71.53-1.32.93-3.06 1.86-4.55 2.43Zm38.75-2.75c-1.2 1.08-2.77 2.43-4.19 3.52-.95.72-1.84 1.33-2.47 1.65-.1.05-.2.09-.28.13.03-.12.07-.25.13-.41.16-.41.42-.96.79-1.65.77-1.45 2.59-2.42 4.43-2.98.62-.19 1.23-.33 1.79-.44-.07.06-.13.12-.2.18Zm55.57.5c.83-.75 1.91-1.32 2.87-1.64.64-.22 1.23-.32 1.62-.32h.15l-.04.07v.01l-.19.15c-.17.12-.42.29-.73.49-.62.4-1.47.9-2.45 1.43-.71.39-1.51.79-2.33 1.18.26-.49.63-.95 1.1-1.37Z"/>
        <path class="cls-3" d="M45.65 38.54c.24-.92 4.41-2.88 4.41-2.88s-6 .55-6 2.02c0 0 1.59.12 1.59.86Z"/>
    </g>
</svg>
