<svg xmlns="http://www.w3.org/2000/svg" viewBox="0 0 724.47 120"><defs><style>.cls-1{fill:#425cc7;}</style></defs><g id="Layer_2" data-name="Layer 2"><g id="Layer_1-2" data-name="Layer 1"><polygon points="97 2.19 67.12 2.19 25.35 57.57 25.35 2.19 0 2.19 0 117.97 25.35 117.97 25.35 95.75 42.56 73.22 68.06 117.97 97.31 117.97 59.14 51.63 97 2.19"/><rect x="107" y="39.74" width="24.09" height="78.23"/><path d="M105.13,13.77a13.69,13.69,0,1,0,27.38,0,13.69,13.69,0,0,0-27.38,0Z"/><polygon points="194.77 59.77 194.77 39.74 179.91 39.74 179.91 15.49 155.81 15.49 155.81 39.74 140.95 39.74 140.95 59.77 155.81 59.77 155.81 117.97 179.91 117.97 179.91 59.77 194.77 59.77"/><path d="M279.87,91.53H257.81c-1.72,5.63-8.13,8.91-17.21,8.91-10.63,0-16.42-4.85-17.83-15.17L279.56,85v-6.1c0-25.5-15.33-41.62-39.89-41.62-23.63,0-40.06,17.06-40.06,41.47,0,24.09,16.9,41.3,40.53,41.3C261.57,120,277.06,108.89,279.87,91.53ZM223.08,70.4c1.88-9.38,7.2-13.61,16.74-13.61,9.7,0,15.8,5.32,15.8,13.61Z"/><path d="M358.56,118h22.38l27.38-78.23H382.81l-7.51,25.5c-.78,2.82-4.53,16.59-5.47,22.22-.78-5-4.54-19.56-5.32-22.22l-7.35-25.5H332.44l-8,25.5c-3.44,11-4.23,13.93-5.64,22.22A202.79,202.79,0,0,0,314,65.24l-7.19-25.5H281.43L306.62,118h23.47l7.51-24.41c5-16.43,6.41-22.53,7-25.81.47,3.28,2.5,12.51,6.41,25.34Z"/><path d="M562.87,39.74a40.18,40.18,0,0,0-9.23-1.1c-10.49,0-17.37,5.17-20.65,12.83l-1.26-11.58H509.05V118h24.09V84c0-15.48,8.29-21.58,22.06-21.58h7.67Z"/><polygon points="598.22 117.97 598.22 98.41 607.45 88.71 624.97 117.97 652.82 117.97 624.35 70.72 653.76 39.74 623.57 39.74 598.22 67.9 598.22 0 574.12 0 574.12 117.97 598.22 117.97"/><path d="M658.91,62.89c0,13.77,7.05,20,21.44,23.16l14.39,3.13c5.79,1.25,7,3.75,7,6.1,0,4.07-3.44,6.73-10.95,6.73-7.35,0-11.42-3.29-11.73-8.76H656.26c0,15.8,13,26.75,33.63,26.75,20.34,0,34.58-10.17,34.58-26.91,0-12.52-7-18.46-19.87-21.28l-14.55-3.13c-5.48-1.25-8.45-3.28-8.45-6.88,0-4.23,3.44-7,8.92-7,5.79,0,9.07,3.6,9.07,8.92h22.85c0-15.81-12.68-26.45-30.83-26.45C672.84,37.23,658.91,46.62,658.91,62.89Z"/><path d="M471.82,78.54c0,11.89-7.66,19.71-18.77,19.71-11.27,0-18.93-7.82-18.93-19.71,0-11.73,7.66-19.56,18.93-19.56a22.9,22.9,0,0,1,2.91.21V37.48c-1,0-1.93-.09-2.91-.09-25,0-43.18,16.59-43.18,41.31s18.15,41.14,43.18,41.14c24.87,0,43-16.43,43-41.14a47,47,0,0,0-.71-8.17H470.45A22.81,22.81,0,0,1,471.82,78.54Z"/><rect class="cls-1" x="465.64" y="30.99" width="29.58" height="29.58"/></g></g></svg>