<?xml version="1.0" encoding="UTF-8"?>
<svg id="Layer_1" data-name="Layer 1" xmlns="http://www.w3.org/2000/svg" xmlns:xlink="http://www.w3.org/1999/xlink" viewBox="0 0 48 48">
  <defs>
    <style>
      .cls-1 {
        clip-path: url(#clippath);
      }

      .cls-2 {
        fill: none;
      }

      .cls-2, .cls-3, .cls-4 {
        stroke-width: 0px;
      }

      .cls-3 {
        fill: #38bdf8;
        fill-rule: evenodd;
      }

      .cls-4 {
        fill: #fff;
      }
    </style>
    <clipPath id="clippath">
      <rect class="cls-2" x="3.15" y="11" width="40.66" height="24.4"/>
    </clipPath>
  </defs>
  <path class="cls-4" d="M10.4,0h27.2c5.7,0,10.4,4.7,10.4,10.4v27.2c0,5.7-4.7,10.4-10.4,10.4H10.4c-5.7,0-10.4-4.7-10.4-10.4V10.4C0,4.7,4.7,0,10.4,0Z"/>
  <g class="cls-1">
    <path class="cls-3" d="M23.48,11c-5.42,0-8.81,2.71-10.16,8.13,2.03-2.71,4.4-3.73,7.12-3.05,1.55.39,2.65,1.51,3.88,2.75,1.99,2.02,4.3,4.36,9.34,4.36,5.42,0,8.81-2.71,10.16-8.13-2.03,2.71-4.4,3.73-7.12,3.05-1.55-.39-2.65-1.51-3.88-2.75-1.99-2.02-4.3-4.36-9.34-4.36ZM13.31,23.2c-5.42,0-8.81,2.71-10.16,8.13,2.03-2.71,4.4-3.73,7.12-3.05,1.55.39,2.65,1.51,3.88,2.75,1.99,2.02,4.3,4.36,9.34,4.36,5.42,0,8.81-2.71,10.16-8.13-2.03,2.71-4.4,3.73-7.12,3.05-1.55-.39-2.65-1.51-3.88-2.75-1.99-2.02-4.3-4.36-9.34-4.36Z"/>
  </g>
</svg>