<?xml version="1.0" encoding="UTF-8"?>
<svg id="Layer_1" data-name="Layer 1" xmlns="http://www.w3.org/2000/svg" xmlns:xlink="http://www.w3.org/1999/xlink" viewBox="0 0 48 48">
  <defs>
    <style>
      .cls-1 {
        mix-blend-mode: overlay;
        opacity: .25;
      }

      .cls-2 {
        fill: url(#linear-gradient);
        fill-rule: evenodd;
      }

      .cls-2, .cls-3, .cls-4, .cls-5, .cls-6 {
        stroke-width: 0px;
      }

      .cls-3 {
        fill: #1f9cf0;
      }

      .cls-4 {
        fill: #0065a9;
      }

      .cls-7 {
        isolation: isolate;
      }

      .cls-5 {
        fill: #fff;
      }

      .cls-6 {
        fill: #007acc;
      }
    </style>
    <linearGradient id="linear-gradient" x1="22.7" y1="6.3" x2="22.7" y2="40.1" gradientTransform="translate(0 0) rotate(.02)" gradientUnits="userSpaceOnUse">
      <stop offset="0" stop-color="#fff"/>
      <stop offset="1" stop-color="#fff" stop-opacity="0"/>
    </linearGradient>
  </defs>
  <g class="cls-7">
    <g id="Layer_1-2" data-name="Layer 1">
      <path class="cls-5" d="M10.41,0h27.2c5.7.01,10.4,4.71,10.4,10.41v27.2c-.01,5.7-4.71,10.4-10.41,10.4H10.39C4.69,47.99,0,43.29,0,37.59V10.39C0,4.69,4.71,0,10.41,0Z"/>
      <g>
        <path class="cls-4" d="M38.5,9.89l-7-3.37c-.81-.39-1.78-.23-2.41.41L6.17,27.8c-.62.56-.62,1.53,0,2.09l1.87,1.7c.5.46,1.26.49,1.81.08l27.6-20.92c.93-.7,2.26-.04,2.26,1.12v-.08c0-.82-.47-1.56-1.2-1.91Z"/>
        <path class="cls-6" d="M38.5,36.52l-7,3.37c-.81.39-1.78.23-2.41-.41L6.17,18.57c-.62-.56-.62-1.53,0-2.09l1.87-1.7c.5-.46,1.26-.49,1.81-.08l27.58,20.94c.93.7,2.26.04,2.26-1.12v.08c0,.82-.47,1.56-1.2,1.91Z"/>
        <path class="cls-3" d="M31.49,39.88c-.81.39-1.78.22-2.41-.41.78.78,2.12.23,2.12-.88V7.8c.01-1.11-1.33-1.66-2.11-.88.64-.64,1.6-.8,2.41-.41l7,3.37c.74.35,1.2,1.1,1.2,1.91v22.82c0,.82-.48,1.56-1.21,1.91l-7,3.37h0Z"/>
        <g class="cls-1">
          <path class="cls-2" d="M29.79,39.95c.54.21,1.15.2,1.69-.06l6.99-3.37c.73-.35,1.2-1.1,1.2-1.91V11.8c0-.82-.46-1.56-1.19-1.91l-6.99-3.37c-.71-.34-1.54-.26-2.16.19-.09.06-.17.14-.25.22l-13.39,12.22-5.83-4.43c-.54-.41-1.3-.38-1.81.08l-1.87,1.7c-.62.56-.62,1.53,0,2.09l5.06,4.61-5.06,4.61c-.62.56-.62,1.53,0,2.09l1.87,1.7c.5.46,1.26.49,1.81.08l5.83-4.43,13.39,12.22c.21.21.46.37.73.48h-.01ZM31.19,15.48l-10.16,7.71,10.16,7.71s0-15.42,0-15.42Z"/>
        </g>
      </g>
    </g>
  </g>
</svg>